<?xml version="1.0" standalone="no"?>
<!DOCTYPE svg PUBLIC "-//W3C//DTD SVG 1.1//EN" "http://www.w3.org/Graphics/SVG/1.1/DTD/svg11.dtd" >
<svg xmlns="http://www.w3.org/2000/svg" xmlns:xlink="http://www.w3.org/1999/xlink" version="1.1">
<metadata>
Created by FontForge 20170731 at Fri Jan 15 17:27:22 2010
 By Aleksey,,,
Copyright (c) 2009 -2010 Linotype GmbH, www.linotype.com. All rights reserved. This font software may not be reproduced, modified, disclosed or transferred without the express written approval of Linotype GmbH. Arian is a trademark of Linotype GmbH and may be registered in certain jurisdictions. This typeface is original artwork of Naghi Naghashian. The design may be protected in certain jurisdictions.
</metadata>
<defs>
<font id="ArianLT-Bold" horiz-adv-x="0" >
  <font-face 
    font-family="ArianLT-Bold"
    font-weight="700"
    font-stretch="normal"
    units-per-em="1000"
    panose-1="2 11 8 5 2 2 2 5 2 4"
    ascent="800"
    descent="-200"
    x-height="398"
    cap-height="564"
    bbox="-153 -520 1930 1052"
    underline-thickness="50"
    underline-position="-200"
    unicode-range="U+000D-FEFC"
  />
<missing-glyph horiz-adv-x="403" 
d="M174 92v52h44v-52h-44zM175 184v14q0 21 2 35.5t7 26.5t14.5 23t23.5 23q25 25 32 39t7 28q0 28 -18 47t-42 19t-41.5 -17t-22.5 -58l-40 7q6 57 35 82.5t71 25.5q44 0 71 -28t27 -75q0 -26 -10 -46t-40 -48q-14 -13 -21.5 -21.5t-11.5 -17t-4.5 -19t-0.5 -26.5v-14h-38z
M364 39v486h-325v-486h325zM403 564v-564h-403v564h403z" />
    <glyph glyph-name="uniFEF5" unicode="&#xfedf;&#xfe82;" horiz-adv-x="672" arabic-form="isolated" 
d="M576 132q0 -37 -16 -62t-40 -40.5t-52 -22.5t-52 -7h-371q-14 0 -23.5 5t-9.5 24v83q0 5 2 5t3.5 -1.5l2.5 -2.5q9 -8 18.5 -9.5t27.5 -1.5h20q29 1 43 8.5t14 35.5v439h103v-447q0 -8 -2 -20t-7 -16h180q29 2 42 10t13 36v41.5v76t-0.5 91.5t-0.5 88.5v67v26.5
q0 6 2.5 14t8 15t15.5 12t25 5h54v-453zM91 640q-10 1 -13 7q-6 10 -6 26q0 13 5 26q10 20 30 25.5t44 5.5h164q4 0 5 1l2 2q2 0 2 -6v-19q0 -2 -2 -5t-12 -3h-165q-13 0 -29 -6t-16 -23q0 -9 3 -14.5t6 -9.5l3 -3t2 -3t-5 -1h-18z" />
    <glyph glyph-name="uniFEF6" unicode="&#xfee0;&#xfe82;" horiz-adv-x="716" arabic-form="final" 
d="M569 134q2 -18 17 -25.5t35 -7.5h130v-101h-114q-21 0 -37.5 5.5t-28 13.5t-19 16.5t-10.5 13.5v5q-12 -15 -28.5 -25t-34.5 -16.5t-36 -9.5t-34 -3h-371q-14 0 -23.5 5t-9.5 24v83q0 5 2 5t3.5 -1.5l2.5 -2.5q9 -8 18.5 -9.5t27.5 -1.5h20q29 1 43 8.5t14 35.5v439h103
v-447q0 -8 -2 -20t-7 -16h180q29 2 42 10t13 36v41.5t-0.5 76t-0.5 91.5t-0.5 88.5t-0.5 67v26.5q0 6 2 14t7.5 15t15 12t24.5 5h57v-451zM79 609q-10 1 -13 7q-6 10 -6 26q0 13 5 26q10 20 30 25.5t44 5.5h164q4 0 5 1l2 2q2 0 2 -6v-19q0 -2 -2 -5t-12 -3h-165
q-13 0 -29 -6t-16 -23q0 -9 3 -14.5t6 -9.5l3 -3t2 -3t-5 -1h-18z" />
    <glyph glyph-name="uniFEF7" unicode="&#xfedf;&#xfe84;" horiz-adv-x="672" arabic-form="isolated" 
d="M576 132q0 -37 -16 -62t-40 -40.5t-52 -22.5t-52 -7h-371q-14 0 -23.5 5t-9.5 24v83q0 5 2 5t3.5 -1.5l2.5 -2.5q9 -8 18.5 -9.5t27.5 -1.5h20q29 1 43 8.5t14 35.5v439h103v-447q0 -8 -2 -20t-7 -16h180q29 2 42 10t13 36v41.5v76t-0.5 91.5t-0.5 88.5v67v26.5
q0 6 2.5 14t8 15t15.5 12t25 5h54v-453zM151 702q-11 8 -17 22.5t-6 27.5q2 38 33 55q11 5 20 6t14 2h67q9 0 13 4q1 1 1 1.5t1 1.5q0 1 1 1l27 -24q-3 -7 -7 -9q-5 -4 -12 -4.5t-13 -0.5h-75q-38 -3 -38 -35q0 -23 14.5 -35.5t37.5 -12.5h94v-27h-209v27h54z" />
    <glyph glyph-name="uniFEF8" unicode="&#xfee0;&#xfe84;" horiz-adv-x="716" arabic-form="final" 
d="M569 134q2 -18 17 -25.5t35 -7.5h130v-101h-114q-21 0 -37.5 5.5t-28 13.5t-19 16.5t-10.5 13.5v5q-12 -15 -28.5 -25t-34.5 -16.5t-36 -9.5t-34 -3h-371q-14 0 -23.5 5t-9.5 24v83q0 5 2 5t3.5 -1.5l2.5 -2.5q9 -8 18.5 -9.5t27.5 -1.5h20q29 1 43 8.5t14 35.5v439h103
v-447q0 -8 -2 -20t-7 -16h180q29 2 42 10t13 36v41.5t-0.5 76t-0.5 91.5t-0.5 88.5t-0.5 67v26.5q0 6 2 14t7.5 15t15 12t24.5 5h57v-451zM156 700q-11 8 -17 22.5t-6 27.5q2 38 33 55q11 5 20 6t14 2h67q9 0 13 4q1 1 1 1.5t1 1.5q0 1 1 1l27 -24q-3 -7 -7 -9
q-5 -4 -12 -4.5t-13 -0.5h-75q-38 -3 -38 -35q0 -23 14.5 -35.5t37.5 -12.5h94v-27h-209v27h54z" />
    <glyph glyph-name="uniFEF9" unicode="&#xfedf;&#xfe88;" horiz-adv-x="672" arabic-form="isolated" 
d="M576 132q0 -37 -16 -62t-40 -40.5t-52 -22.5t-52 -7h-371q-14 0 -23.5 5t-9.5 24v83q0 5 2 5t3.5 -1.5l2.5 -2.5q9 -8 18.5 -9.5t27.5 -1.5h20q29 1 43 8.5t14 35.5v439h103v-447q0 -8 -2 -20t-7 -16h180q29 2 42 10t13 36v41.5v76t-0.5 91.5t-0.5 88.5v67v26.5
q0 6 2.5 14t8 15t15.5 12t25 5h54v-453zM142 -225q-11 8 -17 22.5t-6 27.5q2 38 33 55q11 5 20 6t14 2h67q9 0 13 4q1 1 1 1.5t1 1.5q0 1 1 1l27 -24q-3 -7 -7 -9q-5 -4 -12 -4.5t-13 -0.5h-75q-38 -3 -38 -35q0 -23 14.5 -35.5t37.5 -12.5h94v-27h-209v27h54z" />
    <glyph glyph-name="uniFEFA" unicode="&#xfee0;&#xfe88;" horiz-adv-x="716" arabic-form="final" 
d="M569 134q2 -18 17 -25.5t35 -7.5h130v-101h-114q-21 0 -37.5 5.5t-28 13.5t-19 16.5t-10.5 13.5v5q-12 -15 -28.5 -25t-34.5 -16.5t-36 -9.5t-34 -3h-371q-14 0 -23.5 5t-9.5 24v83q0 5 2 5t3.5 -1.5l2.5 -2.5q9 -8 18.5 -9.5t27.5 -1.5h20q29 1 43 8.5t14 35.5v439h103
v-447q0 -8 -2 -20t-7 -16h180q29 2 42 10t13 36v41.5t-0.5 76t-0.5 91.5t-0.5 88.5t-0.5 67v26.5q0 6 2 14t7.5 15t15 12t24.5 5h57v-451zM137 -222q-11 8 -17 22.5t-6 27.5q2 38 33 55q11 5 20 6t14 2h67q9 0 13 4q1 1 1 1.5t1 1.5q0 1 1 1l27 -24q-3 -7 -7 -9
q-5 -4 -12 -4.5t-13 -0.5h-75q-38 -3 -38 -35q0 -23 14.5 -35.5t37.5 -12.5h94v-27h-209v27h54z" />
    <glyph glyph-name="uniFEFB" unicode="&#xfedf;&#xfe8e;" horiz-adv-x="674" arabic-form="isolated" 
d="M576 132q0 -37 -16 -62t-40 -40.5t-52 -22.5t-52 -7h-371q-14 0 -23.5 5t-9.5 24v83q0 5 2 5t3.5 -1.5l2.5 -2.5q9 -8 18.5 -9.5t27.5 -1.5h20q29 1 43 8.5t14 35.5v439h103v-447q0 -8 -2 -20t-7 -16h180q29 2 42 10t13 36v41.5v76t-0.5 91.5t-0.5 88.5v67v26.5
q0 6 2.5 14t8 15t15.5 12t25 5h54v-453z" />
    <glyph glyph-name="uniFEFC" unicode="&#xfee0;&#xfe8e;" horiz-adv-x="716" arabic-form="final" 
d="M569 134q2 -18 17 -25.5t35 -7.5h130v-101h-114q-21 0 -37.5 5.5t-28 13.5t-19 16.5t-10.5 13.5v5q-12 -15 -28.5 -25t-34.5 -16.5t-36 -9.5t-34 -3h-371q-14 0 -23.5 5t-9.5 24v83q0 5 2 5t3.5 -1.5l2.5 -2.5q9 -8 18.5 -9.5t27.5 -1.5h20q29 1 43 8.5t14 35.5v439h103
v-447q0 -8 -2 -20t-7 -16h180q29 2 42 10t13 36v41.5t-0.5 76t-0.5 91.5t-0.5 88.5t-0.5 67v26.5q0 6 2 14t7.5 15t15 12t24.5 5h57v-451z" />
    <glyph glyph-name="uniFEDF_uniFB51.zz10" unicode="&#xfedf;&#xfb51;" horiz-adv-x="674" 
d="M576 132q0 -37 -16 -62t-40 -40.5t-52 -22.5t-52 -7h-371q-14 0 -23.5 5t-9.5 24v83q0 5 2 5t3.5 -1.5l2.5 -2.5q9 -8 18.5 -9.5t27.5 -1.5h20q29 1 43 8.5t14 35.5v439h103v-447q0 -8 -2 -20t-7 -16h180q29 2 42 10t13 36v41.5v76t-0.5 91.5t-0.5 88.5v67v26.5
q0 6 2.5 14t8 15t15.5 12t25 5h54v-453zM87 699q0 3 2 1t6 -2h21v101q0 14 12 14h15v-74l52 30q8 5 21 10t27 5q25 0 41 -15t16 -39q0 -27 -16 -42.5t-37 -15.5h-147q-9 0 -11 2.5t-2 8.5v16zM238 698q17 0 25.5 8.5t8.5 22.5q0 11 -9 19.5t-22 8.5q-8 0 -19.5 -5.5
t-18.5 -9.5l-74 -44h109z" />
    <glyph glyph-name="uniFEE0_uniFB51.zz10" unicode="&#xfee0;&#xfb51;" horiz-adv-x="716" 
d="M569 134q2 -18 17 -25.5t35 -7.5h130v-101h-114q-21 0 -37.5 5.5t-28 13.5t-19 16.5t-10.5 13.5v5q-12 -15 -28.5 -25t-34.5 -16.5t-36 -9.5t-34 -3h-371q-14 0 -23.5 5t-9.5 24v83q0 5 2 5t3.5 -1.5l2.5 -2.5q9 -8 18.5 -9.5t27.5 -1.5h20q29 1 43 8.5t14 35.5v439h103
v-447q0 -8 -2 -20t-7 -16h180q29 2 42 10t13 36v41.5t-0.5 76t-0.5 91.5t-0.5 88.5t-0.5 67v26.5q0 6 2 14t7.5 15t15 12t24.5 5h57v-451zM84 700q0 3 2 1t6 -2h21v101q0 14 12 14h15v-74l52 30q8 5 21 10t27 5q25 0 41 -15t16 -39q0 -27 -16 -42.5t-37 -15.5h-147
q-9 0 -11 2.5t-2 8.5v16zM235 699q17 0 25.5 8.5t8.5 22.5q0 11 -9 19.5t-22 8.5q-8 0 -19.5 -5.5t-18.5 -9.5l-74 -44h109z" />
    <glyph glyph-name="uni0621" unicode="&#x621;" horiz-adv-x="523" arabic-form="isolated" 
d="M335 380q6 0 13.5 1.5t13.5 9.5q14 -13 26 -25l21.5 -21.5t16.5 -15.5q9 -9 9 -16q0 -4 -5 -11q-8 -12 -27.5 -19.5t-37.5 -7.5h-43q-12 0 -26 1q-14 0 -30.5 -1t-30.5 -6t-23.5 -16t-9.5 -30q0 -32 2 -55t9 -37.5t20.5 -21.5t36.5 -7h181v-102h-413q-2 0 -6.5 -0.5
t-8.5 -3.5q-4 -4 -7 -4t-3 12v72q0 14 8.5 20t19.5 6h71q-8 4 -14 16q-5 10 -9.5 29t-4.5 51q0 37 7 70t25 58t48 39.5t76 14.5h95v0z" />
    <glyph glyph-name="uni0622" unicode="&#x622;" horiz-adv-x="302" arabic-form="isolated" 
d="M97 0v539q0 15 2 24.5t7 14t15 6t26 1.5h55v-585h-105zM42 610q-10 1 -13 7q-6 10 -6 26q0 13 5 26q10 20 30 25.5t44 5.5h164q4 0 5 1l2 2q2 0 2 -6v-19q0 -2 -2 -5t-12 -3h-165q-13 0 -29 -6t-16 -23q0 -9 3 -14.5t6 -9.5l3 -3t2 -3t-5 -1h-18z" />
    <glyph glyph-name="uni0623" unicode="&#x623;" horiz-adv-x="284" arabic-form="isolated" 
d="M88 0v539q0 15 2 24.5t7 14t15 6t26 1.5h55v-585h-105zM91 698q-11 8 -17 22.5t-6 27.5q2 38 33 55q11 5 20 6t14 2h67q9 0 13 4q1 1 1 1.5t1 1.5q0 1 1 1l27 -24q-3 -7 -7 -9q-5 -4 -12 -4.5t-13 -0.5h-75q-38 -3 -38 -35q0 -23 14.5 -35.5t37.5 -12.5h94v-27h-209v27
h54z" />
    <glyph glyph-name="uni0624" unicode="&#x624;" horiz-adv-x="572" arabic-form="isolated" 
d="M353 -68q4 11 6.5 24t4 25t2 22t0.5 16q-17 -20 -41 -23.5t-50 -3.5q-115 0 -166.5 47.5t-51.5 146.5q1 109 62 166t166 57q45 0 81 -17t61.5 -47t39.5 -72t14 -91v-26t-1 -48t-2.5 -60.5t-4.5 -63.5q-14 -128 -85.5 -184t-205.5 -58q-16 0 -26.5 1t-16.5 4.5t-8.5 11.5
t-2.5 23v9t-0.5 18.5t-0.5 21v15.5q0 4 3 6h1l2 1q1 0 7 -2q5 -2 14 -3t19.5 -2t20.5 -1.5t17 -0.5q57 0 90 18t52 70zM373 103q0 6 1 15q1 8 1.5 17.5t0.5 21.5q0 10 -0.5 20t-1.5 21q-2 21 -8.5 40.5t-18.5 34.5t-29.5 24t-39.5 9q-58 0 -86 -29t-28 -79q0 -30 3.5 -50
t15 -31.5t32.5 -16t56 -4.5q38 0 58 0.5t30 2.5q11 2 14 4zM220 541q-11 8 -17 22.5t-6 27.5q2 38 33 55q11 5 20 6t14 2h67q9 0 13 4q1 1 1 1.5t1 1.5q0 1 1 1l27 -24q-3 -7 -7 -9q-5 -4 -12 -4.5t-13 -0.5h-75q-38 -3 -38 -35q0 -23 14.5 -35.5t37.5 -12.5h94v-27h-209v27
h54z" />
    <glyph glyph-name="uni0625" unicode="&#x625;" horiz-adv-x="293" arabic-form="isolated" 
d="M98 0v539q0 15 2 24.5t7 14t15 6t26 1.5h55v-585h-105zM99 -228q-11 8 -17 22.5t-6 27.5q2 38 33 55q11 5 20 6t14 2h67q9 0 13 4q1 1 1 1.5t1 1.5q0 1 1 1l27 -24q-3 -7 -7 -9q-5 -4 -12 -4.5t-13 -0.5h-75q-38 -3 -38 -35q0 -23 14.5 -35.5t37.5 -12.5h94v-27h-209v27
h54z" />
    <glyph glyph-name="uni0626" unicode="&#x626;" horiz-adv-x="805" arabic-form="isolated" 
d="M680 102q21 0 32.5 -2t16.5 -10q5 -7 6 -20t1 -36q0 -54 -12.5 -95.5t-35.5 -73t-54.5 -53.5t-70.5 -37q-48 -18 -105 -25.5t-118 -7.5q-64 0 -124 16.5t-106.5 51t-75 87.5t-28.5 126q0 15 1.5 31.5t3.5 32t4 29t4 21.5q2 10 5 17.5t9 13.5q11 11 29 12q7 1 23 2t51 3
q1 0 4 -0.5t3 -2.5t-2 -7t-4 -13q-11 -35 -15.5 -64.5t-4.5 -55.5q0 -100 58 -149t167 -49q45 0 94 6t90 21.5t67.5 43t26.5 71.5q0 5 -2 9.5t-7 4.5h-142q-33 0 -62.5 6.5t-52 20.5t-35.5 36t-13 53q0 14 3 26q7 31 30 63t55.5 61.5t71.5 55.5t78 45.5t74 31t61 12.5
q18 0 31.5 -5.5t14.5 -23.5v-89q0 -14 -3 -14q-4 0 -7 3t-8 6t-13 6t-21 3q-23 0 -56 -14t-67.5 -35.5t-65.5 -47t-48 -47.5q-13 -17 -13 -31q0 -20 25 -20h232v0zM67 381q-11 8 -17 22.5t-6 27.5q2 38 33 55q11 5 20 6t14 2h67q9 0 13 4q1 1 1 1.5t1 1.5q0 1 1 1l27 -24
q-3 -7 -7 -9q-5 -4 -12 -4.5t-13 -0.5h-75q-38 -3 -38 -35q0 -23 14.5 -35.5t37.5 -12.5h94v-27h-209v27h54z" />
    <glyph glyph-name="uni0627" unicode="&#x627;" horiz-adv-x="281" arabic-form="isolated" 
d="M88 0v539q0 15 2 24.5t7 14t15 6t26 1.5h55v-585h-105z" />
    <glyph glyph-name="uni0628" unicode="&#x628;" horiz-adv-x="1035" arabic-form="isolated" 
d="M180 0q-81 0 -126.5 36.5t-47.5 115.5q1 19 1.5 36t5.5 37q3 18 13 28.5t30 13.5q5 1 20.5 1.5t52.5 2.5q9 0 11 -3t-0.5 -7.5t-6.5 -11.5q-6 -11 -10.5 -24t-6.5 -26q-2 -11 -2.5 -27t-0.5 -22q0 -29 16 -38.5t46 -9.5h596q32 0 47 10.5t15 48.5v167q0 26 10 39t36 13
h59v-246q0 -39 -10.5 -65t-30.5 -41t-50 -21.5t-70 -6.5h-597zM530 -188q0 -22 -15 -37.5t-37 -15.5t-37.5 15.5t-15.5 37.5q0 21 15.5 36.5t37.5 15.5t37 -15.5t15 -36.5z" />
    <glyph glyph-name="uni0629" unicode="&#x629;" horiz-adv-x="735" arabic-form="isolated" 
d="M467 338q41 -6 72.5 -17.5t52.5 -32t32 -51.5t11 -75q0 -86 -53 -124t-146 -38h-221q-92 0 -145.5 38.5t-53.5 123.5q0 45 11 76t32.5 51.5t52.5 31.5t72 17q36 5 53 5.5t27 8.5q5 5 7 10.5t2 10.5q0 2 -0.5 3t-0.5 2v2h107q-1 -1 -1 -2v-6q0 -5 1.5 -10t7.5 -10
q10 -8 27 -8.5t53 -5.5zM442 102q45 0 66 14t21 55q0 20 -7.5 32t-20 19t-29 10t-34.5 6q-2 0 -17.5 1.5t-35 4t-37 7t-23.5 11.5q-5 -7 -22.5 -11.5t-37 -7t-35.5 -4t-17 -1.5q-20 -3 -37 -6.5t-29 -10.5t-18.5 -19t-6.5 -31q0 -17 3.5 -30t13.5 -21q19 -18 70 -18h233z
M307 567q0 -22 -15 -37.5t-37 -15.5t-37 15.5t-15 37.5t15 37.5t37 15.5t37 -15.5t15 -37.5zM453 567q0 -22 -15 -37.5t-37 -15.5t-37.5 15.5t-15.5 37.5t15.5 37.5t37.5 15.5t37 -15.5t15 -37.5z" />
    <glyph glyph-name="uni062A" unicode="&#x62a;" horiz-adv-x="993" arabic-form="isolated" 
d="M181 0q-81 0 -126.5 36.5t-47.5 115.5q1 19 1.5 36t5.5 37q3 18 13 28.5t30 13.5q5 1 20.5 1.5t52.5 2.5q9 0 11 -3t-0.5 -7.5t-6.5 -11.5q-6 -11 -10.5 -24t-6.5 -26q-2 -11 -2.5 -27t-0.5 -22q0 -29 16 -38.5t46 -9.5h596q32 0 47 10.5t15 48.5v167q0 26 10 39t36 13
h59v-246q0 -39 -10.5 -65t-30.5 -41t-50 -21.5t-70 -6.5h-597zM458 328q0 -22 -15 -37.5t-37 -15.5t-37 15.5t-15 37.5t15 37.5t37 15.5t37 -15.5t15 -37.5zM604 328q0 -22 -15 -37.5t-37 -15.5t-37.5 15.5t-15.5 37.5t15.5 37.5t37.5 15.5t37 -15.5t15 -37.5z" />
    <glyph glyph-name="uni062B" unicode="&#x62b;" horiz-adv-x="1035" arabic-form="isolated" 
d="M180 0q-81 0 -126.5 36.5t-47.5 115.5q1 19 1.5 36t5.5 37q3 18 13 28.5t30 13.5q5 1 20.5 1.5t52.5 2.5q9 0 11 -3t-0.5 -7.5t-6.5 -11.5q-6 -11 -10.5 -24t-6.5 -26q-2 -11 -2.5 -27t-0.5 -22q0 -29 16 -38.5t46 -9.5h596q32 0 47 10.5t15 48.5v167q0 26 10 39t36 13
h59v-246q0 -39 -10.5 -65t-30.5 -41t-50 -21.5t-70 -6.5h-597zM532 448q0 -21 -15.5 -36.5t-37.5 -15.5q-21 0 -36.5 15.5t-15.5 36.5q0 23 15.5 38t36.5 15q22 0 37.5 -15t15.5 -38zM458 326q0 -22 -15 -37t-37 -15t-37 15t-15 37t15 37.5t37 15.5t37 -15.5t15 -37.5z
M604 326q0 -22 -15 -37t-37 -15t-37.5 15t-15.5 37t15.5 37.5t37.5 15.5t37 -15.5t15 -37.5z" />
    <glyph glyph-name="uni062C" unicode="&#x62c;" horiz-adv-x="907" arabic-form="isolated" 
d="M479.609 -182.399q0 -19.7119 -13.5293 -33.5996t-33.373 -13.8877t-33.8242 13.8877t-13.9805 33.5996q0 18.8154 13.9805 32.7041q13.9805 13.8877 33.8242 13.8877t33.373 -13.8877q13.5293 -13.8887 13.5293 -32.7041zM777 280q11 -11 20 -27q8 -14 14 -34.5t6 -46.5
q0 -6 -0.5 -12t-1.5 -13q-5 -43 -22.5 -68.5t-46.5 -45.5q-24 -17 -56.5 -25t-70.5 -8h-457q-31 0 -40.5 -12.5t-9.5 -27.5q0 -23 9 -47.5t20 -44.5q18 -33 43 -60t51 -45q19 -14 19 -18q0 -3 -7 -3h-116q-5 0 -12 0.5t-15 3.5q-5 2 -9 5.5t-9 8.5q-37 43 -59 92t-22 103
q0 55 29 92q12 15 26 25.5t33 17t45.5 9.5t62.5 3h419q41 0 66 24t25 67q0 40 -26 62.5t-63 22.5h-382q-23 0 -40 -2t-26 -13q-7 -8 -7 -22q0 -10 3 -20q4 -14 9.5 -25.5t5.5 -15.5q-1 -2 -10 -2h-64q-25 0 -37 16q-5 8 -8 24t-3 33q0 68 41 98.5t106 30.5h564q11 0 16 1.5
t7 4t3 4t4 1.5q2 0 4 -4q2 -6 2 -15v-56q0 -20 -9 -27q-5 -5 -12 -6.5t-12 -2.5z" />
    <glyph glyph-name="uni062D" unicode="&#x62d;" horiz-adv-x="912" arabic-form="isolated" 
d="M781 280q11 -11 20 -27q8 -14 14 -34.5t6 -46.5q0 -6 -0.5 -12t-1.5 -13q-5 -43 -22.5 -68.5t-46.5 -45.5q-24 -17 -56.5 -25t-70.5 -8h-457q-31 0 -40.5 -12.5t-9.5 -27.5q0 -23 9 -47.5t20 -44.5q18 -33 43 -60t51 -45q19 -14 19 -18q0 -3 -7 -3h-116q-5 0 -12 0.5
t-15 3.5q-5 2 -9 5.5t-9 8.5q-37 43 -59 92t-22 103q0 55 29 92q12 15 26 25.5t33 17t45.5 9.5t62.5 3h419q41 0 66 24t25 67q0 40 -26 62.5t-63 22.5h-382q-23 0 -40 -2t-26 -13q-7 -8 -7 -22q0 -10 3 -20q4 -14 9.5 -25.5t5.5 -15.5q-1 -2 -10 -2h-64q-25 0 -37 16
q-5 8 -8 24t-3 33q0 68 41 98.5t106 30.5h564q11 0 16 1.5t7 4t3 4t4 1.5q2 0 4 -4q2 -6 2 -15v-56q0 -20 -9 -27q-5 -5 -12 -6.5t-12 -2.5z" />
    <glyph glyph-name="uni062E" unicode="&#x62e;" horiz-adv-x="905" arabic-form="isolated" 
d="M374 565q0 23 15 38t37 15t37.5 -15t15.5 -38q0 -21 -15.5 -36.5t-37.5 -15.5t-37 15.5t-15 36.5zM777 280q11 -11 20 -27q8 -14 14 -34.5t6 -46.5q0 -6 -0.5 -12t-1.5 -13q-5 -43 -22.5 -68.5t-46.5 -45.5q-24 -17 -56.5 -25t-70.5 -8h-457q-31 0 -40.5 -12.5
t-9.5 -27.5q0 -23 9 -47.5t20 -44.5q18 -33 43 -60t51 -45q19 -14 19 -18q0 -3 -7 -3h-116q-5 0 -12 0.5t-15 3.5q-5 2 -9 5.5t-9 8.5q-37 43 -59 92t-22 103q0 55 29 92q12 15 26 25.5t33 17t45.5 9.5t62.5 3h419q41 0 66 24t25 67q0 40 -26 62.5t-63 22.5h-382
q-23 0 -40 -2t-26 -13q-7 -8 -7 -22q0 -10 3 -20q4 -14 9.5 -25.5t5.5 -15.5q-1 -2 -10 -2h-64q-25 0 -37 16q-5 8 -8 24t-3 33q0 68 41 98.5t106 30.5h564q11 0 16 1.5t7 4t3 4t4 1.5q2 0 4 -4q2 -6 2 -15v-56q0 -20 -9 -27q-5 -5 -12 -6.5t-12 -2.5z" />
    <glyph glyph-name="uni062F" unicode="&#x62f;" horiz-adv-x="588" arabic-form="isolated" 
d="M331 380q52 0 89 -17t61 -43q26 -28 37 -61t11 -62q0 -68 -27 -112q-15 -25 -36 -41.5t-44 -26t-46.5 -13.5t-42.5 -4h-245q-17 0 -24 10q-5 8 -5 24v68h273q6 0 16 1t21.5 5t22.5 12t19 22q5 10 8.5 20t3.5 27q0 26 -10.5 42.5t-25.5 27.5q-15 10 -31.5 14t-31.5 4h-68
q-28 0 -57.5 0.5t-49.5 0.5q-15 0 -23 7q-9 7 -9 27v51q0 26 3 28q2 1 8 -3q5 -4 12 -6t31 -2h160v0z" />
    <glyph glyph-name="uni0630" unicode="&#x630;" horiz-adv-x="567" arabic-form="isolated" 
d="M331 380q52 0 89 -17t61 -43q26 -28 37 -61t11 -62q0 -68 -27 -112q-15 -25 -36 -41.5t-44 -26t-46.5 -13.5t-42.5 -4h-245q-17 0 -24 10q-5 8 -5 24v68h273q6 0 16 1t21.5 5t22.5 12t19 22q5 10 8.5 20t3.5 27q0 26 -10.5 42.5t-25.5 27.5q-15 10 -31.5 14t-31.5 4h-68
q-28 0 -57.5 0.5t-49.5 0.5q-15 0 -23 7q-9 7 -9 27v51q0 26 3 28q2 1 8 -3q5 -4 12 -6t31 -2h160v0zM218 568q0 23 15 38t37 15t37.5 -15t15.5 -38q0 -21 -15.5 -36.5t-37.5 -15.5t-37 15.5t-15 36.5z" />
    <glyph glyph-name="uni0631" unicode="&#x631;" horiz-adv-x="451" arabic-form="isolated" 
d="M354 -8q0 -41 -10.5 -77t-28.5 -65.5t-42 -50.5t-51 -31q-29 -11 -65.5 -18.5t-82.5 -7.5q-15 0 -26.5 0.5t-19 4.5t-11.5 12t-4 22v9t-0.5 18t-0.5 18v10t1 9.5t6 7.5q1 0 9 -2q11 -3 29.5 -4.5t38.5 -1.5q73 2 113 42t40 108v5v13.5v31v57t-0.5 91.5t-0.5 135
q0 29 11.5 40.5t34.5 11.5h59z" />
    <glyph glyph-name="uni0632" unicode="&#x632;" horiz-adv-x="451" arabic-form="isolated" 
d="M354 -8q0 -41 -10.5 -77t-28.5 -65.5t-42 -50.5t-51 -31q-29 -11 -65.5 -18.5t-82.5 -7.5q-15 0 -26.5 0.5t-19 4.5t-11.5 12t-4 22v9t-0.5 18t-0.5 18v10t1 9.5t6 7.5q1 0 9 -2q11 -3 29.5 -4.5t38.5 -1.5q73 2 113 42t40 108v5v13.5v31v57t-0.5 91.5t-0.5 135
q0 29 11.5 40.5t34.5 11.5h59zM247 568q0 23 15 38t37 15t37.5 -15t15.5 -38q0 -21 -15.5 -36.5t-37.5 -15.5t-37 15.5t-15 36.5z" />
    <glyph glyph-name="uni0633" unicode="&#x633;" horiz-adv-x="1349" arabic-form="isolated" 
d="M1250 153q0 -39 -12.5 -68.5t-34.5 -49t-52 -29.5t-65 -10q-87 0 -133 40q-22 -23 -50.5 -30t-60.5 -7q-26 0 -54 4.5t-46 21.5q-10 -57 -36.5 -104t-65.5 -83q-52 -47 -121.5 -71.5t-148.5 -24.5q-75 0 -128.5 13t-91.5 33q-37 19 -63.5 49.5t-43.5 66t-25 73.5t-8 73
q0 24 4 45.5t11 39.5q8 20 17.5 28.5t37.5 11.5l28 2l28 2q8 0 8 -5q0 -3 -1 -6l-10 -31q-8 -23 -13 -44.5t-5 -41.5q0 -45 18.5 -83t50.5 -65.5t76.5 -43t95.5 -15.5q137 0 210.5 69t73.5 195v272h108v-227q2 -31 22.5 -43t50.5 -12q27 0 51 12t24 41v229h106v-231
q0 -15 7 -25t18 -16t24.5 -8.5t26.5 -2.5q27 0 47 13t20 43q0 8 -0.5 36.5t-0.5 59.5v78q0 29 8 41t40 12h58v-227z" />
    <glyph glyph-name="uni0634" unicode="&#x634;" horiz-adv-x="1346" arabic-form="isolated" 
d="M1250 153q0 -39 -12.5 -68.5t-34.5 -49t-52 -29.5t-65 -10q-87 0 -133 40q-22 -23 -50.5 -30t-60.5 -7q-26 0 -54 4.5t-46 21.5q-10 -57 -36.5 -104t-65.5 -83q-52 -47 -121.5 -71.5t-148.5 -24.5q-75 0 -128.5 13t-91.5 33q-37 19 -63.5 49.5t-43.5 66t-25 73.5t-8 73
q0 24 4 45.5t11 39.5q8 20 17.5 28.5t37.5 11.5l28 2l28 2q8 0 8 -5q0 -3 -1 -6l-10 -31q-8 -23 -13 -44.5t-5 -41.5q0 -45 18.5 -83t50.5 -65.5t76.5 -43t95.5 -15.5q137 0 210.5 69t73.5 195v272h108v-227q2 -31 22.5 -43t50.5 -12q27 0 51 12t24 41v229h106v-231
q0 -15 7 -25t18 -16t24.5 -8.5t26.5 -2.5q27 0 47 13t20 43q0 8 -0.5 36.5t-0.5 59.5v78q0 29 8 41t40 12h58v-227zM1002 690q0 -21 -15.5 -36.5t-37.5 -15.5q-21 0 -36.5 15.5t-15.5 36.5q0 23 15.5 38t36.5 15q22 0 37.5 -15t15.5 -38zM928 568q0 -22 -15 -37t-37 -15
t-37 15t-15 37t15 37.5t37 15.5t37 -15.5t15 -37.5zM1074 568q0 -22 -15 -37t-37 -15t-37.5 15t-15.5 37t15.5 37.5t37.5 15.5t37 -15.5t15 -37.5z" />
    <glyph glyph-name="uni0635" unicode="&#x635;" horiz-adv-x="1814" arabic-form="isolated" 
d="M1478 102q30 0 56 5t45 17t29.5 32t10.5 50q0 27 -9 46.5t-25 32t-36.5 18.5t-44.5 6q-29 0 -58.5 -8.5t-53.5 -19.5l-355 -159q-8 -3 -11 -3t-5 1q-4 1 -4 11v93q100 44 175.5 78.5t133 58t102 36t82.5 12.5q46 -2 85.5 -16t68.5 -39.5t45 -62t16 -82.5q0 -107 -66 -164
q-29 -26 -69 -35.5t-88 -9.5h-697q-25 0 -41 4.5t-27 20.5q-10 -57 -36.5 -104t-65.5 -83q-52 -47 -121.5 -71.5t-148.5 -24.5q-75 0 -128.5 13t-91.5 33q-37 19 -63.5 49.5t-43.5 66t-25 73.5t-8 73q0 48 14 85q8 20 17.5 28.5t37.5 11.5l28 2l28 2q5 0 7 -2q1 -1 1 -5
q0 -3 -3.5 -13.5t-7.5 -21.5q-8 -23 -12.5 -44.5t-4.5 -41.5q0 -45 18.5 -83t50.5 -65.5t76.5 -43t95.5 -15.5q137 0 210.5 69t73.5 195v218q0 24 11 39t39 15h58v-260q0 -14 13 -16t31 -2h691z" />
    <glyph glyph-name="uni0636" unicode="&#x636;" horiz-adv-x="1814" arabic-form="isolated" 
d="M1478 102q30 0 56 5t45 17t29.5 32t10.5 50q0 27 -9 46.5t-25 32t-36.5 18.5t-44.5 6q-29 0 -58.5 -8.5t-53.5 -19.5l-355 -159q-8 -3 -11 -3t-5 1q-4 1 -4 11v93q100 44 175.5 78.5t133 58t102 36t82.5 12.5q46 -2 85.5 -16t68.5 -39.5t45 -62t16 -82.5q0 -107 -66 -164
q-29 -26 -69 -35.5t-88 -9.5h-697q-25 0 -41 4.5t-27 20.5q-10 -57 -36.5 -104t-65.5 -83q-52 -47 -121.5 -71.5t-148.5 -24.5q-75 0 -128.5 13t-91.5 33q-37 19 -63.5 49.5t-43.5 66t-25 73.5t-8 73q0 48 14 85q8 20 17.5 28.5t37.5 11.5l28 2l28 2q5 0 7 -2q1 -1 1 -5
q0 -3 -3.5 -13.5t-7.5 -21.5q-8 -23 -12.5 -44.5t-4.5 -41.5q0 -45 18.5 -83t50.5 -65.5t76.5 -43t95.5 -15.5q137 0 210.5 69t73.5 195v218q0 24 11 39t39 15h58v-260q0 -14 13 -16t31 -2h691zM1436 568q0 23 15 38t37 15t37.5 -15t15.5 -38q0 -21 -15.5 -36.5t-37.5 -15.5
t-37 15.5t-15 36.5z" />
    <glyph glyph-name="uni0637" unicode="&#x637;" horiz-adv-x="1023" arabic-form="isolated" 
d="M872 357q29 -26 47 -63.5t18 -84.5q0 -52 -19 -91t-51.5 -65.5t-74.5 -39.5t-88 -13h-651q-11 0 -20 6t-9 17v81q0 6 3 8q4 0 7 -3q5 -5 10 -6t19 -1h626q32 1 58 6.5t45 17.5t29 31t10 49q0 46 -32.5 71.5t-89.5 29.5q-32 0 -61 -7.5t-54 -16.5q-9 -3 -18 -7t-23.5 -10
t-36.5 -16.5t-57.5 -27.5t-87 -41.5t-124.5 -59.5q-6 -3 -10 -3q-10 0 -10 12v409q0 15 2 24.5t7 14t15 6t26 1.5h56v-312l168 77q18 7 40.5 17t49.5 19.5t57.5 16t63.5 6.5q54 0 93 -13.5t67 -38.5z" />
    <glyph glyph-name="uni0638" unicode="&#x638;" horiz-adv-x="1023" arabic-form="isolated" 
d="M872 357q29 -26 47 -63.5t18 -84.5q0 -52 -19 -91t-51.5 -65.5t-74.5 -39.5t-88 -13h-651q-11 0 -20 6t-9 17v81q0 6 3 8q4 0 7 -3q5 -5 10 -6t19 -1h626q32 1 58 6.5t45 17.5t29 31t10 49q0 46 -32.5 71.5t-89.5 29.5q-32 0 -61 -7.5t-54 -16.5q-9 -3 -18 -7t-23.5 -10
t-36.5 -16.5t-57.5 -27.5t-87 -41.5t-124.5 -59.5q-6 -3 -10 -3q-10 0 -10 12v409q0 15 2 24.5t7 14t15 6t26 1.5h56v-312l168 77q18 7 40.5 17t49.5 19.5t57.5 16t63.5 6.5q54 0 93 -13.5t67 -38.5zM632 568q0 23 15 38t37 15t37.5 -15t15.5 -38q0 -21 -15.5 -36.5
t-37.5 -15.5t-37 15.5t-15 36.5z" />
    <glyph glyph-name="uni0639" unicode="&#x639;" horiz-adv-x="586" arabic-form="isolated" 
d="M80 -241q-41 48 -58 96t-17 92q0 52 22.5 90t57.5 50q-18 11 -29.5 28t-17.5 35.5t-8 35.5t-2 28q0 52 16.5 89t46.5 60.5t73 34.5t97 11q48 0 88.5 -12.5t70 -35.5t46.5 -55t18 -71q-1 -20 -8.5 -26t-28.5 -6h-65q-4 0 -11.5 0.5t-7.5 4.5q0 3 1 5q6 13 6 24
q0 35 -26 51t-82 19q-65 -2 -97 -25t-32 -77q0 -31 11.5 -51t31.5 -31.5t46.5 -16t57.5 -4.5h182v-102h-279q-17 0 -30.5 -1.5t-23 -7.5t-14.5 -17.5t-5 -31.5q0 -52 34.5 -100t88.5 -77q8 -5 10.5 -8t2.5 -6q0 -5 -4.5 -7t-16.5 -2h-100q2 0 -3 0.5t-13 2t-16.5 5
t-12.5 9.5z" />
    <glyph glyph-name="uni063A" unicode="&#x63a;" horiz-adv-x="586" arabic-form="isolated" 
d="M80 -241q-41 48 -58 96t-17 92q0 52 22.5 90t57.5 50q-18 11 -29.5 28t-17.5 35.5t-8 35.5t-2 28q0 52 16.5 89t46.5 60.5t73 34.5t97 11q48 0 88.5 -12.5t70 -35.5t46.5 -55t18 -71q-1 -20 -8.5 -26t-28.5 -6h-65q-4 0 -11.5 0.5t-7.5 4.5q0 3 1 5q6 13 6 24
q0 35 -26 51t-82 19q-65 -2 -97 -25t-32 -77q0 -31 11.5 -51t31.5 -31.5t46.5 -16t57.5 -4.5h182v-102h-279q-17 0 -30.5 -1.5t-23 -7.5t-14.5 -17.5t-5 -31.5q0 -52 34.5 -100t88.5 -77q8 -5 10.5 -8t2.5 -6q0 -5 -4.5 -7t-16.5 -2h-100q2 0 -3 0.5t-13 2t-16.5 5
t-12.5 9.5zM206 568q0 23 15 38t37 15t37.5 -15t15.5 -38q0 -21 -15.5 -36.5t-37.5 -15.5t-37 15.5t-15 36.5z" />
    <glyph glyph-name="uni0641" unicode="&#x641;" horiz-adv-x="1040" arabic-form="isolated" 
d="M113 150q0 -29 16 -38.5t46 -9.5h396q-17 18 -24.5 46t-7.5 56q0 44 14.5 81.5t41.5 65t65.5 43t86.5 15.5q45 0 82.5 -15.5t65.5 -42.5t43.5 -64.5t15.5 -82.5t-14 -82.5t-41 -64.5t-65.5 -42t-86.5 -15h-567q-81 0 -126.5 36.5t-47.5 115.5q1 19 1.5 36t5.5 37
q3 18 13 28.5t30 13.5q5 1 20.5 1.5t52.5 2.5q9 0 11 -3t-0.5 -7.5t-6.5 -11.5q-6 -11 -10.5 -24t-6.5 -26q-2 -11 -2.5 -27t-0.5 -22zM745 102q56 2 79.5 27.5t23.5 74.5q0 44 -28.5 73.5t-74.5 29.5q-47 0 -73.5 -29.5t-26.5 -73.5q0 -20 6 -38.5t18 -32.5t31 -22.5
t45 -8.5zM693 568q0 23 15 38t37 15t37.5 -15t15.5 -38q0 -21 -15.5 -36.5t-37.5 -15.5t-37 15.5t-15 36.5z" />
    <glyph glyph-name="uni0642" unicode="&#x642;" horiz-adv-x="842" arabic-form="isolated" 
d="M543 409q54 0 94 -18t66 -51t39 -80t13 -104q0 -17 -1 -38.5t-3 -45.5t-6.5 -48.5t-11.5 -46.5q-14 -55 -51.5 -99t-88.5 -75q-49 -29 -105 -45t-112 -16q-75 0 -128.5 11.5t-91 30t-62 42t-39.5 47.5q-26 41 -36.5 85t-10.5 84q0 29 4 52.5t10 40.5q8 19 15.5 28
t32.5 11l64 5q8 0 8 -5t-4 -13t-9 -24q-9 -24 -13 -46.5t-4 -44.5q0 -40 14 -74t42 -60q19 -18 43 -31t48 -20.5t47 -11t42 -3.5q50 0 89.5 10t70.5 27q31 16 53 36t37 39t23 35.5t10 25.5q-20 -14 -45 -20.5t-51 -6.5q-69 0 -112.5 16t-67.5 44q-23 27 -31.5 63.5
t-8.5 82.5q0 47 17.5 86t48.5 66.5t72.5 43t89.5 15.5zM642 109q1 8 3 18q1 8 2 19.5t1 25.5v12.5t-1 13.5q-2 21 -9.5 40.5t-20.5 34.5t-31.5 24t-41.5 9q-58 0 -86 -29t-28 -79q0 -32 4 -51.5t16.5 -31t35 -15.5t58.5 -4q38 0 58.5 2t29.5 4q11 3 10 7zM516 569
q0 -22 -15 -37.5t-37 -15.5t-37 15.5t-15 37.5t15 37.5t37 15.5t37 -15.5t15 -37.5zM662 569q0 -22 -15 -37.5t-37 -15.5t-37.5 15.5t-15.5 37.5t15.5 37.5t37.5 15.5t37 -15.5t15 -37.5z" />
    <glyph glyph-name="uni0643" unicode="&#x643;" horiz-adv-x="1028" arabic-form="isolated" 
d="M430 292q-14 7 -23.5 20t-9.5 35q1 19 10 30.5t19.5 17.5t20.5 7.5t15 1.5h66q10 0 14 4q2 2 2 4q8 -8 13 -12.5t7 -6.5l3 -3q0 -4 -4.5 -6t-9.5 -3q-6 -1 -13 -1h-75q-26 -2 -33.5 -12.5t-7.5 -23.5t7 -22.5t18.5 -16t25 -10t26.5 -3.5h69v-22h-204v22h64zM180 0
q-81 0 -126.5 36.5t-47.5 115.5q1 19 1.5 36t5.5 37q3 18 13 28.5t30 13.5q5 1 20.5 1.5t52.5 2.5q3 0 6 -0.5t5 -2.5t-0.5 -7t-6.5 -12q-6 -11 -10.5 -24t-6.5 -26q-2 -11 -2.5 -27t-0.5 -22q0 -29 16 -38.5t46 -9.5h596q32 0 47 10.5t15 48.5v372q0 26 10 39t36 13h59
v-451q0 -39 -10.5 -65t-30.5 -41t-50 -21.5t-70 -6.5h-597z" />
    <glyph glyph-name="uni0644" unicode="&#x644;" horiz-adv-x="842" arabic-form="isolated" 
d="M742 120q0 -83 -25.5 -156t-82.5 -126q-52 -47 -121.5 -71.5t-148.5 -24.5q-75 0 -128.5 13t-91.5 33q-37 19 -63.5 49.5t-43.5 66t-25 73.5t-8 73q0 48 14 85q8 20 17.5 28.5t37.5 11.5q4 1 9 1h9.5t10.5 1l28 2q5 0 7 -2q1 -1 1 -5q0 -3 -4 -13.5t-8 -21.5
q-8 -23 -12.5 -44.5t-4.5 -41.5q0 -45 18.5 -83t50.5 -65.5t76.5 -43t95.5 -15.5q137 0 210.5 69t73.5 195v423q0 24 11 39t39 15h58v-465v0z" />
    <glyph glyph-name="uni0645" unicode="&#x645;" horiz-adv-x="786" arabic-form="isolated" 
d="M613 315q10 -6 23 -17t25 -27.5t20 -39t8 -49.5q0 -48 -18 -82.5t-47.5 -57t-68 -33.5t-79.5 -11q-51 0 -85 11.5t-63 40.5q-5 -12 -16 -21.5t-24 -15.5t-26.5 -9.5t-24.5 -3.5h-72q-11 0 -15.5 -4.5t-4.5 -20.5v-233h-108v238q0 64 38.5 93t101.5 29h25q29 0 48 9t19 34
q0 8 -2 17t-2 20q0 23 8.5 45t21.5 41t29.5 34t31.5 25l37 24l-20 15q-5 3 -5 8q1 6 14 6h104q12 0 20.5 -1.5t15.5 -3.5q2 -1 6 -3.5t14 -9t26.5 -18t44.5 -29.5zM471 100q22 0 43 3.5t36.5 12t25 21.5t9.5 32q0 36 -33 62q-1 1 -11.5 8t-23.5 16.5l-26 19t-19 14.5
q-4 -5 -15 -13.5t-23.5 -17.5t-23 -17t-14.5 -11q-8 -6 -16 -20.5t-10 -37.5q0 -39 26.5 -55.5t74.5 -16.5z" />
    <glyph glyph-name="uni0646" unicode="&#x646;" horiz-adv-x="827" arabic-form="isolated" 
d="M742 120v-16.5t-0.5 -32t-2 -31.5t-3.5 -15q-10 -57 -36.5 -104t-65.5 -83q-52 -47 -121.5 -71.5t-148.5 -24.5q-75 0 -128.5 13t-91.5 33q-37 19 -63.5 49.5t-43.5 66t-25 73.5t-8 73q0 24 4 45.5t11 39.5q8 20 17.5 28.5t37.5 11.5l28 2l28 2q5 0 7 -2q1 -1 1 -5
q0 -3 -3.5 -13.5t-7.5 -21.5q-8 -23 -13 -44.5t-5 -41.5q0 -45 18.5 -83t50.5 -65.5t76.5 -43t95.5 -15.5q137 0 210.5 69t73.5 195v218q0 24 11 39t39 15h58v-260v0zM312 131q0 23 15 38t37 15t37.5 -15t15.5 -38q0 -21 -15.5 -36.5t-37.5 -15.5t-37 15.5t-15 36.5z" />
    <glyph glyph-name="uni0648" unicode="&#x648;" horiz-adv-x="572" arabic-form="isolated" 
d="M357 -68q4 11 6.5 24t4 25t2 22t0.5 16q-17 -20 -41 -23.5t-50 -3.5q-115 0 -166.5 47.5t-51.5 146.5q1 109 62 166t166 57q45 0 81 -17t61.5 -47t39.5 -72t14 -91v-26t-1 -48t-2.5 -60.5t-4.5 -63.5q-14 -128 -85.5 -184t-205.5 -58q-16 0 -26.5 1t-16.5 4.5t-8.5 11.5
t-2.5 23v9t-0.5 18.5t-0.5 21v15.5q0 4 3 6h1l2 1q1 0 7 -2q5 -2 14 -3t19.5 -2t20.5 -1.5t17 -0.5q57 0 90 18t52 70zM377 103q0 6 1 15q1 8 1.5 17.5t0.5 21.5q0 10 -0.5 20t-1.5 21q-2 21 -8.5 40.5t-18.5 34.5t-29.5 24t-39.5 9q-58 0 -86 -29t-28 -79q0 -30 3.5 -50
t15 -31.5t32.5 -16t56 -4.5q38 0 58 0.5t30 2.5q11 2 14 4z" />
    <glyph glyph-name="uni0649" unicode="&#x649;" horiz-adv-x="800" arabic-form="isolated" 
d="M681 102q21 0 32.5 -2t16.5 -10q5 -7 6 -20t1 -36q0 -54 -12.5 -95.5t-35.5 -73t-54.5 -53.5t-70.5 -37q-48 -18 -105 -25.5t-118 -7.5q-64 0 -124 16.5t-106.5 51t-75 87.5t-28.5 126q0 15 1.5 31.5t3.5 32t4 29t4 21.5q2 10 5 17.5t9 13.5q11 11 29 12q7 1 23 2t51 3
q1 0 4 -0.5t3 -2.5t-2 -7t-4 -13q-11 -35 -15.5 -64.5t-4.5 -55.5q0 -100 58 -149t167 -49q45 0 94 6t90 21.5t67.5 43t26.5 71.5q0 5 -2 9.5t-7 4.5h-142q-33 0 -62.5 6.5t-52 20.5t-35.5 36t-13 53q0 14 3 26q7 31 30 63t55.5 61.5t71.5 55.5t78 45.5t74 31t61 12.5
q18 0 31.5 -5.5t14.5 -23.5v-89q0 -14 -3 -14q-4 0 -7 3t-8 6t-13 6t-21 3q-23 0 -56 -14t-67.5 -35.5t-65.5 -47t-48 -47.5q-13 -17 -13 -31q0 -20 25 -20h232v0z" />
    <glyph glyph-name="uni064A" unicode="&#x64a;" horiz-adv-x="818" arabic-form="isolated" 
d="M681 102q21 0 32.5 -2t16.5 -10q5 -7 6 -20t1 -36q0 -54 -12.5 -95.5t-35.5 -73t-54.5 -53.5t-70.5 -37q-48 -18 -105 -25.5t-118 -7.5q-64 0 -124 16.5t-106.5 51t-75 87.5t-28.5 126q0 15 1.5 31.5t3.5 32t4 29t4 21.5q2 10 5 17.5t9 13.5q11 11 29 12q7 1 23 2t51 3
q1 0 4 -0.5t3 -2.5t-2 -7t-4 -13q-11 -35 -15.5 -64.5t-4.5 -55.5q0 -100 58 -149t167 -49q45 0 94 6t90 21.5t67.5 43t26.5 71.5q0 5 -2 9.5t-7 4.5h-142q-33 0 -62.5 6.5t-52 20.5t-35.5 36t-13 53q0 14 3 26q7 31 30 63t55.5 61.5t71.5 55.5t78 45.5t74 31t61 12.5
q18 0 31.5 -5.5t14.5 -23.5v-89q0 -14 -3 -14q-4 0 -7 3t-8 6t-13 6t-21 3q-23 0 -56 -14t-67.5 -35.5t-65.5 -47t-48 -47.5q-13 -17 -13 -31q0 -20 25 -20h232v0zM338 -370q0 -22 -15 -37.5t-37 -15.5t-37 15.5t-15 37.5t15 37.5t37 15.5t37 -15.5t15 -37.5zM484 -370
q0 -22 -15 -37.5t-37 -15.5t-37 15.5t-15 37.5t15 37.5t37 15.5t37 -15.5t15 -37.5z" />
    <glyph glyph-name="uni0671" unicode="&#x671;" horiz-adv-x="295" arabic-form="isolated" 
d="M98 0v539q0 15 2 24.5t7 14t15 6t26 1.5h55v-585h-105zM45 698q0 3 2 1t6 -2h21v101q0 14 12 14h15v-74l52 30q8 5 21 10t27 5q25 0 41 -15t16 -39q0 -27 -16 -42.5t-37 -15.5h-147q-9 0 -11 2.5t-2 8.5v16zM196 697q17 0 25.5 8.5t8.5 22.5q0 11 -9 19.5t-22 8.5
q-8 0 -19.5 -5.5t-18.5 -9.5l-74 -44h109z" />
    <glyph glyph-name="uni0679" unicode="&#x679;" horiz-adv-x="1035" arabic-form="isolated" 
d="M180 0q-81 0 -126.5 36.5t-47.5 115.5q1 19 1.5 36t5.5 37q3 18 13 28.5t30 13.5q5 1 20.5 1.5t52.5 2.5q9 0 11 -3t-0.5 -7.5t-6.5 -11.5q-6 -11 -10.5 -24t-6.5 -26q-2 -11 -2.5 -27t-0.5 -22q0 -29 16 -38.5t46 -9.5h596q32 0 47 10.5t15 48.5v167q0 26 10 39t36 13
h59v-246q0 -39 -10.5 -65t-30.5 -41t-50 -21.5t-70 -6.5h-597zM373 297q0 3 2 1t6 -2h21v101q0 14 12 14h15v-74l52 30q8 5 21 10t27 5q25 0 41 -15t16 -39q0 -27 -16 -42.5t-37 -15.5h-147q-9 0 -11 2.5t-2 8.5v16zM524 296q17 0 25.5 8.5t8.5 22.5q0 11 -9 19.5t-22 8.5
q-8 0 -19.5 -5.5t-18.5 -9.5l-74 -44h109z" />
    <glyph glyph-name="uni067E" unicode="&#x67e;" horiz-adv-x="1035" arabic-form="isolated" 
d="M180 0q-81 0 -126.5 36.5t-47.5 115.5q1 19 1.5 36t5.5 37q3 18 13 28.5t30 13.5q5 1 20.5 1.5t52.5 2.5q9 0 11 -3t-0.5 -7.5t-6.5 -11.5q-6 -11 -10.5 -24t-6.5 -26q-2 -11 -2.5 -27t-0.5 -22q0 -29 16 -38.5t46 -9.5h596q32 0 47 10.5t15 48.5v167q0 26 10 39t36 13
h59v-246q0 -39 -10.5 -65t-30.5 -41t-50 -21.5t-70 -6.5h-597zM426 -306q0 22 15.5 37.5t36.5 15.5q22 0 37.5 -15.5t15.5 -37.5t-15.5 -37t-37.5 -15q-21 0 -36.5 15t-15.5 37zM499 -184q0 23 15 38t37 15t37 -15t15 -38q0 -21 -15 -36.5t-37 -15.5t-37 15.5t-15 36.5z
M353 -184q0 23 15 38t37 15t37.5 -15t15.5 -38q0 -21 -15.5 -36.5t-37.5 -15.5t-37 15.5t-15 36.5z" />
    <glyph glyph-name="uni0686" unicode="&#x686;" horiz-adv-x="907" arabic-form="isolated" 
d="M382.648 -294.855q0 19.7129 13.9805 33.6006t32.9219 13.8877q19.8438 0 33.8242 -13.8877t13.9805 -33.6006q0 -19.7109 -13.9805 -33.1514t-33.8242 -13.4404q-18.9414 0 -32.9219 13.4404t-13.9805 33.1514zM448.492 -185.543q0 20.6074 13.5303 34.0469
q13.5293 13.4404 33.373 13.4404t33.373 -13.4404q13.5303 -13.4395 13.5303 -34.0469q0 -18.8164 -13.5303 -32.7041q-13.5293 -13.8877 -33.373 -13.8877t-33.373 13.8877q-13.5303 13.8877 -13.5303 32.7041zM316.804 -185.543q0 20.6074 13.5303 34.0469
q13.5293 13.4404 33.373 13.4404t33.8242 -13.4404q13.9805 -13.4395 13.9805 -34.0469q0 -18.8164 -13.9805 -32.7041t-33.8242 -13.8877t-33.373 13.8877q-13.5303 13.8877 -13.5303 32.7041zM778 280q11 -11 20 -27q8 -14 14 -34.5t6 -46.5q0 -6 -0.5 -12t-1.5 -13
q-5 -43 -22.5 -68.5t-46.5 -45.5q-24 -17 -56.5 -25t-70.5 -8h-457q-31 0 -40.5 -12.5t-9.5 -27.5q0 -23 9 -47.5t20 -44.5q18 -33 43 -60t51 -45q19 -14 19 -18q0 -3 -7 -3h-116q-5 0 -12 0.5t-15 3.5q-5 2 -9 5.5t-9 8.5q-37 43 -59 92t-22 103q0 55 29 92q12 15 26 25.5
t33 17t45.5 9.5t62.5 3h419q41 0 66 24t25 67q0 40 -26 62.5t-63 22.5h-382q-23 0 -40 -2t-26 -13q-7 -8 -7 -22q0 -10 3 -20q4 -14 9.5 -25.5t5.5 -15.5q-1 -2 -10 -2h-64q-25 0 -37 16q-5 8 -8 24t-3 33q0 68 41 98.5t106 30.5h564q11 0 16 1.5t7 4t3 4t4 1.5q2 0 4 -4
q2 -6 2 -15v-56q0 -20 -9 -27q-5 -5 -12 -6.5t-12 -2.5z" />
    <glyph glyph-name="uni0688" unicode="&#x688;" horiz-adv-x="563" arabic-form="isolated" 
d="M331 380q52 0 89 -17t61 -43q26 -28 37 -61t11 -62q0 -68 -27 -112q-15 -25 -36 -41.5t-44 -26t-46.5 -13.5t-42.5 -4h-245q-17 0 -24 10q-5 8 -5 24v68h273q6 0 16 1t21.5 5t22.5 12t19 22q5 10 8.5 20t3.5 27q0 26 -10.5 42.5t-25.5 27.5q-15 10 -31.5 14t-31.5 4h-68
q-28 0 -57.5 0.5t-49.5 0.5q-15 0 -23 7q-9 7 -9 27v51q0 26 3 28q2 1 8 -3q5 -4 12 -6t31 -2h160v0zM207 546q0 3 2 1t6 -2h21v101q0 14 12 14h15v-74l52 30q8 5 21 10t27 5q25 0 41 -15t16 -39q0 -27 -16 -42.5t-37 -15.5h-147q-9 0 -11 2.5t-2 8.5v16zM358 545
q17 0 25.5 8.5t8.5 22.5q0 11 -9 19.5t-22 8.5q-8 0 -19.5 -5.5t-18.5 -9.5l-74 -44h109z" />
    <glyph glyph-name="uni0691" unicode="&#x691;" horiz-adv-x="451" arabic-form="isolated" 
d="M354 -8q0 -41 -10.5 -77t-28.5 -65.5t-42 -50.5t-51 -31q-29 -11 -65.5 -18.5t-82.5 -7.5q-15 0 -26.5 0.5t-19 4.5t-11.5 12t-4 22v9t-0.5 18t-0.5 18v10t1 9.5t6 7.5q1 0 9 -2q11 -3 29.5 -4.5t38.5 -1.5q73 2 113 42t40 108v5v13.5v31v57t-0.5 91.5t-0.5 135
q0 29 11.5 40.5t34.5 11.5h59zM197 547q0 3 2 1t6 -2h21v101q0 14 12 14h15v-74l52 30q8 5 21 10t27 5q25 0 41 -15t16 -39q0 -27 -16 -42.5t-37 -15.5h-147q-9 0 -11 2.5t-2 8.5v16zM348 546q17 0 25.5 8.5t8.5 22.5q0 11 -9 19.5t-22 8.5q-8 0 -19.5 -5.5t-18.5 -9.5
l-74 -44h109z" />
    <glyph glyph-name="uni0698" unicode="&#x698;" horiz-adv-x="449" arabic-form="isolated" 
d="M354 -8q0 -41 -10.5 -77t-28.5 -65.5t-42 -50.5t-51 -31q-29 -11 -65.5 -18.5t-82.5 -7.5q-15 0 -26.5 0.5t-19 4.5t-11.5 12t-4 22v9t-0.5 18t-0.5 18v10t1 9.5t6 7.5q1 0 9 -2q11 -3 29.5 -4.5t38.5 -1.5q73 2 113 42t40 108v5v13.5v31v57t-0.5 91.5t-0.5 135
q0 29 11.5 40.5t34.5 11.5h59zM355 690q0 -21 -15.5 -36.5t-37.5 -15.5q-21 0 -36.5 15.5t-15.5 36.5q0 23 15.5 38t36.5 15q22 0 37.5 -15t15.5 -38zM281 568q0 -22 -15 -37t-37 -15t-37 15t-15 37t15 37.5t37 15.5t37 -15.5t15 -37.5zM427 568q0 -22 -15 -37t-37 -15
t-37.5 15t-15.5 37t15.5 37.5t37.5 15.5t37 -15.5t15 -37.5z" />
    <glyph glyph-name="uni06A4" unicode="&#x6a4;" horiz-adv-x="1037" arabic-form="isolated" 
d="M113 150q0 -29 16 -38.5t46 -9.5h396q-17 18 -24.5 46t-7.5 56q0 44 14.5 81.5t41.5 65t65.5 43t86.5 15.5q45 0 82.5 -15.5t65.5 -42.5t43.5 -64.5t15.5 -82.5t-14 -82.5t-41 -64.5t-65.5 -42t-86.5 -15h-567q-81 0 -126.5 36.5t-47.5 115.5q1 19 1.5 36t5.5 37
q3 18 13 28.5t30 13.5q5 1 20.5 1.5t52.5 2.5q9 0 11 -3t-0.5 -7.5t-6.5 -11.5q-6 -11 -10.5 -24t-6.5 -26q-2 -11 -2.5 -27t-0.5 -22zM745 102q56 2 79.5 27.5t23.5 74.5q0 44 -28.5 73.5t-74.5 29.5q-47 0 -73.5 -29.5t-26.5 -73.5q0 -20 6 -38.5t18 -32.5t31 -22.5
t45 -8.5zM803 690q0 -21 -15.5 -36.5t-37.5 -15.5q-21 0 -36.5 15.5t-15.5 36.5q0 23 15.5 38t36.5 15q22 0 37.5 -15t15.5 -38zM729 568q0 -22 -15 -37t-37 -15t-37 15t-15 37t15 37.5t37 15.5t37 -15.5t15 -37.5zM875 568q0 -22 -15 -37t-37 -15t-37.5 15t-15.5 37
t15.5 37.5t37.5 15.5t37 -15.5t15 -37.5z" />
    <glyph glyph-name="uni06A9" unicode="&#x6a9;" horiz-adv-x="1028" arabic-form="isolated" 
d="M916 186q25 -22 36.5 -45t11.5 -44q0 -41 -36 -69t-98 -28h-641q-81 0 -127.5 36t-46.5 116q0 19 1 36t6 37q3 18 13 28.5t30 13.5q5 1 20.5 1.5t52.5 2.5q2 0 7 -0.5t5 -4.5q0 -3 -2.5 -7.5t-5.5 -9.5q-6 -11 -10.5 -24t-6.5 -26q-2 -11 -2.5 -26.5t-0.5 -20.5
q0 -32 16 -41t46 -9h637q16 1 16 13q0 5 -6 13l-259 239q78 53 144 97q28 19 55.5 37.5t51.5 34t41 27t24 16.5q8 5 15.5 8.5t15.5 3.5q17 0 23.5 -12t6.5 -31v-52q0 -6 -1 -8q-2 -3 -4 -1q-3 3 -6 3q-4 0 -9 -4l-199 -133z" />
    <glyph glyph-name="uni06AF" unicode="&#x6af;" horiz-adv-x="1014" arabic-form="isolated" 
d="M660 319l-71 86l283 196q7 5 15 9t16 4q12 0 21 -7.5t9 -23.5v-82q0 -6 -4 -6q-3 0 -5 2q-3 3 -8 3q-6 0 -13 -5zM913 163q12 -12 17.5 -28t5.5 -33q0 -19 -7 -37t-21.5 -32.5t-36.5 -23.5t-51 -9h-641q-82 0 -128 36t-46 116q0 19 1 36t6 37q2 8 5 16.5t10 14.5
q10 8 28 11q5 1 20.5 1.5t52.5 2.5q3 0 6.5 -0.5t4.5 -4.5q0 -2 -2.5 -7t-4.5 -10t-8.5 -21t-8.5 -29q-1 -5 -1.5 -12.5t-0.5 -13.5q-1 -8 -1 -15q0 -32 11 -43q8 -8 21 -10.5t30 -2.5h628q16 1 16 13q0 5 -6 13l-125 148q42 31 79 57q32 23 62 44.5t44 31.5
q17 12 26.5 15.5t17.5 3.5q17 0 17 -34v-78q0 -4 -0.5 -6t-0.5 -3v-1q0 -1 -1 -1h-3q-2 1 -4 3t-4 2q-3 0 -9 -4l-75 -50z" />
    <glyph glyph-name="uni06BA" unicode="&#x6ba;" horiz-adv-x="842" arabic-form="isolated" 
d="M742 120v-16.5t-0.5 -32t-2 -31.5t-3.5 -15q-10 -57 -36.5 -104t-65.5 -83q-52 -47 -121.5 -71.5t-148.5 -24.5q-75 0 -128.5 13t-91.5 33q-37 19 -63.5 49.5t-43.5 66t-25 73.5t-8 73q0 24 4 45.5t11 39.5q8 20 17.5 28.5t37.5 11.5l28 2l28 2q5 0 7 -2q1 -1 1 -5
q0 -3 -3.5 -13.5t-7.5 -21.5q-8 -23 -13 -44.5t-5 -41.5q0 -45 18.5 -83t50.5 -65.5t76.5 -43t95.5 -15.5q137 0 210.5 69t73.5 195v218q0 24 11 39t39 15h58v-260v0z" />
    <glyph glyph-name="uni06BE" unicode="&#x6be;" horiz-adv-x="886" arabic-form="isolated" 
d="M628 339q82 -7 128 -46.5t48 -130.5q-4 -85 -54.5 -126t-144.5 -41q-38 0 -67.5 11.5t-53.5 33.5q-23 -22 -53 -31t-67 -9h-238q-11 -1 -14 -7t-3 -11l8 -37h-90q-11 0 -13.5 5.5t-3.5 9.5q-1 5 -3 20t-2 32q0 11 1.5 21t4.5 18q9 23 28 37t55 14h91q-11 11 -16 32t-5 44
q0 40 13.5 69t37 48.5t56 30t70.5 13.5q36 4 53 4.5t27 9.5q5 5 6.5 10t1.5 9v8h110v-8q0 -4 1.5 -9t7.5 -10q10 -9 27 -9t53 -5zM611 99q48 2 67.5 17.5t19.5 55.5q0 39 -27 55q-23 12 -64 12q-2 0 -18 1t-36.5 4.5t-40 10t-28.5 18.5q-9 -12 -29 -19t-40 -10t-36 -4
t-17 -1q-39 0 -65 -14t-26 -53q0 -41 19.5 -57t67.5 -16q34 0 53 11t19 44v12.5t-1 11.5h111q-1 -5 -1 -11v-13q0 -29 17 -42t55 -13z" />
    <glyph glyph-name="uni06C1" unicode="&#x6c1;" horiz-adv-x="735" arabic-form="isolated" 
d="M467 338q41 -6 72.5 -17.5t52.5 -32t32 -51.5t11 -75q0 -86 -53 -124t-146 -38h-221q-92 0 -145.5 38.5t-53.5 123.5q0 45 11 76t32.5 51.5t52.5 31.5t72 17q36 5 53 5.5t27 8.5q5 5 7 10.5t2 10.5q0 2 -0.5 3t-0.5 2v2h107q-1 -1 -1 -2v-6q0 -5 1.5 -10t7.5 -10
q10 -8 27 -8.5t53 -5.5zM442 102q45 0 66 14t21 55q0 20 -7.5 32t-20 19t-29 10t-34.5 6q-2 0 -17.5 1.5t-35 4t-37 7t-23.5 11.5q-5 -7 -22.5 -11.5t-37 -7t-35.5 -4t-17 -1.5q-20 -3 -37 -6.5t-29 -10.5t-18.5 -19t-6.5 -31q0 -42 21.5 -55.5t65.5 -13.5h3h230z" />
    <glyph glyph-name="uni06C2.zz05" unicode="&#x6c2;" horiz-adv-x="691" 
d="M275 587q-11 8 -17 22.5t-6 27.5q2 38 33 55q11 5 20 6t14 2h67q9 0 13 4q1 1 1 1.5t1 1.5q0 1 1 1l27 -24q-3 -7 -7 -9q-5 -4 -12 -4.5t-13 -0.5h-75q-38 -3 -38 -35q0 -23 14.5 -35.5t37.5 -12.5h94v-27h-209v27h54zM464 338q40 -6 71.5 -17t53 -30.5t32.5 -49.5
t11 -73l-3 -40q0 -20 19 -23t46 -3h101v-102h-105q-45 0 -71 13t-31 34q-23 -22 -60.5 -34.5t-94.5 -12.5h-221q-56 0 -93 12.5t-60 33.5q-24 23 -35 52.5t-11 63.5q0 46 11 77t32 51t52.5 31t72.5 17q36 5 53 5.5t27 8.5q5 5 7 10.5t2 10.5q0 2 -0.5 3t-0.5 2v2h107
q-1 -1 -1 -2v-6q0 -5 1.5 -10t7.5 -10q10 -8 27 -8.5t53 -5.5zM439 102q45 0 66 14t21 55q0 20 -7.5 32t-20 19t-29 10t-34.5 6q-2 0 -17.5 1.5t-35 4t-37 7t-23.5 11.5q-5 -7 -22.5 -11.5t-37 -7t-35.5 -4t-17 -1.5q-20 -3 -37 -6.5t-29 -10.5t-18.5 -19t-6.5 -31
q0 -42 21.5 -55.5t65.5 -13.5h233z" />
    <glyph glyph-name="uni06C3.zz05" unicode="&#x6c3;" horiz-adv-x="695" 
d="M764 102v-102h-159q-28 0 -48 4.5t-33.5 10.5t-20.5 11.5t-9 7.5q-2 -2 -9.5 -7.5t-22 -11.5t-37.5 -10.5t-54 -4.5h-140q-32 0 -71 6t-73 24.5t-57 53.5t-23 94q0 48 12.5 85.5t42 63.5t78 39.5t119.5 13.5q47 0 86 -10t65 -10q11 0 21 2.5t10 17.5h105v-241
q0 -23 11.5 -29.5t34.5 -7.5h172zM374 102q20 0 33 2.5t20.5 9.5t10 19.5t2.5 32.5v108q-11 -10 -36 -10q-17 0 -38 2.5t-44 6t-47 6t-46 2.5q-35 0 -57.5 -8.5t-35.5 -22.5t-18 -32t-5 -37q0 -42 34.5 -60.5t107.5 -18.5h119zM260 569q0 -22 -15 -37.5t-37 -15.5t-37 15.5
t-15 37.5t15 37.5t37 15.5t37 -15.5t15 -37.5zM406 569q0 -22 -15 -37.5t-37 -15.5t-37.5 15.5t-15.5 37.5t15.5 37.5t37.5 15.5t37 -15.5t15 -37.5z" />
    <glyph glyph-name="uni06CC" unicode="&#x6cc;" horiz-adv-x="809" arabic-form="isolated" 
d="M681 102q21 0 32.5 -2t16.5 -10q5 -7 6 -20t1 -36q0 -54 -12.5 -95.5t-35.5 -73t-54.5 -53.5t-70.5 -37q-48 -18 -105 -25.5t-118 -7.5q-64 0 -124 16.5t-106.5 51t-75 87.5t-28.5 126q0 15 1.5 31.5t3.5 32t4 29t4 21.5q2 10 5 17.5t9 13.5q11 11 29 12q7 1 23 2t51 3
q1 0 4 -0.5t3 -2.5t-2 -7t-4 -13q-11 -35 -15.5 -64.5t-4.5 -55.5q0 -100 58 -149t167 -49q45 0 94 6t90 21.5t67.5 43t26.5 71.5q0 5 -2 9.5t-7 4.5h-142q-33 0 -62.5 6.5t-52 20.5t-35.5 36t-13 53q0 14 3 26q7 31 30 63t55.5 61.5t71.5 55.5t78 45.5t74 31t61 12.5
q18 0 31.5 -5.5t14.5 -23.5v-89q0 -14 -3 -14q-4 0 -7 3t-8 6t-13 6t-21 3q-23 0 -56 -14t-67.5 -35.5t-65.5 -47t-48 -47.5q-13 -17 -13 -31q0 -20 25 -20h232v0z" />
    <glyph glyph-name="uni06D2" unicode="&#x6d2;" horiz-adv-x="780" arabic-form="isolated" 
d="M748 -149q6 8 8 8t3 -7.5t1 -27.5v-46q0 -18 -7.5 -27t-27.5 -9h-535q-36 0 -68.5 13.5t-57.5 37t-39.5 55t-14.5 68.5q0 43 14.5 77.5t41 58.5t62 37t77.5 13h92q44 0 75.5 8t54.5 24q27 19 42 47t22 64q1 7 4 8q1 1 3 1t10 -4q18 -11 28 -16t15 -8q5 -4 7 -4
q11 -7 16.5 -14t5.5 -18q0 -5 -1 -10.5t-3 -10.5q-4 -12 -11 -29t-19.5 -35t-31 -36t-45.5 -33q-29 -17 -70 -26.5t-98 -9.5h-105q-39 0 -59.5 -22t-20.5 -59q0 -33 23.5 -54t59.5 -21h514q8 0 19.5 1t15.5 6z" />
    <glyph glyph-name="uni06D3" unicode="&#x6d3;" horiz-adv-x="781" arabic-form="isolated" 
d="M748 -149q6 8 8 8t3 -7.5t1 -27.5v-46q0 -18 -7.5 -27t-27.5 -9h-535q-36 0 -68.5 13.5t-57.5 37t-39.5 55t-14.5 68.5q0 43 14.5 77.5t41 58.5t62 37t77.5 13h92q44 0 75.5 8t54.5 24q27 19 42 47t22 64q1 7 4 8q1 1 3 1t10 -4q18 -11 28 -16t15 -8q5 -4 7 -4
q11 -7 16.5 -14t5.5 -18q0 -5 -1 -10.5t-3 -10.5q-4 -12 -11 -29t-19.5 -35t-31 -36t-45.5 -33q-29 -17 -70 -26.5t-98 -9.5h-105q-39 0 -59.5 -22t-20.5 -59q0 -33 23.5 -54t59.5 -21h514q8 0 19.5 1t15.5 6zM154 270q-11 8 -17 22.5t-6 27.5q2 38 33 55q11 5 20 6t14 2h67
q9 0 13 4q1 1 1 1.5t1 1.5q0 1 1 1l27 -24q-3 -7 -7 -9q-5 -4 -12 -4.5t-13 -0.5h-75q-38 -3 -38 -35q0 -23 14.5 -35.5t37.5 -12.5h94v-27h-209v27h54z" />
    <glyph glyph-name="uni06D5.zz05" unicode="&#x6d5;" horiz-adv-x="693" 
d="M764 102v-102h-159q-28 0 -48 4.5t-33.5 10.5t-20.5 11.5t-9 7.5q-2 -2 -9.5 -7.5t-22 -11.5t-37.5 -10.5t-54 -4.5h-140q-32 0 -71 6t-73 24.5t-57 53.5t-23 94q0 48 12.5 85.5t42 63.5t78 39.5t119.5 13.5q47 0 86 -10t65 -10q11 0 21 2.5t10 17.5h105v-241
q0 -23 11.5 -29.5t34.5 -7.5h172zM374 102q20 0 33 2.5t20.5 9.5t10 19.5t2.5 32.5v108q-11 -10 -36 -10q-17 0 -38 2.5t-44 6t-47 6t-46 2.5q-35 0 -57.5 -8.5t-35.5 -22.5t-18 -32t-5 -37q0 -42 34.5 -60.5t107.5 -18.5h119z" />
    <glyph glyph-name="uniFB51" unicode="&#x671;" horiz-adv-x="309" arabic-form="final" 
d="M385 102v-102h-211q-50 0 -68 27t-18 72v438q0 31 10.5 39.5t39.5 8.5h56v-445q0 -25 3.5 -31.5t25.5 -6.5h162zM40 698q0 3 2 1t6 -2h21v101q0 14 12 14h15v-74l52 30q8 5 21 10t27 5q25 0 41 -15t16 -39q0 -27 -16 -42.5t-37 -15.5h-147q-9 0 -11 2.5t-2 8.5v16z
M191 697q17 0 25.5 8.5t8.5 22.5q0 11 -9 19.5t-22 8.5q-8 0 -19.5 -5.5t-18.5 -9.5l-74 -44h109z" />
    <glyph glyph-name="uniFB57" unicode="&#x67e;" horiz-adv-x="1086" arabic-form="final" 
d="M180 0q-81 0 -126.5 36.5t-47.5 115.5q1 19 1.5 36t5.5 37q3 18 13 28.5t30 13.5q5 1 20.5 1.5t52.5 2.5q9 0 11 -3t-0.5 -7.5t-6.5 -11.5q-6 -11 -10.5 -24t-6.5 -26q-2 -11 -2.5 -27t-0.5 -22q0 -29 16 -38.5t46 -9.5h596q32 0 47 10.5t15 48.5v167q0 26 10 39t36 13
h59v-250q2 -18 13.5 -23t34.5 -5h165v-102h-191q-18 0 -32 5t-25 12q-12 7 -21 17q-4 -4 -10.5 -9.5t-17 -11t-26 -9.5t-36.5 -4h-612zM426 -308q0 22 15.5 37.5t36.5 15.5q22 0 37.5 -15.5t15.5 -37.5t-15.5 -37t-37.5 -15q-21 0 -36.5 15t-15.5 37zM499 -186q0 23 15 38
t37 15t37 -15t15 -38q0 -21 -15 -36.5t-37 -15.5t-37 15.5t-15 36.5zM353 -186q0 23 15 38t37 15t37.5 -15t15.5 -38q0 -21 -15.5 -36.5t-37.5 -15.5t-37 15.5t-15 36.5z" />
    <glyph glyph-name="uniFB58" unicode="&#x67e;" horiz-adv-x="421" arabic-form="initial" 
d="M-79 0v102h234q32 0 47 10.5t15 48.5v167q0 26 10 39t36 13h59v-246q0 -39 -10.5 -65t-30.5 -41t-50 -21.5t-70 -6.5h-240zM150 -308q0 22 15.5 37.5t36.5 15.5q22 0 37.5 -15.5t15.5 -37.5t-15.5 -37t-37.5 -15q-21 0 -36.5 15t-15.5 37zM223 -186q0 23 15 38t37 15
t37 -15t15 -38q0 -21 -15 -36.5t-37 -15.5t-37 15.5t-15 36.5zM77 -186q0 23 15 38t37 15t37.5 -15t15.5 -38q0 -21 -15.5 -36.5t-37.5 -15.5t-37 15.5t-15 36.5z" />
    <glyph glyph-name="uniFB59" unicode="&#x67e;" horiz-adv-x="470" arabic-form="medial" 
d="M-75 0v102h234q32 0 47 10.5t15 48.5v167q0 26 10 39t36 13h59v-250q2 -18 13.5 -23t34.5 -5h165v-102h-191q-18 0 -32 5t-25 12q-12 7 -21 17q-4 -4 -10.5 -9.5t-17 -11t-26 -9.5t-36.5 -4h-255zM146 -309q0 22 15.5 37.5t36.5 15.5q22 0 37.5 -15.5t15.5 -37.5
t-15.5 -37t-37.5 -15q-21 0 -36.5 15t-15.5 37zM219 -187q0 23 15 38t37 15t37 -15t15 -38q0 -21 -15 -36.5t-37 -15.5t-37 15.5t-15 36.5zM73 -187q0 23 15 38t37 15t37.5 -15t15.5 -38q0 -21 -15.5 -36.5t-37.5 -15.5t-37 15.5t-15 36.5z" />
    <glyph glyph-name="uniFB67" unicode="&#x679;" horiz-adv-x="1086" arabic-form="final" 
d="M180 0q-81 0 -126.5 36.5t-47.5 115.5q1 19 1.5 36t5.5 37q3 18 13 28.5t30 13.5q5 1 20.5 1.5t52.5 2.5q9 0 11 -3t-0.5 -7.5t-6.5 -11.5q-6 -11 -10.5 -24t-6.5 -26q-2 -11 -2.5 -27t-0.5 -22q0 -29 16 -38.5t46 -9.5h596q32 0 47 10.5t15 48.5v167q0 26 10 39t36 13
h59v-250q2 -18 13.5 -23t34.5 -5h165v-102h-191q-18 0 -32 5t-25 12q-12 7 -21 17q-4 -4 -10.5 -9.5t-17 -11t-26 -9.5t-36.5 -4h-612zM372 302q0 3 2 1t6 -2h21v101q0 14 12 14h15v-74l52 30q8 5 21 10t27 5q25 0 41 -15t16 -39q0 -27 -16 -42.5t-37 -15.5h-147
q-9 0 -11 2.5t-2 8.5v16zM523 301q17 0 25.5 8.5t8.5 22.5q0 11 -9 19.5t-22 8.5q-8 0 -19.5 -5.5t-18.5 -9.5l-74 -44h109z" />
    <glyph glyph-name="uniFB68" unicode="&#x679;" horiz-adv-x="421" arabic-form="initial" 
d="M-79 0v102h234q32 0 47 10.5t15 48.5v167q0 26 10 39t36 13h59v-246q0 -39 -10.5 -65t-30.5 -41t-50 -21.5t-70 -6.5h-240zM169 542q0 3 2 1t6 -2h21v101q0 14 12 14h15v-74l52 30q8 5 21 10t27 5q25 0 41 -15t16 -39q0 -27 -16 -42.5t-37 -15.5h-147q-9 0 -11 2.5
t-2 8.5v16zM320 541q17 0 25.5 8.5t8.5 22.5q0 11 -9 19.5t-22 8.5q-8 0 -19.5 -5.5t-18.5 -9.5l-74 -44h109z" />
    <glyph glyph-name="uniFB69" unicode="&#x679;" horiz-adv-x="470" arabic-form="medial" 
d="M-75 0v102h234q32 0 47 10.5t15 48.5v167q0 26 10 39t36 13h59v-250q2 -18 13.5 -23t34.5 -5h165v-102h-191q-18 0 -32 5t-25 12q-12 7 -21 17q-4 -4 -10.5 -9.5t-17 -11t-26 -9.5t-36.5 -4h-255zM165 547q0 3 2 1t6 -2h21v101q0 14 12 14h15v-74l52 30q8 5 21 10t27 5
q25 0 41 -15t16 -39q0 -27 -16 -42.5t-37 -15.5h-147q-9 0 -11 2.5t-2 8.5v16zM316 546q17 0 25.5 8.5t8.5 22.5q0 11 -9 19.5t-22 8.5q-8 0 -19.5 -5.5t-18.5 -9.5l-74 -44h109z" />
    <glyph glyph-name="uniFB6B" unicode="&#x6a4;" horiz-adv-x="1083" arabic-form="final" 
d="M182 0q-81 0 -127.5 36.5t-46.5 115.5q0 19 1 36t6 37q2 8 5 16.5t10 14.5q10 8 28 11q5 1 20.5 1.5t52.5 2.5q9 0 11 -3t-0.5 -7.5t-6.5 -11.5q-6 -11 -10.5 -24t-6.5 -26q-1 -5 -1.5 -12l-1 -14t-0.5 -12v-6q0 -35 16.5 -44t45.5 -9h394q-17 18 -24.5 46t-7.5 56
q0 44 16 81.5t43.5 65t65.5 43t83 15.5t82.5 -15.5t65.5 -42.5t43.5 -64.5t15.5 -82.5q0 -29 -7 -55t-18 -47h234v-102h-981zM742 102q56 2 81 27.5t25 74.5q0 44 -28.5 73.5t-74.5 29.5q-47 0 -73.5 -29.5t-26.5 -73.5q0 -41 26.5 -70t70.5 -32zM794 690q0 -21 -15.5 -36.5
t-37.5 -15.5q-21 0 -36.5 15.5t-15.5 36.5q0 23 15.5 38t36.5 15q22 0 37.5 -15t15.5 -38zM720 568q0 -22 -15 -37t-37 -15t-37 15t-15 37t15 37.5t37 15.5t37 -15.5t15 -37.5zM866 568q0 -22 -15 -37t-37 -15t-37.5 15t-15.5 37t15.5 37.5t37.5 15.5t37 -15.5t15 -37.5z
" />
    <glyph glyph-name="uniFB6C" unicode="&#x6a4;" horiz-adv-x="714" arabic-form="initial" 
d="M421 409q45 0 82.5 -15.5t65.5 -42.5t43.5 -64.5t15.5 -82.5t-15.5 -82.5t-43.5 -64.5t-65.5 -42t-82.5 -15h-471v102h295q-17 18 -24.5 46t-7.5 56q0 44 16 81.5t43.5 65t65.5 43t83 15.5zM421 102q48 2 74.5 27.5t26.5 74.5q0 44 -28.5 73.5t-74.5 29.5
q-47 0 -73.5 -29.5t-26.5 -73.5q0 -41 25 -70t77 -32zM469 691q0 -21 -15.5 -36.5t-37.5 -15.5q-21 0 -36.5 15.5t-15.5 36.5q0 23 15.5 38t36.5 15q22 0 37.5 -15t15.5 -38zM395 569q0 -22 -15 -37t-37 -15t-37 15t-15 37t15 37.5t37 15.5t37 -15.5t15 -37.5zM541 569
q0 -22 -15 -37t-37 -15t-37.5 15t-15.5 37t15.5 37.5t37.5 15.5t37 -15.5t15 -37.5z" />
    <glyph glyph-name="uniFB6D" unicode="&#x6a4;" horiz-adv-x="763" arabic-form="medial" 
d="M-55 0v102h296q-17 18 -24.5 46t-7.5 56q0 44 16 81.5t43.5 65t65.5 43t83 15.5t82.5 -15.5t65.5 -42.5t43.5 -64.5t15.5 -82.5q0 -29 -7 -55t-18 -47h224v-102h-878zM417 102q48 2 74.5 27.5t26.5 74.5q0 44 -28.5 73.5t-74.5 29.5q-47 0 -73.5 -29.5t-26.5 -73.5
q0 -41 25 -70t77 -32zM471 690q0 -21 -15.5 -36.5t-37.5 -15.5q-21 0 -36.5 15.5t-15.5 36.5q0 23 15.5 38t36.5 15q22 0 37.5 -15t15.5 -38zM397 568q0 -22 -15 -37t-37 -15t-37 15t-15 37t15 37.5t37 15.5t37 -15.5t15 -37.5zM543 568q0 -22 -15 -37t-37 -15t-37.5 15
t-15.5 37t15.5 37.5t37.5 15.5t37 -15.5t15 -37.5z" />
    <glyph glyph-name="uniFB7B" unicode="&#x686;" horiz-adv-x="960" arabic-form="final" 
d="M781 280q11 -11 20 -27q8 -14 14 -34.5t6 -46.5q0 -6 -0.5 -12.5t-1.5 -17.5q0 -5 1 -11.5t5.5 -13t13 -11t22.5 -4.5h171v-102h-136q-25 0 -43.5 2t-33.5 6.5t-28 13t-27 22.5q-4 -3 -7 -6t-7 -5q-24 -17 -56.5 -25t-70.5 -8h-457q-31 0 -40.5 -12.5t-9.5 -27.5
q0 -23 9 -47.5t20 -44.5q18 -33 43 -60t51 -45q19 -14 19 -18q0 -3 -7 -3h-116q-5 0 -12 0.5t-15 3.5q-5 2 -9 5.5t-9 8.5q-37 43 -59 92t-22 103q0 55 29 92q12 15 26 25.5t33 17t45.5 9.5t62.5 3h419q41 0 66 24t25 67q0 40 -26 62.5t-63 22.5h-382q-23 0 -40 -2t-26 -13
q-7 -8 -7 -22q0 -10 3 -20q4 -14 9.5 -25.5t5.5 -15.5q-1 -2 -10 -2h-64q-25 0 -37 16q-5 8 -8 24t-3 33q0 68 41 98.5t106 30.5h564q11 0 16 1.5t7 4t3 4t4 1.5q2 0 4 -4q2 -6 2 -15v-56q0 -20 -9 -27q-5 -5 -12 -6.5t-12 -2.5zM383.648 -290.855
q0 19.7129 13.9805 33.6006t32.9219 13.8877q19.8438 0 33.8242 -13.8877t13.9805 -33.6006q0 -19.7109 -13.9805 -33.1514t-33.8242 -13.4404q-18.9414 0 -32.9219 13.4404t-13.9805 33.1514zM449.492 -181.543q0 20.6074 13.5303 34.0469q13.5293 13.4404 33.373 13.4404
t33.373 -13.4404q13.5303 -13.4395 13.5303 -34.0469q0 -18.8164 -13.5303 -32.7041q-13.5293 -13.8877 -33.373 -13.8877t-33.373 13.8877q-13.5303 13.8877 -13.5303 32.7041zM317.804 -181.543q0 20.6074 13.5303 34.0469q13.5293 13.4404 33.373 13.4404
t33.8242 -13.4404q13.9805 -13.4395 13.9805 -34.0469q0 -18.8164 -13.9805 -32.7041t-33.8242 -13.8877t-33.373 13.8877q-13.5303 13.8877 -13.5303 32.7041z" />
    <glyph glyph-name="uniFB7C" unicode="&#x686;" horiz-adv-x="1025" arabic-form="initial" 
d="M893 280q11 -11 20 -27q8 -14 14 -34.5t6 -46.5q0 -6 -0.5 -12t-1.5 -13q-5 -43 -22.5 -68.5t-46.5 -45.5q-24 -17 -56.5 -25t-70.5 -8h-795v102h796q41 0 66 24t25 67q0 40 -26 62.5t-63 22.5h-382q-23 0 -40 -2t-26 -13q-7 -8 -7 -22q0 -10 3 -20q4 -14 9.5 -25.5
t5.5 -15.5q-1 -2 -10 -2h-64q-25 0 -37 16q-5 8 -8 24t-3 33q0 68 41 98.5t106 30.5h564q11 0 16 1.5t7 4t3 4t4 1.5q2 0 4 -4q2 -6 2 -15v-56q0 -20 -9 -27q-5 -5 -12 -6.5t-12 -2.5zM491 -310q0 22 15.5 37.5t36.5 15.5q22 0 37.5 -15.5t15.5 -37.5t-15.5 -37t-37.5 -15
q-21 0 -36.5 15t-15.5 37zM564 -188q0 23 15 38t37 15t37 -15t15 -38q0 -21 -15 -36.5t-37 -15.5t-37 15.5t-15 36.5zM418 -188q0 23 15 38t37 15t37.5 -15t15.5 -38q0 -21 -15.5 -36.5t-37.5 -15.5t-37 15.5t-15 36.5z" />
    <glyph glyph-name="uniFB7D" unicode="&#x686;" horiz-adv-x="1074" arabic-form="medial" 
d="M892 280q11 -11 20 -27q8 -14 14 -34.5t6 -46.5q0 -6 -0.5 -12.5t-1.5 -17.5q0 -5 1 -11.5t5.5 -13t13 -11t22.5 -4.5h171v-102h-136q-25 0 -43.5 2t-33.5 6.5t-28 13t-27 22.5q-4 -3 -7 -6t-7 -5q-24 -17 -56.5 -25t-70.5 -8h-789v102h790q41 0 66 24t25 67
q0 40 -26 62.5t-63 22.5h-382q-23 0 -40 -2t-26 -13q-7 -8 -7 -22q0 -10 3 -20q4 -14 9.5 -25.5t5.5 -15.5q-1 -2 -10 -2h-64q-25 0 -37 16q-5 8 -8 24t-3 33q0 68 41 98.5t106 30.5h564q11 0 16 1.5t7 4t3 4t4 1.5q2 0 4 -4q2 -6 2 -15v-56q0 -20 -9 -27q-5 -5 -12 -6.5
t-12 -2.5zM491 -310q0 22 15.5 37.5t36.5 15.5q22 0 37.5 -15.5t15.5 -37.5t-15.5 -37t-37.5 -15q-21 0 -36.5 15t-15.5 37zM564 -188q0 23 15 38t37 15t37 -15t15 -38q0 -21 -15 -36.5t-37 -15.5t-37 15.5t-15 36.5zM418 -188q0 23 15 38t37 15t37.5 -15t15.5 -38
q0 -21 -15.5 -36.5t-37.5 -15.5t-37 15.5t-15 36.5z" />
    <glyph glyph-name="uniFB89" unicode="&#x688;" horiz-adv-x="619" arabic-form="final" 
d="M328 380q52 0 89 -17t61 -43q26 -28 37 -61t11 -62q0 -39 -9 -69q-3 -13 6 -20q7 -5 17.5 -5t23.5 -1h132v-102h-108q-26 0 -45.5 6t-33.5 16q-11 8 -19 17t-13 17q-23 -23 -50 -35q-25 -12 -50.5 -16.5t-46.5 -4.5h-245q-17 0 -24 10q-5 8 -5 24v68h273q6 0 16 1t21.5 5
t22.5 12t19 22q5 10 8.5 20t3.5 27q0 26 -10.5 42.5t-25.5 27.5q-15 10 -31.5 14t-31.5 4h-68q-28 0 -57.5 0.5t-49.5 0.5q-15 0 -23 7q-9 7 -9 27v51q0 26 3 28q2 1 8 -3q5 -4 12 -6t31 -2h160v0zM207 544q0 3 2 1t6 -2h21v101q0 14 12 14h15v-74l52 30q8 5 21 10t27 5
q25 0 41 -15t16 -39q0 -27 -16 -42.5t-37 -15.5h-147q-9 0 -11 2.5t-2 8.5v16zM358 543q17 0 25.5 8.5t8.5 22.5q0 11 -9 19.5t-22 8.5q-8 0 -19.5 -5.5t-18.5 -9.5l-74 -44h109z" />
    <glyph glyph-name="uniFB8B" unicode="&#x698;" horiz-adv-x="493" arabic-form="final" 
d="M346 137q1 -14 12.5 -24.5t37.5 -10.5h165v-102h-174q-11 0 -22.5 6t-17.5 16v-30q0 -41 -10.5 -77t-28.5 -65.5t-42 -50.5t-51 -31q-29 -11 -64.5 -18.5t-83.5 -7.5q-15 0 -26.5 0.5t-19 4.5t-11.5 12t-4 22v9t-0.5 18t-0.5 18v10t1 9.5t6 7.5q1 0 9 -2q11 -3 29.5 -4.5
t38.5 -1.5q73 2 113 42t40 108v5v13.5v31v57t-0.5 91.5t-0.5 135q0 29 11.5 40.5t34.5 11.5h59v-243zM347 690q0 -21 -15.5 -36.5t-37.5 -15.5q-21 0 -36.5 15.5t-15.5 36.5q0 23 15.5 38t36.5 15q22 0 37.5 -15t15.5 -38zM273 568q0 -22 -15 -37t-37 -15t-37 15t-15 37
t15 37.5t37 15.5t37 -15.5t15 -37.5zM419 568q0 -22 -15 -37t-37 -15t-37.5 15t-15.5 37t15.5 37.5t37.5 15.5t37 -15.5t15 -37.5z" />
    <glyph glyph-name="uniFB8D" unicode="&#x691;" horiz-adv-x="493" arabic-form="final" 
d="M346 137q1 -14 12.5 -24.5t37.5 -10.5h165v-102h-174q-11 0 -22.5 6t-17.5 16v-30q0 -41 -10.5 -77t-28.5 -65.5t-42 -50.5t-51 -31q-29 -11 -64.5 -18.5t-83.5 -7.5q-15 0 -26.5 0.5t-19 4.5t-11.5 12t-4 22v9t-0.5 18t-0.5 18v10t1 9.5t6 7.5q1 0 9 -2q11 -3 29.5 -4.5
t38.5 -1.5q73 2 113 42t40 108v5v13.5v31v57t-0.5 91.5t-0.5 135q0 29 11.5 40.5t34.5 11.5h59v-243zM187 546q0 3 2 1t6 -2h21v101q0 14 12 14h15v-74l52 30q8 5 21 10t27 5q25 0 41 -15t16 -39q0 -27 -16 -42.5t-37 -15.5h-147q-9 0 -11 2.5t-2 8.5v16zM338 545
q17 0 25.5 8.5t8.5 22.5q0 11 -9 19.5t-22 8.5q-8 0 -19.5 -5.5t-18.5 -9.5l-74 -44h109z" />
    <glyph glyph-name="uniFB8F" unicode="&#x6a9;" horiz-adv-x="1074" arabic-form="final" 
d="M917 186q29 -26 40 -55q2 -6 3.5 -11t5.5 -9t12.5 -6.5t25.5 -2.5h144v-102h-152q-18 0 -36 9.5t-28 20.5q-38 -30 -101 -30h-641q-81 0 -127.5 36t-46.5 116q0 19 1 36t6 37q3 18 13 28.5t30 13.5q5 1 20.5 1.5t52.5 2.5q2 0 7 -0.5t5 -4.5q0 -3 -2.5 -7.5t-5.5 -9.5
q-6 -11 -10.5 -24t-6.5 -26q-2 -11 -2.5 -26.5t-0.5 -20.5q0 -32 16 -41t46 -9h637q16 1 16 13q0 5 -6 13l-259 239q78 53 144 97q28 19 55.5 37.5t51.5 34t41 27t24 16.5q8 5 15.5 8.5t15.5 3.5q17 0 23.5 -13t6.5 -30v-57q0 -3 -1 -4t-4 0q-3 3 -6 3q-4 0 -9 -4l-199 -133
z" />
    <glyph glyph-name="uniFB90" unicode="&#x6a9;" horiz-adv-x="495" arabic-form="initial" 
d="M382 186q25 -22 36.5 -45t11.5 -44q0 -41 -36 -69t-98 -28h-360v102h351q16 1 16 13q0 5 -6 13l-259 239q78 53 144 97q28 19 55.5 37.5t51.5 34t41 27t24 16.5q8 5 15.5 8.5t15.5 3.5q17 0 23.5 -12t6.5 -31v-52q0 -7 -1 -9q-1 -3 -4 0t-6 3q-4 0 -9 -4l-199 -133z" />
    <glyph glyph-name="uniFB91" unicode="&#x6a9;" horiz-adv-x="551" arabic-form="medial" 
d="M419 186q34 -31 43 -62l2 -8t4.5 -7t11 -5t21.5 -2h126v-102h-129q-18 0 -36 9.5t-28 20.5q-38 -30 -101 -30h-410v102h401q16 1 16 13q0 5 -6 13l-259 239q78 53 144 97q28 19 55.5 37.5t51.5 34t41 27t24 16.5q8 5 16 8.5t16 3.5q17 0 23 -12.5t6 -30.5v-52q0 -6 -1 -8
q-2 -3 -5 0q-2 2 -4 2q-5 0 -10 -4l-199 -133z" />
    <glyph glyph-name="uniFB93" unicode="&#x6af;" horiz-adv-x="1074" arabic-form="final" 
d="M913 163q8 -8 13.5 -19.5t7.5 -22.5q2 -14 16.5 -16.5t31.5 -2.5h159v-102h-144q-24 0 -47 7t-42 26q-14 -15 -36.5 -24t-51.5 -9h-641q-82 0 -128 36t-46 116q0 19 1 36t6 37q3 18 13 28.5t30 13.5q5 1 20.5 1.5t52.5 2.5q12 0 12 -7q-1 -3 -3.5 -6.5t-4.5 -8.5
q-6 -11 -10.5 -24t-6.5 -26q-1 -5 -1.5 -12.5t-0.5 -13.5q-1 -8 -1 -15q0 -32 11 -43q8 -8 21 -10.5t30 -2.5h628q16 1 16 13q0 5 -6 13l-125 148q42 31 79 57q32 23 62 45t44 31q13 9 23 14.5t18 5.5q10 0 15 -10.5t5 -34.5v-68q0 -9 -1 -10t-3 -1q-3 0 -5 2.5t-4 2.5
q-3 0 -9 -4l-75 -50zM660 319l-71 86l283 196q17 12 34 12q11 0 19 -6.5t8 -23.5v-82q0 -6 -4 -6q-3 0 -5 2q-3 3 -8 3q-6 0 -13 -5z" />
    <glyph glyph-name="uniFB94" unicode="&#x6af;" horiz-adv-x="516" arabic-form="initial" 
d="M162 319l-71 86l283 196q18 13 33 13q12 0 20 -8.5t8 -22.5v-82q0 -6 -4 -6q-3 0 -5 2q-3 3 -8 3q-6 0 -13 -5zM415 163q12 -12 17.5 -28t5.5 -33q0 -19 -7 -37t-21.5 -32.5t-36.5 -23.5t-51 -9h-381v102h363q16 1 16 13q0 5 -6 13l-125 148q42 31 79 57q32 23 62 45
t44 31q11 8 23 15t21 7q6 0 9.5 -5t5 -12t2 -15t0.5 -15v-68q0 -3 -1 -6.5t-3 -4.5q-2 0 -3 1q-4 4 -6 4q-3 0 -9 -4l-75 -50z" />
    <glyph glyph-name="uniFB95" unicode="&#x6af;" horiz-adv-x="556" arabic-form="medial" 
d="M153 319l-71 86l283 196q18 13 33 13q12 0 20 -8.5t8 -22.5v-82q0 -6 -4 -6q-3 0 -5 2q-3 3 -8 3q-6 0 -13 -5zM406 163q8 -8 13.5 -19.5t7.5 -22.5q2 -14 16.5 -16.5t31.5 -2.5h159v-102h-144q-24 0 -47 7t-42 26q-14 -15 -36.5 -24t-51.5 -9h-377v102h359q16 1 16 13
q0 5 -6 13l-125 148q42 31 79 57q32 23 62 45t44 31q11 8 23 15t21 7q6 0 9.5 -5t5 -12t2 -15t0.5 -15v-68q0 -9 -1 -10t-3 -1q-3 0 -5 2.5t-4 2.5q-3 0 -9 -4l-75 -50z" />
    <glyph glyph-name="uniFB9F" unicode="&#x6ba;" horiz-adv-x="893" arabic-form="final" 
d="M958 102v-102h-150q-25 0 -41 4.5t-27 20.5q-10 -57 -36.5 -104t-65.5 -83q-52 -47 -121.5 -71.5t-148.5 -24.5q-75 0 -128.5 13t-91.5 33q-37 19 -63.5 49.5t-43.5 66t-25 73.5t-8 73q0 48 14 85q8 20 17.5 28.5t37.5 11.5l28 2l28 2q5 0 7 -2q1 -1 1 -5
q0 -3 -3.5 -13.5t-7.5 -21.5q-8 -23 -12.5 -44.5t-4.5 -41.5q0 -45 18.5 -83t50.5 -65.5t76.5 -43t95.5 -15.5q137 0 210.5 69t73.5 195v218q0 24 11 39t39 15h58v-260q0 -14 13 -16t31 -2h168z" />
    <glyph glyph-name="uniFBA5" unicode="&#x6c0;" horiz-adv-x="695" arabic-form="final" 
d="M764 102v-102h-159q-28 0 -48 4.5t-33.5 10.5t-20.5 11.5t-9 7.5q-2 -2 -9.5 -7.5t-22 -11.5t-37.5 -10.5t-54 -4.5h-140q-32 0 -71 6t-73 24.5t-57 53.5t-23 94q0 48 12.5 85.5t42 63.5t78 39.5t119.5 13.5q47 0 86 -10t65 -10q11 0 21 2.5t10 17.5h105v-241
q0 -23 11.5 -29.5t34.5 -7.5h172zM374 102q20 0 33 2.5t20.5 9.5t10 19.5t2.5 32.5v108q-11 -10 -36 -10q-17 0 -38 2.5t-44 6t-47 6t-46 2.5q-35 0 -57.5 -8.5t-35.5 -22.5t-18 -32t-5 -37q0 -42 34.5 -60.5t107.5 -18.5h119zM227 541q-11 8 -17 22.5t-6 27.5q2 38 33 55
q11 5 20 6t14 2h67q9 0 13 4q1 1 1 1.5t1 1.5q0 1 1 1l27 -24q-3 -7 -7 -9q-5 -4 -12 -4.5t-13 -0.5h-75q-38 -3 -38 -35q0 -23 14.5 -35.5t37.5 -12.5h94v-27h-209v27h54z" />
    <glyph glyph-name="uniFBA7" unicode="&#x6c1;" horiz-adv-x="733" arabic-form="final" 
d="M464 338q40 -6 71.5 -17t53 -30.5t32.5 -49.5t11 -73l-3 -40q0 -20 19 -23t46 -3h101v-102h-105q-45 0 -71 13t-31 34q-23 -22 -60.5 -34.5t-94.5 -12.5h-221q-56 0 -93 12.5t-60 33.5q-24 23 -35 52.5t-11 63.5q0 46 11 77t32 51t52.5 31t72.5 17q36 5 53 5.5t27 8.5
q5 5 7 10.5t2 10.5q0 2 -0.5 3t-0.5 2v2h107q-1 -1 -1 -2v-6q0 -5 1.5 -10t7.5 -10q10 -8 27 -8.5t53 -5.5zM439 102q45 0 66 14t21 55q0 20 -7.5 32t-20 19t-29 10t-34.5 6q-2 0 -17.5 1.5t-35 4t-37 7t-23.5 11.5q-5 -7 -22.5 -11.5t-37 -7t-35.5 -4t-17 -1.5
q-20 -3 -37 -6.5t-29 -10.5t-18.5 -19t-6.5 -31q0 -42 21.5 -55.5t65.5 -13.5h233z" />
    <glyph glyph-name="uniFBA8" unicode="&#x6c1;" horiz-adv-x="901" arabic-form="initial" 
d="M652 339q82 -7 127.5 -46.5t46.5 -130.5q0 -87 -53 -127t-144 -40q-38 0 -67.5 11.5t-53.5 33.5q-23 -22 -53 -31t-67 -9h-447v102h268q-9 12 -13.5 24t-6.5 36q0 5 -0.5 8.5t-0.5 8.5q0 40 13.5 69t37.5 48t56.5 29.5t69.5 13.5q36 4 53 4.5t27 9.5q5 5 6.5 10t1.5 9
q0 2 -0.5 3.5t-0.5 2.5v2h112q-1 -1 -1 -2v-6q0 -4 1.5 -9t7.5 -10q10 -9 27 -9t53 -5zM635 99q48 2 67.5 17.5t19.5 55.5q0 42 -26 54.5t-65 12.5q-2 0 -18 1t-36.5 4.5t-40 10t-28.5 18.5q-9 -12 -29 -19t-40 -10t-36 -4t-17 -1q-39 0 -65 -14t-26 -53q0 -41 19.5 -56.5
t67.5 -16.5q34 0 52.5 11.5t18.5 42.5v11t-1 14h113q-1 -5 -1.5 -11t-0.5 -13q0 -29 17 -42t55 -13z" />
    <glyph glyph-name="uniFBA9" unicode="&#x6c1;" horiz-adv-x="921" arabic-form="medial" 
d="M652 339q39 -3 71.5 -14t55.5 -31t36 -51t13 -75q0 -25 3.5 -38.5t10.5 -19.5t18 -7t26 -1h88v-102h-72q-38 0 -67.5 8t-53.5 34q-32 -27 -68 -36t-84 -9q-38 0 -67.5 10t-53.5 33q-23 -22 -53 -31t-67 -9h-447v102h268q-9 12 -13.5 24t-6.5 36q0 4 -0.5 8t-0.5 8
q0 40 13.5 69t37 48.5t56 30t70.5 13.5q36 4 53 4.5t27 9.5q5 5 6.5 10t1.5 9q0 2 -0.5 3.5t-0.5 2.5v2h112q-1 -1 -1 -2v-6q0 -4 1.5 -9t7.5 -10q10 -9 27 -9t53 -5zM635 99q48 2 67.5 17.5t19.5 55.5q0 42 -26 54.5t-65 12.5q-2 0 -18 1t-36.5 4.5t-40 10t-28.5 18.5
q-9 -12 -29 -19t-40 -10t-36 -4t-17 -1q-39 0 -65 -14t-26 -53q0 -42 19.5 -55.5t67.5 -14.5q20 0 33.5 2t21.5 8q11 8 14 19.5t3 22.5q0 6 -0.5 12.5t-1.5 11.5h113q-1 -5 -1.5 -11t-0.5 -13q0 -19 8 -32q7 -11 22 -17t42 -6z" />
    <glyph glyph-name="uniFBAB" unicode="&#x6be;" horiz-adv-x="905" arabic-form="final" 
d="M628 339q85 -1 130.5 -50.5t45.5 -129.5q-1 -8 -1.5 -14.5t-0.5 -12.5q0 -14 7 -22t31 -8h130v-102h-92q-38 0 -68 9t-55 32q-32 -27 -67.5 -35.5t-82.5 -8.5q-38 0 -67.5 10t-53.5 33q-23 -22 -53 -31t-67 -9h-233q-14 0 -17.5 -6t-3.5 -12q0 -5 1 -12t3 -12q2 -7 5 -13
h-91q-10 0 -13 5.5t-4 9.5q-1 5 -2.5 18.5t-1.5 30.5q0 11 1 22.5t5 19.5q9 23 27.5 37t54.5 14h90q-9 12 -14.5 24t-5.5 36q0 45 11.5 76.5t34 52.5t55.5 32.5t75 15.5q36 4 53 4.5t27 9.5q5 5 6.5 10t1.5 9v8h110v-8q0 -4 1.5 -9t7.5 -10q10 -9 27 -9t53 -5zM611 99
q48 2 67.5 17.5t19.5 55.5q0 42 -26 54.5t-65 12.5q-2 0 -18 1t-36.5 4.5t-40 10t-28.5 18.5q-9 -12 -29 -19t-40 -10t-36 -4t-17 -1q-39 0 -65 -14t-26 -53q0 -41 19.5 -55.5t67.5 -14.5q35 0 53.5 9.5t18.5 42.5v21h109v-21q0 -29 17 -42t55 -13z" />
    <glyph glyph-name="uniFBAC" unicode="&#x6be;" horiz-adv-x="946" arabic-form="initial" 
d="M646 339q40 -3 73 -14.5t55.5 -32.5t35 -53t12.5 -77q-5 -85 -55.5 -126t-143.5 -41q-38 0 -67.5 11.5t-53.5 33.5q-23 -22 -53 -31t-67 -9h-446v102h267q-12 17 -16.5 35.5t-4.5 40.5q0 40 13.5 69.5t37.5 49t56 30t70 12.5q37 2 53.5 3.5t26.5 10.5q5 5 6.5 10t1.5 9
q0 2 -0.5 3.5t-0.5 2.5v2h112q-1 -1 -1 -2v-6q0 -4 1.5 -9t7.5 -10q10 -9 27.5 -10t52.5 -4zM629 99q48 2 67.5 17.5t19.5 55.5q0 42 -26 54.5t-65 12.5q-2 0 -18 1t-36.5 4.5t-40 10t-28.5 18.5q-9 -12 -29 -19t-40 -10t-36 -4t-17 -1q-39 0 -65 -14t-26 -53
q0 -41 19.5 -57t67.5 -16q35 0 53.5 12t18.5 44q0 6 -0.5 11.5t-1.5 11.5h112q-1 -5 -1 -11v-13q0 -29 17 -42t55 -13z" />
    <glyph glyph-name="uniFBAD" unicode="&#x6be;" horiz-adv-x="921" arabic-form="medial" 
d="M647 339q40 -3 73 -14.5t55.5 -32.5t35 -53t12.5 -77q-1 -11 -2.5 -19.5t-1.5 -15.5q0 -17 15 -21t46 -4h113v-102h-97q-42 0 -70.5 7.5t-51.5 34.5q-50 -47 -150 -47q-38 0 -67.5 11.5t-53.5 33.5q-23 -22 -53 -31t-67 -9h-446v102h267q-12 17 -16.5 35.5t-4.5 40.5
q0 40 13.5 69.5t37.5 49t56 30t70 12.5q37 2 53.5 3.5t26.5 10.5q5 5 6.5 10t1.5 9q0 2 -0.5 3.5t-0.5 2.5v2h112q-1 -1 -1 -2v-6q0 -4 1.5 -9t7.5 -10q10 -9 27.5 -10t52.5 -4zM630 99q48 2 67.5 17.5t19.5 55.5q0 42 -26 54.5t-65 12.5q-2 0 -18 1t-36.5 4.5t-40 10
t-28.5 18.5q-9 -12 -29 -19t-40 -10t-36 -4t-17 -1q-39 0 -65 -14t-26 -53q0 -41 19.5 -57t67.5 -16q35 0 53.5 12t18.5 44q0 6 -0.5 11.5t-1.5 11.5h112q-1 -5 -1 -11v-13q0 -29 17 -42t55 -13z" />
    <glyph glyph-name="uniFBAF" unicode="&#x6d2;" horiz-adv-x="449" arabic-form="final" 
d="M742 -147q7 7 8 7q2 0 3 -7.5t1 -26.5v-49q0 -19 -8 -27q-10 -8 -27 -8h-535q-36 0 -68.5 13.5t-57 37.5t-39.5 56t-15 70q0 44 15.5 78t40.5 57.5t57.5 35.5t66.5 12h304v-102h-299q-41 0 -60.5 -21t-19.5 -56q0 -30 20.5 -54t58.5 -24h521q15 0 22.5 2t10.5 6z" />
    <glyph glyph-name="uniFBB1" unicode="&#x6d3;" horiz-adv-x="449" arabic-form="final" 
d="M742 -147q7 7 8 7q2 0 3 -7.5t1 -26.5v-49q0 -19 -8 -27q-10 -8 -27 -8h-535q-36 0 -68.5 13.5t-57 37.5t-39.5 56t-15 70q0 44 15.5 78t40.5 57.5t57.5 35.5t66.5 12h304v-102h-299q-41 0 -60.5 -21t-19.5 -56q0 -30 20.5 -54t58.5 -24h521q15 0 22.5 2t10.5 6zM161 271
q-11 8 -17 22.5t-6 27.5q2 38 33 55q11 5 20 6t14 2h67q9 0 13 4q1 1 1 1.5t1 1.5q0 1 1 1l27 -24q-3 -7 -7 -9q-5 -4 -12 -4.5t-13 -0.5h-75q-38 -3 -38 -35q0 -23 14.5 -35.5t37.5 -12.5h94v-27h-209v27h54z" />
    <glyph glyph-name="uniFBE8" unicode="&#x649;" horiz-adv-x="421" arabic-form="initial" 
d="M-79 0v102h234q32 0 47 10.5t15 48.5v167q0 26 10 39t36 13h59v-246q0 -39 -10.5 -65t-30.5 -41t-50 -21.5t-70 -6.5h-240z" />
    <glyph glyph-name="uniFBE9" unicode="&#x649;" horiz-adv-x="470" arabic-form="medial" 
d="M-77 0v102h234q32 0 47 10.5t15 48.5v167q0 26 10 39t36 13h59v-250q2 -18 13.5 -23t34.5 -5h165v-102h-191q-18 0 -32 5t-25 12q-12 7 -21 17q-4 -4 -10.5 -9.5t-17 -11t-26 -9.5t-36.5 -4h-255z" />
    <glyph glyph-name="uniFBFD" unicode="&#x6cc;" horiz-adv-x="772" arabic-form="final" 
d="M844 0h-148q13 0 19.5 -16.5t6.5 -34.5q0 -28 -10.5 -52.5t-28 -45t-39.5 -37t-45 -27.5q-53 -26 -118 -35.5t-136 -9.5q-35 0 -71.5 4.5t-71.5 16t-66.5 30t-56.5 46.5q-33 37 -49 93t-16 114q0 23 2.5 46t7.5 44q5 19 13 29.5t31 12.5l68 5q6 0 7 -1q2 -2 2 -5
q0 -4 -2.5 -8.5t-3.5 -7.5q-11 -25 -16 -53t-5 -56q0 -38 9.5 -72.5t29.5 -60.5q32 -41 83 -58t108 -17q72 0 120 9t78 23q68 31 68 80q0 14 -7 23t-18.5 13.5t-27 6t-33.5 1.5q-22 0 -42.5 -1.5t-24.5 -6.5q-3 -5 -5 -5q-3 0 -3 2v2v71q0 21 17 30.5t38 9.5h336v-102z" />
    <glyph glyph-name="uniFBFE" unicode="&#x6cc;" horiz-adv-x="421" arabic-form="initial" 
d="M-79 0v102h234q32 0 47 10.5t15 48.5v167q0 26 10 39t36 13h59v-246q0 -39 -10.5 -65t-30.5 -41t-50 -21.5t-70 -6.5h-240zM184 -186q0 -22 -15 -37.5t-37 -15.5t-37 15.5t-15 37.5t15 37.5t37 15.5t37 -15.5t15 -37.5zM330 -186q0 -22 -15 -37.5t-37 -15.5t-37 15.5
t-15 37.5t15 37.5t37 15.5t37 -15.5t15 -37.5z" />
    <glyph glyph-name="uniFBFF" unicode="&#x6cc;" horiz-adv-x="470" arabic-form="medial" 
d="M-75 0v102h234q32 0 47 10.5t15 48.5v167q0 26 10 39t36 13h59v-250q2 -18 13.5 -23t34.5 -5h165v-102h-191q-18 0 -32 5t-25 12q-12 7 -21 17q-4 -4 -10.5 -9.5t-17 -11t-26 -9.5t-36.5 -4h-255zM180 -186q0 -22 -15 -37.5t-37 -15.5t-37 15.5t-15 37.5t15 37.5t37 15.5
t37 -15.5t15 -37.5zM326 -186q0 -22 -15 -37.5t-37 -15.5t-37 15.5t-15 37.5t15 37.5t37 15.5t37 -15.5t15 -37.5z" />
    <glyph glyph-name="uniFC5E" unicode="&#xfc5e;" arabic-form="isolated" 
d="M-147 818h27q-2 -22 -2.5 -34t-1.5 -18.5t-1 -8.5v-3q0 -25 18 -30t41 -5q25 0 39 7t14 33v59h26v-59q0 -26 14 -33t39 -7q23 0 41 5t18 30v3t-1 8.5t-2 18.5t-2 34h27l6 -67q0 -32 -20 -43t-65 -13q-2 0 -11 0.5t-20.5 2.5t-22 6t-14.5 12q-5 -8 -15 -12t-21.5 -6
t-20.5 -2.5t-11 -0.5q-45 2 -65 13t-20 43zM-11 860q-17 0 -30.5 8.5t-24.5 19.5q-12 -10 -15 -26l-22 3q-2 0 -6 2q-2 2 -2 6q0 8 5.5 17t13.5 16.5t17.5 12.5t17.5 6l16 -20q8 -11 16.5 -12.5t15.5 -1.5q8 0 14.5 4.5t11.5 9.5q-24 2 -38 17.5t-14 37.5q1 11 6.5 22
t14.5 23q11 12 26.5 19.5t32.5 7.5q22 0 38 -13q24 -20 24 -45q0 -17 -10.5 -33.5t-29.5 -32.5l-43 -36q-18 -12 -35 -12zM45 1005q-9 0 -19 -4.5t-18 -13.5q-12 -14 -12 -31q0 -12 8.5 -21.5t28.5 -9.5q10 0 18.5 6t14.5 14t9.5 15.5t3.5 11.5q0 15 -10 23.5t-24 9.5z" />
    <glyph glyph-name="uniFC5F" unicode="&#xfc5f;" arabic-form="isolated" 
d="M-147 961h27q-2 -22 -2.5 -34t-1.5 -18.5t-1 -8.5v-3q0 -25 18 -30t41 -5q25 0 39 7t14 33v59h26v-59q0 -26 14 -33t39 -7q23 0 41 5t18 30v3t-1 8.5t-2 18.5t-2 34h27l6 -67q0 -32 -20 -43t-65 -13q-2 0 -11 0.5t-20.5 2.5t-22 6t-14.5 12q-5 -8 -15 -12t-21.5 -6
t-20.5 -2.5t-11 -0.5q-45 2 -65 13t-20 43zM-104 799h210v-28h-210v28zM105 725v-28h-209v28h209z" />
    <glyph glyph-name="uniFC60" unicode="&#xfc60;" arabic-form="isolated" 
d="M-147 818h27q-2 -22 -2.5 -34t-1.5 -18.5t-1 -8.5v-3q0 -25 18 -30t41 -5q25 0 39 7t14 33v59h26v-59q0 -26 14 -33t39 -7q23 0 41 5t18 30v3t-1 8.5t-2 18.5t-2 34h27l6 -67q0 -32 -20 -43t-65 -13q-2 0 -11 0.5t-20.5 2.5t-22 6t-14.5 12q-5 -8 -15 -12t-21.5 -6
t-20.5 -2.5t-11 -0.5q-45 2 -65 13t-20 43zM-105 894h210v-27h-210v27z" />
    <glyph glyph-name="uniFC61" unicode="&#xfc61;" arabic-form="isolated" 
d="M-147 818h27q-2 -22 -2.5 -34t-1.5 -18.5t-1 -8.5v-3q0 -25 18 -30t41 -5q25 0 39 7t14 33v59h26v-59q0 -26 14 -33t39 -7q23 0 41 5t18 30v3t-1 8.5t-2 18.5t-2 34h27l6 -67q0 -32 -20 -43t-65 -13q-2 0 -11 0.5t-20.5 2.5t-22 6t-14.5 12q-5 -8 -15 -12t-21.5 -6
t-20.5 -2.5t-11 -0.5q-45 2 -65 13t-20 43zM-38 854q-17 0 -31.5 6t-28.5 15q-5 3 -5 8q0 4 4 8q3 2 6 4.5t5 4.5q3 2 6 3l3 -2q12 -8 21 -13t18 -5q17 0 30 8t19 13q-9 2 -18 6.5t-17 14.5q-13 16 -13 36q0 11 4 22t15 24q11 12 27 19.5t32 7.5q22 0 38 -13q25 -19 25 -45
q0 -17 -8.5 -30.5t-26.5 -29.5l-18 -16q-8 -7 -17.5 -14.5t-17.5 -12.5q-17 -12 -28.5 -15.5t-23.5 -3.5zM39 1007q-10 0 -19.5 -4t-17.5 -14q-11 -14 -11 -28q0 -6 1.5 -11t3.5 -7q12 -16 28 -16q8 0 14 3t10 6q14 12 19.5 21.5t5.5 16.5q0 8 -3.5 14t-8.5 11q-8 8 -22 8z
" />
    <glyph glyph-name="uniFC62" unicode="&#xfc62;" arabic-form="isolated" 
d="M-147 899h27q-2 -22 -2.5 -34t-1.5 -18.5t-1 -8.5v-3q0 -25 18 -30t41 -5q25 0 39 7t14 33v59h26v-59q0 -26 14 -33t39 -7q23 0 41 5t18 30v3t-1 8.5t-2 18.5t-2 34h27l6 -67q0 -32 -20 -43t-65 -13q-2 0 -11 0.5t-20.5 2.5t-22 6t-14.5 12q-5 -8 -15 -12t-21.5 -6
t-20.5 -2.5t-11 -0.5q-45 2 -65 13t-20 43zM-107 726h210v-27h-210v27z" />
    <glyph glyph-name="uniFC63" unicode="&#xfc63;" arabic-form="isolated" 
d="M-147 818h27q-2 -22 -2.5 -34t-1.5 -18.5t-1 -8.5v-3q0 -25 18 -30t41 -5q25 0 39 7t14 33v59h26v-59q0 -26 14 -33t39 -7q23 0 41 5t18 30v3t-1 8.5t-2 18.5t-2 34h27l6 -67q0 -32 -20 -43t-65 -13q-2 0 -11 0.5t-20.5 2.5t-22 6t-14.5 12q-5 -8 -15 -12t-21.5 -6
t-20.5 -2.5t-11 -0.5q-45 2 -65 13t-20 43zM-14 867v137h28v-137h-28z" />
    <glyph glyph-name="uniFDF2" unicode="&#xfdf2;" horiz-adv-x="1388" arabic-form="isolated" 
d="M1186 0v539q0 6 2 14t7 15t14.5 12t24.5 5h57v-585h-105zM729 633v108h29v-108h-29zM1049 585q-1 -87 -1 -168v-263q0 -44 -15 -73.5t-39 -48.5t-55 -27t-64 -8q-37 0 -62 6t-41 14q-18 9 -30 20q-11 -11 -26 -18.5t-32 -12.5t-34.5 -7.5t-33.5 -2.5q-54 0 -83 14t-38 22
q-8 -6 -36.5 -19t-85.5 -13h-139q-32 1 -71 11.5t-73 34.5t-57 63t-23 98q0 39 14 73.5t42 61t70 41.5t99 15q16 0 41 -2t50 -4.5l45 -4.5t25 -2q16 0 32.5 4t16.5 18h104v-265q0 -23 21 -33t49 -10q33 0 53 13.5t20 39.5v255h108v-257q0 -29 24 -40.5t51 -11.5t47 12.5
t20 43.5v22t-0.5 44.5t-0.5 59.5v66v175q0 31 9.5 47t39.5 16h34q11 0 25 1zM443 292q-26 -12 -62 -12q-29 0 -65.5 6t-65.5 6q-64 0 -101 -22t-37 -65q0 -21 7.5 -39.5t24.5 -33t45 -22.5t69 -8h120q40 0 52 18t12 58zM595 586h28l-0.5 -8.5t-1 -18t-1 -18.5t-0.5 -10
q0 -26 17 -32t47 -8q28 1 36 8.5t8 30.5v56h30v-56q0 -12 1.5 -19t6 -11.5t13.5 -6.5t23 -2q30 2 47 8t17 32q0 1 -0.5 10t-1 18.5t-1 18l-0.5 8.5h28l3 -51q0 -19 -4.5 -32t-15 -21.5t-28.5 -12t-46 -3.5q-14 0 -31.5 3t-25.5 18q-8 -15 -25.5 -18t-31.5 -3q-28 0 -46 3.5
t-28.5 12t-15 21.5t-4.5 32z" />
    <glyph glyph-name="uniFDFA" unicode="&#xfdfa;" horiz-adv-x="1057" arabic-form="isolated" 
d="M947 557q24 0 37 -12.5t13 -32.5q0 -16 -5.5 -25.5t-13 -15t-15.5 -7t-13 -1.5h-177q-14 0 -19 5q-3 3 -4 6q-1 -2 -5 -5q-8 -6 -23 -6h-54q-14 0 -19 5q-3 3 -4 6q-1 -2 -5 -5q-3 -2 -8.5 -4t-14.5 -2h-5h-11l1 -1q2 -2 3 -4q2 -6 2 -11q0 -15 -8 -24t-20 -14t-26 -6.5
t-26 -1.5q-42 0 -64.5 19t-22.5 50q0 5 0.5 9.5t1.5 9.5q2 9 3 10.5t5 1.5h4q4 0 4 -2q0 -1 -3 -8q-4 -11 -4 -22q0 -27 21 -42.5t50 -15.5h11q7 0 18 1t21.5 5t17.5 11t7 19q0 16 -23 16h-18q-5 0 -5.5 -2t-2.5 -2q-1 0 -1 3v5q0 5 14 5h23h28h6q16 0 18.5 7.5t2.5 11.5
q0 2 -0.5 18t-0.5 35v50q0 2 2 4q1 1 2 1h7v-114q0 -5 5 -9t12 -4h4h53q16 0 18.5 7.5t2.5 11.5v54q0 3 2 5q1 1 2 1h6v-66q0 -13 17 -13h173q26 0 34 13.5t8 24.5q0 21 -14 28.5t-24 7.5q-8 0 -16 -2.5t-14 -5.5l-14 -8l-72 -46v12q16 10 31 20q13 8 25 16l18 12
q18 12 41 13zM392 463h-11v131q0 2 2 4q1 1 3 1h6v-136zM683 191q0 -12 -13 -12q-5 0 -8.5 3.5t-3.5 8.5t3.5 8.5t8.5 3.5q13 0 13 -12zM718 191q0 -5 -3.5 -8.5t-8.5 -3.5q-14 0 -14 12t14 12q5 0 8.5 -3.5t3.5 -8.5zM995 239v-10h-68h-81q-13 0 -19 6q-3 3 -4 6
q-1 -3 -5 -6q-3 -2 -8.5 -4t-14.5 -2h-35h-25q-13 0 -19 6q-3 3 -4 6q-1 -3 -5 -6q-8 -6 -22 -6h-37h-20q-13 0 -19 6q-3 3 -4 6q-1 -3 -5 -6q-8 -6 -22 -6h-5h-31q-20 0 -35.5 12.5t-15.5 35.5q0 21 13 31.5t36 10.5h6q14 -1 21 -2t13 -1q4 0 12 1.5t8 6.5h10v-73
q0 -12 16 -12h7h52q13 0 17 3.5t5 8.5v60q0 5 4 5h7v-65q0 -12 15 -12h11h52q15 0 17.5 6t2.5 12v103q0 2 2 4q1 1 2 1h7v-114q0 -12 16 -12h23h54q-14 5 -18.5 17t-4.5 22q0 20 13 32.5t37 12.5q17 0 30.5 -7.5t17.5 -22.5q0 -2 0.5 -3t0.5 -3v-4q0 -4 -3 -4h-8q-2 0 -2 2
v2q0 1 0.5 1.5t0.5 1.5q0 9 -10 18t-28 9q-16 0 -27.5 -8t-11.5 -27q0 -20 15.5 -29.5t29.5 -9.5h43zM600 310q-1 -1 -4 -2t-16 -1h-8q-10 1 -15.5 1.5t-14.5 0.5q-41 0 -41 -31v-4q1 -14 11.5 -24.5t29.5 -10.5h36q17 0 19.5 7t2.5 11v53zM450 229q0 -18 -5.5 -29.5
t-14.5 -18t-20.5 -9t-23.5 -2.5q-7 0 -7 3v9h13q22 0 34.5 10.5t12.5 36.5v6q-4 -5 -8.5 -5.5t-22.5 -0.5q-25 0 -34 6t-9 37q0 16 4 26t10.5 15.5t14 7.5t13.5 2h4q19 0 29 -12.5t10 -34.5v-47zM408 239q18 0 24 3t6 10v18q0 22 -6.5 32t-23.5 10q-32 0 -32 -39
q0 -13 1.5 -20t5.5 -10t10 -3.5t15 -0.5zM362 360q0 -2 -0.5 -3t-5.5 -1h-6h-45q-20 0 -20 -13q0 -5 5 -12h-7q-8 0 -8 11q0 23 33 23h48q6 0 6 1v-6zM330 229h-11v105q0 5 5 5h6v-110zM994 -7q0 -36 -19.5 -48t-44.5 -12q-7 0 -7 4v9h13q21 0 34 10.5t13 36.5v5
q-3 -4 -8 -4.5t-22 -0.5q-13 0 -21.5 1t-13.5 5t-7 13t-2 24q0 32 14.5 41t28.5 10h4q38 0 38 -47v-47zM953 3q17 0 23 3t6 10v18q0 42 -29 42q-33 0 -33 -39q0 -25 6 -29.5t23 -4.5h4zM868 72v-23q0 -10 1 -21q0 -16 -8.5 -26t-26.5 -10q-11 0 -16.5 2.5t-8.5 5.5
q-4 4 -5 8q-2 -4 -6 -8q-4 -3 -10 -5.5t-16 -2.5q-11 0 -16.5 2.5t-8.5 5.5q-4 4 -5 8q-2 -4 -5 -8q-6 -8 -17 -8h-396q-14 0 -20 6q-4 3 -4 6q-1 -3 -5 -6q-3 -2 -8.5 -4t-14.5 -2h-28h-15q-8 0 -15.5 3.5t-12.5 12.5q-13 -16 -38 -16h-72q-3 0 -6 -2q-5 -3 -5 -11v-48h-11
v50q0 6 3 10q2 4 7 7.5t15 3.5h34q-13 10 -13 28q0 7 3.5 12.5t7.5 9.5t10 8l16 10q-8 5 -8 7t4 2h9l36 -24q10 -6 12.5 -12.5t2.5 -11.5v-4v-4q0 -12 9 -16.5t18 -4.5h38q16 0 18.5 8t2.5 10t-0.5 18.5t-0.5 35.5v50q0 3 2 5q1 1 2 1h8v-116q0 -5 5 -8t11 -4h129h268
q11 0 15 6t5 12v60h11v-55q0 -4 3 -13.5t20 -9.5q11 0 16.5 3t7.5 7q3 4 3 11v58h11v-58q0 -7 3 -11q2 -4 7 -7t14 -3q15 0 19.5 10.5t3.5 10.5v51q0 4 1.5 5t9.5 1v-8zM161 2q17 0 27 8t10 19q0 10 -12 18l-21 14q-4 2 -5 3q-2 -1 -5 -3q-2 -2 -6.5 -4.5t-9.5 -5.5l-8 -8
t-6 -15q0 -11 10 -18.5t26 -7.5zM940 611v-7l-46 -23v7zM957 375v-8l-46 -23v7zM969 143v-7l-46 -24v7zM429 375v-8l-46 -23v7zM261 251q-1 -5 -6 -14t-26 -9h-44q-14 0 -19.5 6t-4.5 5q0 -2 -9 -6.5t-26 -4.5h-22q-24 0 -38 12t-14 30q0 21 13.5 33t33.5 12h4l14 -1
q8 -1 13 -1.5t9 -0.5q11 0 12 2.5l3 7.5h11v-71q0 -13 17 -13h47q16 0 18.5 7.5t2.5 10.5v104q0 3 1 4t2 1h8v-114zM154 308q-3 -7 -15 -7q-4 0 -8.5 0.5t-9.5 1.5t-9 1.5t-9 0.5q-18 0 -29 -9t-11 -26q0 -14 11 -22.5t31 -9.5h26q17 0 20 7.5t3 10.5v52zM337 485
q0 -8 -7 -15t-24 -7h-9h-25q-14 0 -19 5q-3 3 -4 6q-1 -2 -5 -5q-8 -6 -22 -6h-33q-15 0 -20 5q-4 3 -4 6q-1 -2 -5 -5q-8 -6 -24 -6h-5h-22q-18 0 -35 10.5t-17 32.5q0 21 14.5 31.5t36.5 10.5h8q9 -1 15.5 -1.5t11.5 -0.5q11 0 12.5 2.5t3.5 7.5h10v-71q0 -5 5 -9t13 -4
h35q17 0 19 7.5t3 11.5v66h10v-73q0 -5 5 -8.5t11 -3.5h13h22q17 0 19.5 7.5t2.5 11.5q0 2 -0.5 18t-0.5 35v50q0 2 2 4q1 1 2 1h7v-114zM159 542q-3 -7 -18 -7q-10 0 -15 1t-9 1h-9q-18 0 -29 -6.5t-11 -22.5v-4q1 -14 11.5 -22.5t30.5 -9.5h26q17 0 20 7.5t3 11.5v51z
M247 597h5v-8q0 -6 7 -6q4 0 6 2q1 1 1 5l-1 7h5l1 -9q0 -5 -1 -6q-3 -4 -11 -4q-6 0 -10 3q-5 -3 -9 -3q-8 0 -11 4q-1 1 -1 6l1 9h5l-1 -7q0 -4 1 -5q2 -2 6 -2q7 0 7 6v8z" />
    <glyph glyph-name="uniFE82" unicode="&#x622;" horiz-adv-x="358" arabic-form="final" 
d="M402 102v-102h-211q-50 0 -68 27t-18 72v438q0 31 10.5 39.5t39.5 8.5h56v-445q0 -25 3.5 -31.5t25.5 -6.5h162zM51 610q-10 1 -13 7q-6 10 -6 26q0 13 5 26q10 20 30 25.5t44 5.5h164q4 0 5 1l2 2q2 0 2 -6v-19q0 -2 -2 -5t-12 -3h-165q-13 0 -29 -6t-16 -23
q0 -9 3 -14.5t6 -9.5l3 -3t2 -3t-5 -1h-18z" />
    <glyph glyph-name="uniFE84" unicode="&#x623;" horiz-adv-x="339" arabic-form="final" 
d="M384 102v-102h-211q-50 0 -68 27t-18 72v438q0 31 10.5 39.5t39.5 8.5h56v-445q0 -25 3.5 -31.5t25.5 -6.5h162zM90 698q-11 8 -17 22.5t-6 27.5q2 38 33 55q11 5 20 6t14 2h67q9 0 13 4q1 1 1 1.5t1 1.5q0 1 1 1l27 -24q-3 -7 -7 -9q-5 -4 -12 -4.5t-13 -0.5h-75
q-38 -3 -38 -35q0 -23 14.5 -35.5t37.5 -12.5h94v-27h-209v27h54z" />
    <glyph glyph-name="uniFE86" unicode="&#x624;" horiz-adv-x="623" arabic-form="final" 
d="M286 0q-63 0 -106 11t-69.5 33.5t-38 57.5t-11.5 84v12q1 49 18 88.5t46.5 66.5t71 41.5t92.5 14.5q45 0 81 -17t61.5 -47.5t39.5 -72t14 -90.5v-80h202v-102h-202q-1 -78 -22 -128t-59.5 -79t-93.5 -40t-124 -11q-16 0 -26.5 1t-16.5 4.5t-8.5 11.5t-2.5 23v9t-0.5 18.5
t-0.5 21v15.5q0 4 3 6h1l2 1q1 0 7 -2q5 -2 14 -3t19.5 -2t20.5 -1.5t17 -0.5q28 0 56 5.5t50.5 22t36.5 47.5t14 81h-86zM372 134q0 16 0.5 32.5t0.5 33.5q0 21 -6 40t-17.5 33.5t-28.5 23.5t-39 9q-58 0 -86 -29t-28 -79q0 -30 4 -49t15.5 -29.5t33 -14t56.5 -3.5h95v32z
M222 539q-11 8 -17 22.5t-6 27.5q2 38 33 55q11 5 20 6t14 2h67q9 0 13 4q1 1 1 1.5t1 1.5q0 1 1 1l27 -24q-3 -7 -7 -9q-5 -4 -12 -4.5t-13 -0.5h-75q-38 -3 -38 -35q0 -23 14.5 -35.5t37.5 -12.5h94v-27h-209v27h54z" />
    <glyph glyph-name="uniFE88" unicode="&#x625;" horiz-adv-x="339" arabic-form="final" 
d="M384 102v-102h-211q-50 0 -68 27t-18 72v438q0 31 10.5 39.5t39.5 8.5h56v-445q0 -25 3.5 -31.5t25.5 -6.5h162zM106 -228q-11 8 -17 22.5t-6 27.5q2 38 33 55q11 5 20 6t14 2h67q9 0 13 4q1 1 1 1.5t1 1.5q0 1 1 1l27 -24q-3 -7 -7 -9q-5 -4 -12 -4.5t-13 -0.5h-75
q-38 -3 -38 -35q0 -23 14.5 -35.5t37.5 -12.5h94v-27h-209v27h54z" />
    <glyph glyph-name="uniFE8A" unicode="&#x626;" horiz-adv-x="781" arabic-form="final" 
d="M845 0h-148q13 0 19.5 -16.5t6.5 -34.5q0 -28 -10.5 -52.5t-28 -45t-39.5 -37t-45 -27.5q-53 -26 -118 -35.5t-136 -9.5q-35 0 -71.5 4.5t-71.5 16t-66.5 30t-56.5 46.5q-33 37 -49 93t-16 114q0 23 2.5 46t7.5 44q5 19 13 29.5t31 12.5l68 5q6 0 7 -1q2 -2 2 -5
q0 -4 -2.5 -8.5t-3.5 -7.5q-11 -25 -16 -53t-5 -56q0 -38 9.5 -72.5t29.5 -60.5q32 -41 83 -58t108 -17q72 0 120 9t78 23q68 31 68 80q0 14 -7 23t-18.5 13.5t-27 6t-33.5 1.5q-22 0 -42.5 -1.5t-24.5 -6.5q-3 -5 -5 -5q-3 0 -3 2v2v71q0 21 17 30.5t38 9.5h336v-102z
M86 382q-11 8 -17 22.5t-6 27.5q2 38 33 55q11 5 20 6t14 2h67q9 0 13 4q1 1 1 1.5t1 1.5q0 1 1 1l27 -24q-3 -7 -7 -9q-5 -4 -12 -4.5t-13 -0.5h-75q-38 -3 -38 -35q0 -23 14.5 -35.5t37.5 -12.5h94v-27h-209v27h54z" />
    <glyph glyph-name="uniFE8B" unicode="&#x626;" horiz-adv-x="421" arabic-form="initial" 
d="M-79 0v102h234q32 0 47 10.5t15 48.5v167q0 26 10 39t36 13h59v-246q0 -39 -10.5 -65t-30.5 -41t-50 -21.5t-70 -6.5h-240zM227 543q-11 8 -17 22.5t-6 27.5q2 38 33 55q11 5 20 6t14 2h67q9 0 13 4q1 1 1 1.5t1 1.5q0 1 1 1l27 -24q-3 -7 -7 -9q-5 -4 -12 -4.5t-13 -0.5
h-75q-38 -3 -38 -35q0 -23 14.5 -35.5t37.5 -12.5h94v-27h-209v27h54z" />
    <glyph glyph-name="uniFE8C" unicode="&#x626;" horiz-adv-x="470" arabic-form="medial" 
d="M-75 1v102h234q32 0 47 10.5t15 48.5v167q0 26 10 39t36 13h59v-250q2 -18 13.5 -23t34.5 -5h165v-102h-191q-18 0 -32 5t-25 12q-12 7 -21 17q-4 -4 -10.5 -9.5t-17 -11t-26 -9.5t-36.5 -4h-255zM223 543q-11 8 -17 22.5t-6 27.5q2 38 33 55q11 5 20 6t14 2h67q9 0 13 4
q1 1 1 1.5t1 1.5q0 1 1 1l27 -24q-3 -7 -7 -9q-5 -4 -12 -4.5t-13 -0.5h-75q-38 -3 -38 -35q0 -23 14.5 -35.5t37.5 -12.5h94v-27h-209v27h54z" />
    <glyph glyph-name="uniFE8E" unicode="&#x627;" horiz-adv-x="340" arabic-form="final" 
d="M384 102v-102h-211q-50 0 -68 27t-18 72v438q0 31 10.5 39.5t39.5 8.5h56v-445q0 -25 3.5 -31.5t25.5 -6.5h162z" />
    <glyph glyph-name="uniFE90" unicode="&#x628;" horiz-adv-x="1086" arabic-form="final" 
d="M180 0q-81 0 -126.5 36.5t-47.5 115.5q1 19 1.5 36t5.5 37q3 18 13 28.5t30 13.5q5 1 20.5 1.5t52.5 2.5q9 0 11 -3t-0.5 -7.5t-6.5 -11.5q-6 -11 -10.5 -24t-6.5 -26q-2 -11 -2.5 -27t-0.5 -22q0 -29 16 -38.5t46 -9.5h596q32 0 47 10.5t15 48.5v167q0 26 10 39t36 13
h59v-250q2 -18 13.5 -23t34.5 -5h165v-102h-191q-18 0 -32 5t-25 12q-12 7 -21 17q-4 -4 -10.5 -9.5t-17 -11t-26 -9.5t-36.5 -4h-612zM532 -188q0 -22 -15 -37.5t-37 -15.5t-37.5 15.5t-15.5 37.5q0 21 15.5 36.5t37.5 15.5t37 -15.5t15 -36.5z" />
    <glyph glyph-name="uniFE91" unicode="&#x628;" horiz-adv-x="421" arabic-form="initial" 
d="M-79 0v102h234q32 0 47 10.5t15 48.5v167q0 26 10 39t36 13h59v-246q0 -39 -10.5 -65t-30.5 -41t-50 -21.5t-70 -6.5h-240zM331 -183q0 -22 -15 -37.5t-37 -15.5t-37.5 15.5t-15.5 37.5q0 21 15.5 36.5t37.5 15.5t37 -15.5t15 -36.5z" />
    <glyph glyph-name="uniFE92" unicode="&#x628;" horiz-adv-x="470" arabic-form="medial" 
d="M-77 0v102h234q32 0 47 10.5t15 48.5v167q0 26 10 39t36 13h59v-250q2 -18 13.5 -23t34.5 -5h165v-102h-191q-18 0 -32 5t-25 12q-12 7 -21 17q-4 -4 -10.5 -9.5t-17 -11t-26 -9.5t-36.5 -4h-255zM330 -184q0 -22 -15 -37.5t-37 -15.5t-37.5 15.5t-15.5 37.5
q0 21 15.5 36.5t37.5 15.5t37 -15.5t15 -36.5z" />
    <glyph glyph-name="uniFE94" unicode="&#x629;" horiz-adv-x="693" arabic-form="final" 
d="M764 102v-102h-159q-28 0 -48 4.5t-33.5 10.5t-20.5 11.5t-9 7.5q-2 -2 -9.5 -7.5t-22 -11.5t-37.5 -10.5t-54 -4.5h-140q-32 0 -71 6t-73 24.5t-57 53.5t-23 94q0 48 12.5 85.5t42 63.5t78 39.5t119.5 13.5q47 0 86 -10t65 -10q11 0 21 2.5t10 17.5h105v-241
q0 -23 11.5 -29.5t34.5 -7.5h172zM374 102q20 0 33 2.5t20.5 9.5t10 19.5t2.5 32.5v108q-11 -10 -36 -10q-17 0 -38 2.5t-44 6t-47 6t-46 2.5q-35 0 -57.5 -8.5t-35.5 -22.5t-18 -32t-5 -37q0 -42 34.5 -60.5t107.5 -18.5h119zM272 569q0 -22 -15 -37.5t-37 -15.5t-37 15.5
t-15 37.5t15 37.5t37 15.5t37 -15.5t15 -37.5zM418 569q0 -22 -15 -37.5t-37 -15.5t-37.5 15.5t-15.5 37.5t15.5 37.5t37.5 15.5t37 -15.5t15 -37.5z" />
    <glyph glyph-name="uniFE96" unicode="&#x62a;" horiz-adv-x="1086" arabic-form="final" 
d="M180 0q-81 0 -126.5 36.5t-47.5 115.5q1 19 1.5 36t5.5 37q3 18 13 28.5t30 13.5q5 1 20.5 1.5t52.5 2.5q9 0 11 -3t-0.5 -7.5t-6.5 -11.5q-6 -11 -10.5 -24t-6.5 -26q-2 -11 -2.5 -27t-0.5 -22q0 -29 16 -38.5t46 -9.5h596q32 0 47 10.5t15 48.5v167q0 26 10 39t36 13
h59v-250q2 -18 13.5 -23t34.5 -5h165v-102h-191q-18 0 -32 5t-25 12q-12 7 -21 17q-4 -4 -10.5 -9.5t-17 -11t-26 -9.5t-36.5 -4h-612zM459 333q0 -22 -15 -37.5t-37 -15.5t-37 15.5t-15 37.5t15 37.5t37 15.5t37 -15.5t15 -37.5zM605 333q0 -22 -15 -37.5t-37 -15.5
t-37.5 15.5t-15.5 37.5t15.5 37.5t37.5 15.5t37 -15.5t15 -37.5z" />
    <glyph glyph-name="uniFE97" unicode="&#x62a;" horiz-adv-x="416" arabic-form="initial" 
d="M-83 0v102h234q32 0 47 10.5t15 48.5v167q0 26 10 39t36 13h59v-246q0 -39 -10.5 -65t-30.5 -41t-50 -21.5t-70 -6.5h-240zM247 569q0 -22 -15 -37.5t-37 -15.5t-37 15.5t-15 37.5t15 37.5t37 15.5t37 -15.5t15 -37.5zM393 569q0 -22 -15 -37.5t-37 -15.5t-37.5 15.5
t-15.5 37.5t15.5 37.5t37.5 15.5t37 -15.5t15 -37.5z" />
    <glyph glyph-name="uniFE98" unicode="&#x62a;" horiz-adv-x="470" arabic-form="medial" 
d="M-75 0v102h234q32 0 47 10.5t15 48.5v167q0 26 10 39t36 13h59v-250q2 -18 13.5 -23t34.5 -5h165v-102h-191q-18 0 -32 5t-25 12q-12 7 -21 17q-4 -4 -10.5 -9.5t-17 -11t-26 -9.5t-36.5 -4h-255zM251 569q0 -22 -15 -37.5t-37 -15.5t-37 15.5t-15 37.5t15 37.5t37 15.5
t37 -15.5t15 -37.5zM397 569q0 -22 -15 -37.5t-37 -15.5t-37.5 15.5t-15.5 37.5t15.5 37.5t37.5 15.5t37 -15.5t15 -37.5z" />
    <glyph glyph-name="uniFE9A" unicode="&#x62b;" horiz-adv-x="1086" arabic-form="final" 
d="M180 0q-81 0 -126.5 36.5t-47.5 115.5q1 19 1.5 36t5.5 37q3 18 13 28.5t30 13.5q5 1 20.5 1.5t52.5 2.5q9 0 11 -3t-0.5 -7.5t-6.5 -11.5q-6 -11 -10.5 -24t-6.5 -26q-2 -11 -2.5 -27t-0.5 -22q0 -29 16 -38.5t46 -9.5h596q32 0 47 10.5t15 48.5v167q0 26 10 39t36 13
h59v-250q2 -18 13.5 -23t34.5 -5h165v-102h-191q-18 0 -32 5t-25 12q-12 7 -21 17q-4 -4 -10.5 -9.5t-17 -11t-26 -9.5t-36.5 -4h-612zM531 448q0 -21 -15.5 -36.5t-37.5 -15.5q-21 0 -36.5 15.5t-15.5 36.5q0 23 15.5 38t36.5 15q22 0 37.5 -15t15.5 -38zM457 326
q0 -22 -15 -37t-37 -15t-37 15t-15 37t15 37.5t37 15.5t37 -15.5t15 -37.5zM603 326q0 -22 -15 -37t-37 -15t-37.5 15t-15.5 37t15.5 37.5t37.5 15.5t37 -15.5t15 -37.5z" />
    <glyph glyph-name="uniFE9B" unicode="&#x62b;" horiz-adv-x="421" arabic-form="initial" 
d="M-79 0v102h234q32 0 47 10.5t15 48.5v167q0 26 10 39t36 13h59v-246q0 -39 -10.5 -65t-30.5 -41t-50 -21.5t-70 -6.5h-240zM324 691q0 -21 -15.5 -36.5t-37.5 -15.5q-21 0 -36.5 15.5t-15.5 36.5q0 23 15.5 38t36.5 15q22 0 37.5 -15t15.5 -38zM250 569q0 -22 -15 -37
t-37 -15t-37 15t-15 37t15 37.5t37 15.5t37 -15.5t15 -37.5zM396 569q0 -22 -15 -37t-37 -15t-37.5 15t-15.5 37t15.5 37.5t37.5 15.5t37 -15.5t15 -37.5z" />
    <glyph glyph-name="uniFE9C" unicode="&#x62b;" horiz-adv-x="470" arabic-form="medial" 
d="M-75 0v102h234q32 0 47 10.5t15 48.5v167q0 26 10 39t36 13h59v-250q2 -18 13.5 -23t34.5 -5h165v-102h-191q-18 0 -32 5t-25 12q-12 7 -21 17q-4 -4 -10.5 -9.5t-17 -11t-26 -9.5t-36.5 -4h-255zM324 690q0 -21 -15.5 -36.5t-37.5 -15.5q-21 0 -36.5 15.5t-15.5 36.5
q0 23 15.5 38t36.5 15q22 0 37.5 -15t15.5 -38zM250 568q0 -22 -15 -37t-37 -15t-37 15t-15 37t15 37.5t37 15.5t37 -15.5t15 -37.5zM396 568q0 -22 -15 -37t-37 -15t-37.5 15t-15.5 37t15.5 37.5t37.5 15.5t37 -15.5t15 -37.5z" />
    <glyph glyph-name="uniFE9E" unicode="&#x62c;" horiz-adv-x="963" arabic-form="final" 
d="M781 280q11 -11 20 -27q8 -14 14 -34.5t6 -46.5q0 -6 -0.5 -12.5t-1.5 -17.5q0 -5 1 -11.5t5.5 -13t13 -11t22.5 -4.5h171v-102h-136q-25 0 -43.5 2t-33.5 6.5t-28 13t-27 22.5q-4 -3 -7 -6t-7 -5q-24 -17 -56.5 -25t-70.5 -8h-457q-31 0 -40.5 -12.5t-9.5 -27.5
q0 -23 9 -47.5t20 -44.5q18 -33 43 -60t51 -45q19 -14 19 -18q0 -3 -7 -3h-116q-5 0 -12 0.5t-15 3.5q-5 2 -9 5.5t-9 8.5q-37 43 -59 92t-22 103q0 55 29 92q12 15 26 25.5t33 17t45.5 9.5t62.5 3h419q41 0 66 24t25 67q0 40 -26 62.5t-63 22.5h-382q-23 0 -40 -2t-26 -13
q-7 -8 -7 -22q0 -10 3 -20q4 -14 9.5 -25.5t5.5 -15.5q-1 -2 -10 -2h-64q-25 0 -37 16q-5 8 -8 24t-3 33q0 68 41 98.5t106 30.5h564q11 0 16 1.5t7 4t3 4t4 1.5q2 0 4 -4q2 -6 2 -15v-56q0 -20 -9 -27q-5 -5 -12 -6.5t-12 -2.5zM479.609 -182.399
q0 -19.7119 -13.5293 -33.5996t-33.373 -13.8877t-33.8242 13.8877t-13.9805 33.5996q0 18.8154 13.9805 32.7041q13.9805 13.8877 33.8242 13.8877t33.373 -13.8877q13.5293 -13.8887 13.5293 -32.7041z" />
    <glyph glyph-name="uniFE9F" unicode="&#x62c;" horiz-adv-x="1021" arabic-form="initial" 
d="M888 280q11 -11 20 -27q8 -14 14 -34.5t6 -46.5q0 -6 -0.5 -12t-1.5 -13q-5 -43 -22.5 -68.5t-46.5 -45.5q-24 -17 -56.5 -25t-70.5 -8h-795v102h796q41 0 66 24t25 67q0 40 -26 62.5t-63 22.5h-382q-23 0 -40 -2t-26 -13q-7 -8 -7 -22q0 -10 3 -20q4 -14 9.5 -25.5
t5.5 -15.5q-1 -2 -10 -2h-64q-25 0 -37 16q-5 8 -8 24t-3 33q0 68 41 98.5t106 30.5h564q11 0 16 1.5t7 4t3 4t4 1.5q2 0 4 -4q2 -6 2 -15v-56q0 -20 -9 -27q-5 -5 -12 -6.5t-12 -2.5zM590 -188q0 -22 -15 -37.5t-37 -15.5t-37.5 15.5t-15.5 37.5q0 21 15.5 36.5t37.5 15.5
t37 -15.5t15 -36.5z" />
    <glyph glyph-name="uniFEA0" unicode="&#x62c;" horiz-adv-x="1070" arabic-form="medial" 
d="M887 280q11 -11 20 -27q8 -14 14 -34.5t6 -46.5q0 -6 -0.5 -12.5t-1.5 -17.5q0 -5 1 -11.5t5.5 -13t13 -11t22.5 -4.5h171v-102h-136q-25 0 -43.5 2t-33.5 6.5t-28 13t-27 22.5q-4 -3 -7 -6t-7 -5q-24 -17 -56.5 -25t-70.5 -8h-789v102h790q41 0 66 24t25 67
q0 40 -26 62.5t-63 22.5h-382q-23 0 -40 -2t-26 -13q-7 -8 -7 -22q0 -10 3 -20q4 -14 9.5 -25.5t5.5 -15.5q-1 -2 -10 -2h-64q-25 0 -37 16q-5 8 -8 24t-3 33q0 68 41 98.5t106 30.5h564q11 0 16 1.5t7 4t3 4t4 1.5q2 0 4 -4q2 -6 2 -15v-56q0 -20 -9 -27q-5 -5 -12 -6.5
t-12 -2.5zM588 -188q0 -22 -15 -37.5t-37 -15.5t-37.5 15.5t-15.5 37.5q0 21 15.5 36.5t37.5 15.5t37 -15.5t15 -36.5z" />
    <glyph glyph-name="uniFEA2" unicode="&#x62d;" horiz-adv-x="960" arabic-form="final" 
d="M781 280q11 -11 20 -27q8 -14 14 -34.5t6 -46.5q0 -6 -0.5 -12.5t-1.5 -17.5q0 -5 1 -11.5t5.5 -13t13 -11t22.5 -4.5h171v-102h-136q-25 0 -43.5 2t-33.5 6.5t-28 13t-27 22.5q-4 -3 -7 -6t-7 -5q-24 -17 -56.5 -25t-70.5 -8h-457q-31 0 -40.5 -12.5t-9.5 -27.5
q0 -23 9 -47.5t20 -44.5q18 -33 43 -60t51 -45q19 -14 19 -18q0 -3 -7 -3h-116q-5 0 -12 0.5t-15 3.5q-5 2 -9 5.5t-9 8.5q-37 43 -59 92t-22 103q0 55 29 92q12 15 26 25.5t33 17t45.5 9.5t62.5 3h419q41 0 66 24t25 67q0 40 -26 62.5t-63 22.5h-382q-23 0 -40 -2t-26 -13
q-7 -8 -7 -22q0 -10 3 -20q4 -14 9.5 -25.5t5.5 -15.5q-1 -2 -10 -2h-64q-25 0 -37 16q-5 8 -8 24t-3 33q0 68 41 98.5t106 30.5h564q11 0 16 1.5t7 4t3 4t4 1.5q2 0 4 -4q2 -6 2 -15v-56q0 -20 -9 -27q-5 -5 -12 -6.5t-12 -2.5z" />
    <glyph glyph-name="uniFEA3" unicode="&#x62d;" horiz-adv-x="1025" arabic-form="initial" 
d="M888 280q11 -11 20 -27q8 -14 14 -34.5t6 -46.5q0 -6 -0.5 -12t-1.5 -13q-5 -43 -22.5 -68.5t-46.5 -45.5q-24 -17 -56.5 -25t-70.5 -8h-795v102h796q41 0 66 24t25 67q0 40 -26 62.5t-63 22.5h-382q-23 0 -40 -2t-26 -13q-7 -8 -7 -22q0 -10 3 -20q4 -14 9.5 -25.5
t5.5 -15.5q-1 -2 -10 -2h-64q-25 0 -37 16q-5 8 -8 24t-3 33q0 68 41 98.5t106 30.5h564q11 0 16 1.5t7 4t3 4t4 1.5q2 0 4 -4q2 -6 2 -15v-56q0 -20 -9 -27q-5 -5 -12 -6.5t-12 -2.5z" />
    <glyph glyph-name="uniFEA4" unicode="&#x62d;" horiz-adv-x="1072" arabic-form="medial" 
d="M887 280q11 -11 20 -27q8 -14 14 -34.5t6 -46.5q0 -6 -0.5 -12.5t-1.5 -17.5q0 -5 1 -11.5t5.5 -13t13 -11t22.5 -4.5h171v-102h-136q-25 0 -43.5 2t-33.5 6.5t-28 13t-27 22.5q-4 -3 -7 -6t-7 -5q-24 -17 -56.5 -25t-70.5 -8h-789v102h790q41 0 66 24t25 67
q0 40 -26 62.5t-63 22.5h-382q-23 0 -40 -2t-26 -13q-7 -8 -7 -22q0 -10 3 -20q4 -14 9.5 -25.5t5.5 -15.5q-1 -2 -10 -2h-64q-25 0 -37 16q-5 8 -8 24t-3 33q0 68 41 98.5t106 30.5h564q11 0 16 1.5t7 4t3 4t4 1.5q2 0 4 -4q2 -6 2 -15v-56q0 -20 -9 -27q-5 -5 -12 -6.5
t-12 -2.5z" />
    <glyph glyph-name="uniFEA6" unicode="&#x62e;" horiz-adv-x="960" arabic-form="final" 
d="M781 280q11 -11 20 -27q8 -14 14 -34.5t6 -46.5q0 -6 -0.5 -12.5t-1.5 -17.5q0 -5 1 -11.5t5.5 -13t13 -11t22.5 -4.5h171v-102h-136q-25 0 -43.5 2t-33.5 6.5t-28 13t-27 22.5q-4 -3 -7 -6t-7 -5q-24 -17 -56.5 -25t-70.5 -8h-457q-31 0 -40.5 -12.5t-9.5 -27.5
q0 -23 9 -47.5t20 -44.5q18 -33 43 -60t51 -45q19 -14 19 -18q0 -3 -7 -3h-116q-5 0 -12 0.5t-15 3.5q-5 2 -9 5.5t-9 8.5q-37 43 -59 92t-22 103q0 55 29 92q12 15 26 25.5t33 17t45.5 9.5t62.5 3h419q41 0 66 24t25 67q0 40 -26 62.5t-63 22.5h-382q-23 0 -40 -2t-26 -13
q-7 -8 -7 -22q0 -10 3 -20q4 -14 9.5 -25.5t5.5 -15.5q-1 -2 -10 -2h-64q-25 0 -37 16q-5 8 -8 24t-3 33q0 68 41 98.5t106 30.5h564q11 0 16 1.5t7 4t3 4t4 1.5q2 0 4 -4q2 -6 2 -15v-56q0 -20 -9 -27q-5 -5 -12 -6.5t-12 -2.5zM376 564q0 23 15 38t37 15t37.5 -15
t15.5 -38q0 -21 -15.5 -36.5t-37.5 -15.5t-37 15.5t-15 36.5z" />
    <glyph glyph-name="uniFEA7" unicode="&#x62e;" horiz-adv-x="1021" arabic-form="initial" 
d="M888 280q11 -11 20 -27q8 -14 14 -34.5t6 -46.5q0 -6 -0.5 -12t-1.5 -13q-5 -43 -22.5 -68.5t-46.5 -45.5q-24 -17 -56.5 -25t-70.5 -8h-795v102h796q41 0 66 24t25 67q0 40 -26 62.5t-63 22.5h-382q-23 0 -40 -2t-26 -13q-7 -8 -7 -22q0 -10 3 -20q4 -14 9.5 -25.5
t5.5 -15.5q-1 -2 -10 -2h-64q-25 0 -37 16q-5 8 -8 24t-3 33q0 68 41 98.5t106 30.5h564q11 0 16 1.5t7 4t3 4t4 1.5q2 0 4 -4q2 -6 2 -15v-56q0 -20 -9 -27q-5 -5 -12 -6.5t-12 -2.5zM489 569q0 23 15 38t37 15t37.5 -15t15.5 -38q0 -21 -15.5 -36.5t-37.5 -15.5t-37 15.5
t-15 36.5z" />
    <glyph glyph-name="uniFEA8" unicode="&#x62e;" horiz-adv-x="1065" arabic-form="medial" 
d="M883 280q11 -11 20 -27q8 -14 14 -34.5t6 -46.5q0 -6 -0.5 -12.5t-1.5 -17.5q0 -5 1 -11.5t5.5 -13t13 -11t22.5 -4.5h171v-102h-136q-25 0 -43.5 2t-33.5 6.5t-28 13t-27 22.5q-4 -3 -7 -6t-7 -5q-24 -17 -56.5 -25t-70.5 -8h-789v102h790q41 0 66 24t25 67
q0 40 -26 62.5t-63 22.5h-382q-23 0 -40 -2t-26 -13q-7 -8 -7 -22q0 -10 3 -20q4 -14 9.5 -25.5t5.5 -15.5q-1 -2 -10 -2h-64q-25 0 -37 16q-5 8 -8 24t-3 33q0 68 41 98.5t106 30.5h564q11 0 16 1.5t7 4t3 4t4 1.5q2 0 4 -4q2 -6 2 -15v-56q0 -20 -9 -27q-5 -5 -12 -6.5
t-12 -2.5zM491 566q0 23 15 38t37 15t37.5 -15t15.5 -38q0 -21 -15.5 -36.5t-37.5 -15.5t-37 15.5t-15 36.5z" />
    <glyph glyph-name="uniFEAA" unicode="&#x62f;" horiz-adv-x="652" arabic-form="final" 
d="M331 380q52 0 89 -17t61 -43q26 -28 37 -61t11 -62q0 -39 -9 -69q-3 -13 6 -20q7 -5 17.5 -5t23.5 -1h132v-102h-108q-26 0 -45.5 6t-33.5 16q-11 8 -19 17t-13 17q-23 -23 -50 -35q-25 -12 -50.5 -16.5t-46.5 -4.5h-245q-17 0 -24 10q-5 8 -5 24v68h273q6 0 16 1t21.5 5
t22.5 12t19 22q5 10 8.5 20t3.5 27q0 26 -10.5 42.5t-25.5 27.5q-15 10 -31.5 14t-31.5 4h-68q-28 0 -57.5 0.5t-49.5 0.5q-15 0 -23 7q-9 7 -9 27v51q0 26 3 28q2 1 8 -3q5 -4 12 -6t31 -2h160v0z" />
    <glyph glyph-name="uniFEAC" unicode="&#x630;" horiz-adv-x="623" arabic-form="final" 
d="M332 380q52 0 89 -17t61 -43q26 -28 37 -61t11 -62q0 -39 -9 -69q-3 -13 6 -20q7 -5 17.5 -5t23.5 -1h132v-102h-108q-26 0 -45.5 6t-33.5 16q-11 8 -19 17t-13 17q-23 -23 -50 -35q-25 -12 -50.5 -16.5t-46.5 -4.5h-245q-17 0 -24 10q-5 8 -5 24v68h273q6 0 16 1t21.5 5
t22.5 12t19 22q5 10 8.5 20t3.5 27q0 26 -10.5 42.5t-25.5 27.5q-15 10 -31.5 14t-31.5 4h-68q-28 0 -57.5 0.5t-49.5 0.5q-15 0 -23 7q-9 7 -9 27v51q0 26 3 28q2 1 8 -3q5 -4 12 -6t31 -2h160v0zM219 568q0 23 15 38t37 15t37.5 -15t15.5 -38q0 -21 -15.5 -36.5
t-37.5 -15.5t-37 15.5t-15 36.5z" />
    <glyph glyph-name="uniFEAE" unicode="&#x631;" horiz-adv-x="493" arabic-form="final" 
d="M346 137q1 -14 12.5 -24.5t37.5 -10.5h165v-102h-174q-11 0 -22.5 6t-17.5 16v-30q0 -41 -10.5 -77t-28.5 -65.5t-42 -50.5t-51 -31q-29 -11 -64.5 -18.5t-83.5 -7.5q-15 0 -26.5 0.5t-19 4.5t-11.5 12t-4 22v9t-0.5 18t-0.5 18v10t1 9.5t6 7.5q1 0 9 -2q11 -3 29.5 -4.5
t38.5 -1.5q73 2 113 42t40 108v5v13.5v31v57t-0.5 91.5t-0.5 135q0 29 11.5 40.5t34.5 11.5h59v-243z" />
    <glyph glyph-name="uniFEB0" unicode="&#x632;" horiz-adv-x="493" arabic-form="final" 
d="M346 137q1 -14 12.5 -24.5t37.5 -10.5h165v-102h-174q-11 0 -22.5 6t-17.5 16v-30q0 -41 -10.5 -77t-28.5 -65.5t-42 -50.5t-51 -31q-29 -11 -64.5 -18.5t-83.5 -7.5q-15 0 -26.5 0.5t-19 4.5t-11.5 12t-4 22v9t-0.5 18t-0.5 18v10t1 9.5t6 7.5q1 0 9 -2q11 -3 29.5 -4.5
t38.5 -1.5q73 2 113 42t40 108v5v13.5v31v57t-0.5 91.5t-0.5 135q0 29 11.5 40.5t34.5 11.5h59v-243zM243 568q0 23 15 38t37 15t37.5 -15t15.5 -38q0 -21 -15.5 -36.5t-37.5 -15.5t-37 15.5t-15 36.5z" />
    <glyph glyph-name="uniFEB2" unicode="&#x633;" horiz-adv-x="1402" arabic-form="final" 
d="M1256 140q4 -38 45 -38h161v-102h-145q-22 0 -38.5 6t-28 14t-18.5 16t-10 13q-23 -26 -56 -39.5t-74 -13.5q-87 0 -133 40q-22 -23 -50.5 -30t-60.5 -7q-26 0 -54 4.5t-46 21.5q-10 -57 -36.5 -104t-65.5 -83q-52 -47 -121.5 -71.5t-148.5 -24.5q-75 0 -128.5 13
t-91.5 33q-37 19 -63.5 49.5t-43.5 66t-25 73.5t-8 73q0 24 4 45.5t11 39.5q8 20 17.5 28.5t37.5 11.5q4 1 9 1h9.5t10.5 1l28 2q5 0 7 -2q1 -1 1 -5q0 -3 -4 -13.5t-8 -21.5q-8 -23 -13 -44.5t-5 -41.5q0 -45 18.5 -83t50.5 -65.5t76.5 -43t95.5 -15.5q137 0 210.5 69
t73.5 195v272h108v-227q2 -31 22.5 -43t50.5 -12q27 0 51 12t24 41v229h106v-231q0 -15 7 -25t18 -16t24.5 -8.5t26.5 -2.5q27 0 47 13t20 43q0 8 -0.5 36.5t-0.5 59.5v78q0 29 8 41t40 12h58v-240z" />
    <glyph glyph-name="uniFEB3" unicode="&#x633;" horiz-adv-x="930" arabic-form="initial" 
d="M408 -5q-4 0 -20.5 1.5t-37.5 5.5t-41 12t-30 22q-9 -10 -21 -18q-11 -7 -28 -12.5t-41 -5.5h-240v102h226q40 0 45 39v239h108v-227q2 -31 22.5 -43t50.5 -12q27 0 51 12t24 41v229h106v-231q0 -15 7 -25t18 -16t24.5 -8.5t26.5 -2.5q27 0 47 13t20 43q0 8 -0.5 36.5
t-0.5 59.5v78q0 29 8 41t40 12h58v-227q0 -39 -12.5 -68.5t-34.5 -49t-52 -29.5t-65 -10q-87 0 -133 40q-22 -23 -57.5 -32t-67.5 -9z" />
    <glyph glyph-name="uniFEB4" unicode="&#x633;" horiz-adv-x="977" arabic-form="medial" 
d="M400 -5q-4 0 -20.5 1.5t-37.5 5.5t-41 12t-30 22q-9 -10 -21 -18q-11 -7 -28 -12.5t-41 -5.5h-240v102h226q40 0 45 39v239h108v-227q2 -31 22.5 -43t50.5 -12q27 0 51 12t24 41v229h106v-231q0 -15 7 -25t18 -16t24.5 -8.5t26.5 -2.5q27 0 47 13t20 43q0 8 -0.5 36.5
t-0.5 59.5v78q0 29 8 41t40 12h58v-239q4 -39 45 -39h172v-102h-156q-20 0 -36.5 5t-29 12t-20.5 14.5t-12 13.5q-23 -25 -55.5 -37t-71.5 -12q-87 0 -133 40q-22 -23 -57.5 -32t-67.5 -9z" />
    <glyph glyph-name="uniFEB6" unicode="&#x634;" horiz-adv-x="1405" arabic-form="final" 
d="M1256 140q4 -38 45 -38h161v-102h-145q-22 0 -38.5 6t-28 14t-18.5 16t-10 13q-23 -26 -56 -39.5t-74 -13.5q-87 0 -133 40q-22 -23 -50.5 -30t-60.5 -7q-26 0 -54 4.5t-46 21.5q-10 -57 -36.5 -104t-65.5 -83q-52 -47 -121.5 -71.5t-148.5 -24.5q-75 0 -128.5 13
t-91.5 33q-37 19 -63.5 49.5t-43.5 66t-25 73.5t-8 73q0 24 4 45.5t11 39.5q8 20 17.5 28.5t37.5 11.5q4 1 9 1h9.5t10.5 1l28 2q5 0 7 -2q1 -1 1 -5q0 -3 -4 -13.5t-8 -21.5q-8 -23 -13 -44.5t-5 -41.5q0 -45 18.5 -83t50.5 -65.5t76.5 -43t95.5 -15.5q137 0 210.5 69
t73.5 195v272h108v-227q2 -31 22.5 -43t50.5 -12q27 0 51 12t24 41v229h106v-231q0 -15 7 -25t18 -16t24.5 -8.5t26.5 -2.5q27 0 47 13t20 43q0 8 -0.5 36.5t-0.5 59.5v78q0 29 8 41t40 12h58v-240zM1008 690q0 -21 -15.5 -36.5t-37.5 -15.5q-21 0 -36.5 15.5t-15.5 36.5
q0 23 15.5 38t36.5 15q22 0 37.5 -15t15.5 -38zM934 568q0 -22 -15 -37t-37 -15t-37 15t-15 37t15 37.5t37 15.5t37 -15.5t15 -37.5zM1080 568q0 -22 -15 -37t-37 -15t-37.5 15t-15.5 37t15.5 37.5t37.5 15.5t37 -15.5t15 -37.5z" />
    <glyph glyph-name="uniFEB7" unicode="&#x634;" horiz-adv-x="923" arabic-form="initial" 
d="M408 -5q-4 0 -20.5 1.5t-37.5 5.5t-41 12t-30 22q-9 -10 -21 -18q-11 -7 -28 -12.5t-41 -5.5h-240v102h226q40 0 45 39v239h108v-227q2 -31 22.5 -43t50.5 -12q27 0 51 12t24 41v229h106v-231q0 -15 7 -25t18 -16t24.5 -8.5t26.5 -2.5q27 0 47 13t20 43q0 8 -0.5 36.5
t-0.5 59.5v78q0 29 8 41t40 12h58v-227q0 -39 -12.5 -68.5t-34.5 -49t-52 -29.5t-65 -10q-87 0 -133 40q-22 -23 -57.5 -32t-67.5 -9zM582 690q0 -21 -15.5 -36.5t-37.5 -15.5q-21 0 -36.5 15.5t-15.5 36.5q0 23 15.5 38t36.5 15q22 0 37.5 -15t15.5 -38zM508 568
q0 -22 -15 -37t-37 -15t-37 15t-15 37t15 37.5t37 15.5t37 -15.5t15 -37.5zM654 568q0 -22 -15 -37t-37 -15t-37.5 15t-15.5 37t15.5 37.5t37.5 15.5t37 -15.5t15 -37.5z" />
    <glyph glyph-name="uniFEB8" unicode="&#x634;" horiz-adv-x="974" arabic-form="medial" 
d="M400 -5q-4 0 -20.5 1.5t-37.5 5.5t-41 12t-30 22q-9 -10 -21 -18q-11 -7 -28 -12.5t-41 -5.5h-240v102h226q40 0 45 39v239h108v-227q2 -31 22.5 -43t50.5 -12q27 0 51 12t24 41v229h106v-231q0 -15 7 -25t18 -16t24.5 -8.5t26.5 -2.5q27 0 47 13t20 43q0 8 -0.5 36.5
t-0.5 59.5v78q0 29 8 41t40 12h58v-239q4 -39 45 -39h172v-102h-156q-20 0 -36.5 5t-29 12t-20.5 14.5t-12 13.5q-23 -25 -55.5 -37t-71.5 -12q-87 0 -133 40q-22 -23 -57.5 -32t-67.5 -9zM576 690q0 -21 -15.5 -36.5t-37.5 -15.5q-21 0 -36.5 15.5t-15.5 36.5q0 23 15.5 38
t36.5 15q22 0 37.5 -15t15.5 -38zM502 568q0 -22 -15 -37t-37 -15t-37 15t-15 37t15 37.5t37 15.5t37 -15.5t15 -37.5zM648 568q0 -22 -15 -37t-37 -15t-37.5 15t-15.5 37t15.5 37.5t37.5 15.5t37 -15.5t15 -37.5z" />
    <glyph glyph-name="uniFEBA" unicode="&#x635;" horiz-adv-x="1861" arabic-form="final" 
d="M1478 102q30 0 56 5t45 17t29.5 32t10.5 50q0 27 -9 46.5t-25 32t-36.5 18.5t-44.5 6q-29 0 -58.5 -8.5t-53.5 -19.5l-355 -159q-8 -3 -11 -3t-5 1q-4 1 -4 11v93q100 44 175.5 78.5t133 58t102 36t82.5 12.5q46 -2 85.5 -16t68.5 -39.5t45 -62t16 -82.5q0 -61 -23 -107
h228v-102h-1125q-25 0 -41 4.5t-27 20.5q-10 -57 -36.5 -104t-65.5 -83q-52 -47 -121.5 -71.5t-148.5 -24.5q-75 0 -128.5 13t-91.5 33q-37 19 -63.5 49.5t-43.5 66t-25 73.5t-8 73q0 48 14 85q8 20 17.5 28.5t37.5 11.5l28 2l28 2q5 0 7 -2q1 -1 1 -5q0 -3 -3.5 -13.5
t-7.5 -21.5q-8 -23 -12.5 -44.5t-4.5 -41.5q0 -45 18.5 -83t50.5 -65.5t76.5 -43t95.5 -15.5q137 0 210.5 69t73.5 195v218q0 24 11 39t39 15h58v-260q0 -14 13 -16t31 -2h691z" />
    <glyph glyph-name="uniFEBB" unicode="&#x635;" horiz-adv-x="1395" arabic-form="initial" 
d="M361 0q-26 0 -45 9t-36 23q-22 -22 -44 -27t-59 -5h-225v102h231q17 0 26.5 2.5t14 8t5 15.5t0.5 25v175q0 26 10 39t36 13h60v-246q0 -20 12.5 -26t35.5 -6h683q30 0 56 5t45 17t29.5 32t10.5 50q0 27 -9 46.5t-25 32t-36.5 18.5t-44.5 6q-29 0 -58.5 -8.5t-53.5 -19.5
l-355 -159q-8 -3 -11 -3t-5 1q-4 1 -4 11v93q100 44 175.5 78.5t133 58t102 36t82.5 12.5q46 -2 85.5 -16t68.5 -39.5t45 -62t16 -82.5q0 -107 -66 -164q-29 -26 -69 -35.5t-88 -9.5h-729z" />
    <glyph glyph-name="uniFEBC" unicode="&#x635;" horiz-adv-x="1446" arabic-form="medial" 
d="M361 0q-26 0 -45 9t-36 23q-22 -22 -44 -27t-59 -5h-225v102h231q17 0 26.5 2.5t14 8t5 15.5t0.5 25v175q0 26 10 39t36 13h60v-246q0 -20 12.5 -26t35.5 -6h683q30 0 56 5t45 17t29.5 32t10.5 50q0 27 -9 46.5t-25 32t-36.5 18.5t-44.5 6q-29 0 -58.5 -8.5t-53.5 -19.5
l-355 -159q-8 -3 -11 -3t-5 1q-4 1 -4 11v93q100 44 175.5 78.5t133 58t102 36t82.5 12.5q46 -2 85.5 -16t68.5 -39.5t45 -62t16 -82.5q0 -61 -23 -107h224v-102h-1153z" />
    <glyph glyph-name="uniFEBE" unicode="&#x636;" horiz-adv-x="1863" arabic-form="final" 
d="M1478 102q30 0 56 5t45 17t29.5 32t10.5 50q0 27 -9 46.5t-25 32t-36.5 18.5t-44.5 6q-29 0 -58.5 -8.5t-53.5 -19.5l-355 -159q-8 -3 -11 -3t-5 1q-4 1 -4 11v93q100 44 175.5 78.5t133 58t102 36t82.5 12.5q46 -2 85.5 -16t68.5 -39.5t45 -62t16 -82.5q0 -61 -23 -107
h228v-102h-1125q-25 0 -41 4.5t-27 20.5q-10 -57 -36.5 -104t-65.5 -83q-52 -47 -121.5 -71.5t-148.5 -24.5q-75 0 -128.5 13t-91.5 33q-37 19 -63.5 49.5t-43.5 66t-25 73.5t-8 73q0 48 14 85q8 20 17.5 28.5t37.5 11.5l28 2l28 2q5 0 7 -2q1 -1 1 -5q0 -3 -3.5 -13.5
t-7.5 -21.5q-8 -23 -12.5 -44.5t-4.5 -41.5q0 -45 18.5 -83t50.5 -65.5t76.5 -43t95.5 -15.5q137 0 210.5 69t73.5 195v218q0 24 11 39t39 15h58v-260q0 -14 13 -16t31 -2h691zM1436 568q0 23 15 38t37 15t37.5 -15t15.5 -38q0 -21 -15.5 -36.5t-37.5 -15.5t-37 15.5
t-15 36.5z" />
    <glyph glyph-name="uniFEBF" unicode="&#x636;" horiz-adv-x="1391" arabic-form="initial" 
d="M357 0q-26 0 -45 9t-36 23q-22 -22 -44 -27t-59 -5h-225v102h231q17 0 26.5 2.5t14 8t5 15.5t0.5 25v175q0 26 10 39t36 13h60v-246q0 -20 12.5 -26t35.5 -6h683q30 0 56 5t45 17t29.5 32t10.5 50q0 27 -9 46.5t-25 32t-36.5 18.5t-44.5 6q-29 0 -58.5 -8.5t-53.5 -19.5
l-355 -159q-8 -3 -11 -3t-5 1q-4 1 -4 11v93q100 44 175.5 78.5t133 58t102 36t82.5 12.5q46 -2 85.5 -16t68.5 -39.5t45 -62t16 -82.5q0 -107 -66 -164q-29 -26 -69 -35.5t-88 -9.5h-729zM1004 568q0 23 15 38t37 15t37.5 -15t15.5 -38q0 -21 -15.5 -36.5t-37.5 -15.5
t-37 15.5t-15 36.5z" />
    <glyph glyph-name="uniFEC0" unicode="&#x636;" horiz-adv-x="1449" arabic-form="medial" 
d="M362 0q-26 0 -45 9t-36 23q-22 -22 -44 -27t-59 -5h-225v102h231q17 0 26.5 2.5t14 8t5 15.5t0.5 25v175q0 26 10 39t36 13h60v-246q0 -20 12.5 -26t35.5 -6h683q30 0 56 5t45 17t29.5 32t10.5 50q0 27 -9 46.5t-25 32t-36.5 18.5t-44.5 6q-29 0 -58.5 -8.5t-53.5 -19.5
l-355 -159q-8 -3 -11 -3t-5 1q-4 1 -4 11v93q100 44 175.5 78.5t133 58t102 36t82.5 12.5q46 -2 85.5 -16t68.5 -39.5t45 -62t16 -82.5q0 -61 -23 -107h224v-102h-1153zM1027 568q0 23 15 38t37 15t37.5 -15t15.5 -38q0 -21 -15.5 -36.5t-37.5 -15.5t-37 15.5t-15 36.5z" />
    <glyph glyph-name="uniFEC2" unicode="&#x637;" horiz-adv-x="1079" arabic-form="final" 
d="M872 357q29 -26 47 -63.5t18 -84.5q0 -62 -28 -107h238v-102h-1094q-11 0 -20 6t-9 17v81q0 6 3 8q4 0 7 -3q5 -5 10 -6t19 -1h626q64 0 103 22.5t39 81.5q0 46 -32.5 71.5t-89.5 29.5q-32 0 -61 -7.5t-54 -16.5q-9 -3 -18 -7t-23.5 -10t-36.5 -16.5t-57.5 -27.5
t-87 -41.5t-124.5 -59.5q-6 -3 -10 -3q-10 0 -10 12v409q0 15 2 24.5t7 14t15 6t26 1.5h56v-312l168 77q18 7 40.5 17t49.5 19.5t57.5 16t63.5 6.5q54 0 93 -13.5t67 -38.5z" />
    <glyph glyph-name="uniFEC3" unicode="&#x637;" horiz-adv-x="1017" arabic-form="initial" 
d="M872 357q29 -26 47 -63.5t18 -84.5q0 -52 -19 -91t-51.5 -65.5t-74.5 -39.5t-88 -13h-762v102h747q64 0 103 22.5t39 81.5q0 46 -32.5 71.5t-89.5 29.5q-32 0 -61 -7.5t-54 -16.5q-9 -3 -18 -7t-23.5 -10t-36.5 -16.5t-57.5 -27.5t-87 -41.5t-124.5 -59.5q-6 -3 -10 -3
q-10 0 -10 12v409q0 15 2 24.5t7 14t15 6t26 1.5h56v-312l168 77q18 7 40.5 17t49.5 19.5t57.5 16t63.5 6.5q54 0 93 -13.5t67 -38.5z" />
    <glyph glyph-name="uniFEC4" unicode="&#x637;" horiz-adv-x="1065" arabic-form="medial" 
d="M872 357q29 -26 47 -63.5t18 -84.5q0 -62 -28 -107h225v-102h-1197v102h752q64 0 103 22.5t39 81.5q0 46 -32.5 71.5t-89.5 29.5q-32 0 -61 -7.5t-54 -16.5q-9 -3 -18 -7t-23.5 -10t-36.5 -16.5t-57.5 -27.5t-87 -41.5t-124.5 -59.5q-6 -3 -10 -3q-10 0 -10 12v409
q0 15 2 24.5t7 14t15 6t26 1.5h56v-312l168 77q18 7 40.5 17t49.5 19.5t57.5 16t63.5 6.5q54 0 93 -13.5t67 -38.5z" />
    <glyph glyph-name="uniFEC6" unicode="&#x638;" horiz-adv-x="1079" arabic-form="final" 
d="M873 357q29 -26 47 -63.5t18 -84.5q0 -62 -28 -107h238v-102h-1094q-11 0 -20 6t-9 17v81q0 6 3 8q4 0 7 -3q5 -5 10 -6t19 -1h626q64 0 103 22.5t39 81.5q0 46 -32.5 71.5t-89.5 29.5q-32 0 -61 -7.5t-54 -16.5q-9 -3 -18 -7t-23.5 -10t-36.5 -16.5t-57.5 -27.5
t-87 -41.5t-124.5 -59.5q-6 -3 -10 -3q-10 0 -10 12v409q0 15 2 24.5t7 14t15 6t26 1.5h56v-312l168 77q18 7 40.5 17t49.5 19.5t57.5 16t63.5 6.5q54 0 93 -13.5t67 -38.5zM645 568q0 23 15 38t37 15t37.5 -15t15.5 -38q0 -21 -15.5 -36.5t-37.5 -15.5t-37 15.5t-15 36.5z
" />
    <glyph glyph-name="uniFEC7" unicode="&#x638;" horiz-adv-x="1016" arabic-form="initial" 
d="M872 357q29 -26 47 -63.5t18 -84.5q0 -52 -19 -91t-51.5 -65.5t-74.5 -39.5t-88 -13h-762v102h747q64 0 103 22.5t39 81.5q0 46 -32.5 71.5t-89.5 29.5q-32 0 -61 -7.5t-54 -16.5q-9 -3 -18 -7t-23.5 -10t-36.5 -16.5t-57.5 -27.5t-87 -41.5t-124.5 -59.5q-6 -3 -10 -3
q-10 0 -10 12v409q0 15 2 24.5t7 14t15 6t26 1.5h56v-312l168 77q18 7 40.5 17t49.5 19.5t57.5 16t63.5 6.5q54 0 93 -13.5t67 -38.5zM632 568q0 23 15 38t37 15t37.5 -15t15.5 -38q0 -21 -15.5 -36.5t-37.5 -15.5t-37 15.5t-15 36.5z" />
    <glyph glyph-name="uniFEC8" unicode="&#x638;" horiz-adv-x="1065" arabic-form="medial" 
d="M872 357q29 -26 47 -63.5t18 -84.5q0 -62 -28 -107h225v-102h-1197v102h752q64 0 103 22.5t39 81.5q0 46 -32.5 71.5t-89.5 29.5q-32 0 -61 -7.5t-54 -16.5q-9 -3 -18 -7t-23.5 -10t-36.5 -16.5t-57.5 -27.5t-87 -41.5t-124.5 -59.5q-6 -3 -10 -3q-10 0 -10 12v409
q0 15 2 24.5t7 14t15 6t26 1.5h56v-312l168 77q18 7 40.5 17t49.5 19.5t57.5 16t63.5 6.5q54 0 93 -13.5t67 -38.5zM645 568q0 23 15 38t37 15t37.5 -15t15.5 -38q0 -21 -15.5 -36.5t-37.5 -15.5t-37 15.5t-15 36.5z" />
    <glyph glyph-name="uniFECA" unicode="&#x639;" horiz-adv-x="705" arabic-form="final" 
d="M770 102v-102h-211q-32 0 -81 22q-1 0 -20 8t-42 19q-27 11 -62 27q-48 -18 -88 -34q-35 -14 -66.5 -26t-41.5 -17q-39 -20 -42 -56q0 -34 25.5 -77t84.5 -102l10 -11q3 -3 3.5 -4.5t0.5 -3.5q-1 -3 -7 -3h-98q-3 0 -9.5 0.5t-14.5 2.5t-15.5 5.5t-11.5 8.5
q-37 44 -57 84.5t-20 75.5q0 57 29 101t90 68l102 41q-60 40 -92 62t-47 32l-20 13q-3 2 -9.5 5.5t-9.5 3.5q-6 0 -9 -5t-4.5 -6t-3.5 -1q-4 0 -4 14v81q0 35 13.5 43.5t44.5 8.5h382q64 0 103 -28.5t39 -88.5q0 -37 -17.5 -66t-55.5 -43l-66 -24q26 -11 51 -18.5t52 -9.5
h195zM180 278l174 -94q11 3 32.5 10.5t41.5 15.5q24 9 51 20q24 10 24 26q0 9 -9.5 15.5t-26.5 6.5h-287z" />
    <glyph glyph-name="uniFECB" unicode="&#x639;" horiz-adv-x="756" arabic-form="initial" 
d="M-59 102q-2 0 9.5 0t32 0.5t47 0.5h54.5h150q-11 11 -18.5 26.5t-11.5 31t-5.5 30t-1.5 23.5q0 52 16.5 89t46.5 60.5t73 34.5t97 11q48 0 88.5 -12.5t70 -35.5t46.5 -55t18 -71q-1 -20 -8.5 -26t-28.5 -6h-65q-4 0 -11.5 0.5t-7.5 4.5q0 3 1 5q6 13 6 24q0 35 -26 51
t-82 19q-65 -2 -97 -25t-32 -77q0 -31 11.5 -51t31.5 -31.5t46.5 -16t57.5 -4.5h182v-102h-690v102z" />
    <glyph glyph-name="uniFECC" unicode="&#x639;" horiz-adv-x="900" arabic-form="medial" 
d="M950 102v-102h-211q-32 0 -81 22q-1 0 -20 8t-42 19q-27 11 -62 27l-141 -64q-8 -4 -16.5 -6t-19.5 -3.5t-25 -2t-33 -0.5h-343v102h353l6.5 0.5t15 2t18.5 3.5t18 6l37 18q-58 39 -89.5 60t-45.5 31l-20 13q-3 2 -9.5 5.5t-9.5 3.5q-6 0 -9 -5t-4.5 -6t-3.5 -1
q-4 0 -4 14v81q0 35 13.5 43.5t44.5 8.5h382q64 0 103 -28.5t39 -88.5q0 -37 -17.5 -66t-55.5 -43l-66 -24q26 -11 51 -18.5t52 -9.5h195zM360 278l174 -94q11 3 32.5 10.5t41.5 15.5q24 9 51 20q24 10 24 26q0 9 -9.5 15.5t-26.5 6.5h-287z" />
    <glyph glyph-name="uniFECE" unicode="&#x63a;" horiz-adv-x="709" arabic-form="final" 
d="M770 102v-102h-211q-32 0 -81 22q-1 0 -20 8t-42 19q-27 11 -62 27q-48 -18 -88 -34q-35 -14 -66.5 -26t-41.5 -17q-39 -20 -42 -56q0 -34 25.5 -77t84.5 -102l10 -11q3 -3 3.5 -4.5t0.5 -3.5q-1 -3 -7 -3h-98q-3 0 -9.5 0.5t-14.5 2.5t-15.5 5.5t-11.5 8.5
q-37 44 -57 84.5t-20 75.5q0 57 29 101t90 68l102 41q-60 40 -92 62t-47 32l-20 13q-3 2 -9.5 5.5t-9.5 3.5q-6 0 -9 -5t-4.5 -6t-3.5 -1q-4 0 -4 14v81q0 35 13.5 43.5t44.5 8.5h382q64 0 103 -28.5t39 -88.5q0 -37 -17.5 -66t-55.5 -43l-66 -24q26 -11 51 -18.5t52 -9.5
h195zM180 278l174 -94q11 3 32.5 10.5t41.5 15.5q24 9 51 20q24 10 24 26q0 9 -9.5 15.5t-26.5 6.5h-287zM288 568q0 23 15 38t37 15t37.5 -15t15.5 -38q0 -21 -15.5 -36.5t-37.5 -15.5t-37 15.5t-15 36.5z" />
    <glyph glyph-name="uniFECF" unicode="&#x63a;" horiz-adv-x="756" arabic-form="initial" 
d="M-59 102q-2 0 9.5 0t32 0.5t47 0.5h54.5h150q-11 11 -18.5 26.5t-11.5 31t-5.5 30t-1.5 23.5q0 52 16.5 89t46.5 60.5t73 34.5t97 11q48 0 88.5 -12.5t70 -35.5t46.5 -55t18 -71q-1 -20 -8.5 -26t-28.5 -6h-65q-4 0 -11.5 0.5t-7.5 4.5q0 3 1 5q6 13 6 24q0 35 -26 51
t-82 19q-65 -2 -97 -25t-32 -77q0 -31 11.5 -51t31.5 -31.5t46.5 -16t57.5 -4.5h182v-102h-690v102zM375 568q0 23 15 38t37 15t37.5 -15t15.5 -38q0 -21 -15.5 -36.5t-37.5 -15.5t-37 15.5t-15 36.5z" />
    <glyph glyph-name="uniFED0" unicode="&#x63a;" horiz-adv-x="907" arabic-form="medial" 
d="M950 102v-102h-211q-32 0 -81 22q-1 0 -20 8t-42 19q-27 11 -62 27l-141 -64q-8 -4 -16.5 -6t-19.5 -3.5t-25 -2t-33 -0.5h-343v102h353l6.5 0.5t15 2t18.5 3.5t18 6l37 18q-58 39 -89.5 60t-45.5 31l-20 13q-3 2 -9.5 5.5t-9.5 3.5q-6 0 -9 -5t-4.5 -6t-3.5 -1
q-4 0 -4 14v81q0 35 13.5 43.5t44.5 8.5h382q64 0 103 -28.5t39 -88.5q0 -37 -17.5 -66t-55.5 -43l-66 -24q26 -11 51 -18.5t52 -9.5h195zM360 278l174 -94q11 3 32.5 10.5t41.5 15.5q24 9 51 20q24 10 24 26q0 9 -9.5 15.5t-26.5 6.5h-287zM466 568q0 23 15 38t37 15
t37.5 -15t15.5 -38q0 -21 -15.5 -36.5t-37.5 -15.5t-37 15.5t-15 36.5z" />
    <glyph glyph-name="uniFED2" unicode="&#x641;" horiz-adv-x="1086" arabic-form="final" 
d="M182 0q-81 0 -127.5 36.5t-46.5 115.5q0 19 1 36t6 37q2 8 5 16.5t10 14.5q10 8 28 11q5 1 20.5 1.5t52.5 2.5q9 0 11 -3t-0.5 -7.5t-6.5 -11.5q-6 -11 -10.5 -24t-6.5 -26q-1 -5 -1.5 -12l-1 -14t-0.5 -12v-6q0 -35 16.5 -44t45.5 -9h394q-17 18 -24.5 46t-7.5 56
q0 44 16 81.5t43.5 65t65.5 43t83 15.5t82.5 -15.5t65.5 -42.5t43.5 -64.5t15.5 -82.5q0 -29 -7 -55t-18 -47h234v-102h-981zM742 102q56 2 81 27.5t25 74.5q0 44 -28.5 73.5t-74.5 29.5q-47 0 -73.5 -29.5t-26.5 -73.5q0 -41 26.5 -70t70.5 -32zM700 568q0 23 15 38t37 15
t37.5 -15t15.5 -38q0 -21 -15.5 -36.5t-37.5 -15.5t-37 15.5t-15 36.5z" />
    <glyph glyph-name="uniFED3" unicode="&#x641;" horiz-adv-x="714" arabic-form="initial" 
d="M421 409q45 0 82.5 -15.5t65.5 -42.5t43.5 -64.5t15.5 -82.5t-15.5 -82.5t-43.5 -64.5t-65.5 -42t-82.5 -15h-471v102h295q-17 18 -24.5 46t-7.5 56q0 44 16 81.5t43.5 65t65.5 43t83 15.5zM421 102q48 2 74.5 27.5t26.5 74.5q0 44 -28.5 73.5t-74.5 29.5
q-47 0 -73.5 -29.5t-26.5 -73.5q0 -41 25 -70t77 -32zM370 568q0 23 15 38t37 15t37.5 -15t15.5 -38q0 -21 -15.5 -36.5t-37.5 -15.5t-37 15.5t-15 36.5z" />
    <glyph glyph-name="uniFED4" unicode="&#x641;" horiz-adv-x="760" arabic-form="medial" 
d="M366 568q0 23 15 38t37 15t37.5 -15t15.5 -38q0 -21 -15.5 -36.5t-37.5 -15.5t-37 15.5t-15 36.5zM-56 0v102h296q-17 18 -24.5 46t-7.5 56q0 44 16 81.5t43.5 65t65.5 43t83 15.5t82.5 -15.5t65.5 -42.5t43.5 -64.5t15.5 -82.5q0 -29 -7 -55t-18 -47h224v-102h-878z
M416 102q48 2 74.5 27.5t26.5 74.5q0 44 -28.5 73.5t-74.5 29.5q-47 0 -73.5 -29.5t-26.5 -73.5q0 -41 25 -70t77 -32z" />
    <glyph glyph-name="uniFED6" unicode="&#x642;" horiz-adv-x="896" arabic-form="final" 
d="M753 103h218v-102h-232l-6 -23q-14 -55 -51.5 -99t-88.5 -75q-49 -29 -105 -45t-112 -16q-75 0 -128.5 11.5t-91 30t-62 42t-39.5 47.5q-26 41 -36.5 85t-10.5 84q0 29 4 52.5t10 40.5q8 19 15.5 28t32.5 11l64 5q2 0 5 -0.5t3 -4.5q0 -5 -4 -13t-9 -24q-9 -24 -13 -46.5
t-4 -44.5q0 -40 14 -74t42 -60q19 -18 43 -31t48 -20.5t47 -11t42 -3.5q50 0 89.5 10t70.5 27q50 26 79 59t37 58h-88q-63 0 -104.5 10t-67 33t-36.5 61t-13 94q1 47 18.5 86t47.5 66.5t71.5 43t90.5 15.5q52 0 91.5 -17.5t66 -47.5t40 -69.5t13.5 -83.5zM642 103q1 9 3 20
q1 9 2 21.5t1 27.5v13.5t-1 13.5q-2 21 -9.5 40.5t-20.5 34.5t-31.5 24t-41.5 9q-58 0 -86 -29t-28 -79q0 -33 4 -52.5t16.5 -29t35 -12t58.5 -2.5h98zM516 569q0 -22 -15 -37.5t-37 -15.5t-37 15.5t-15 37.5t15 37.5t37 15.5t37 -15.5t15 -37.5zM662 569q0 -22 -15 -37.5
t-37 -15.5t-37.5 15.5t-15.5 37.5t15.5 37.5t37.5 15.5t37 -15.5t15 -37.5z" />
    <glyph glyph-name="uniFED7" unicode="&#x642;" horiz-adv-x="711" arabic-form="initial" 
d="M421 409q45 0 82.5 -15.5t65.5 -42.5t43.5 -64.5t15.5 -82.5t-15.5 -82.5t-43.5 -64.5t-65.5 -42t-82.5 -15h-471v102h295q-17 18 -24.5 46t-7.5 56q0 44 16 81.5t43.5 65t65.5 43t83 15.5zM421 102q48 2 74.5 27.5t26.5 74.5q0 44 -28.5 73.5t-74.5 29.5
q-47 0 -73.5 -29.5t-26.5 -73.5q0 -41 25 -70t77 -32zM404 570q0 -22 -15 -37.5t-37 -15.5t-37 15.5t-15 37.5t15 37.5t37 15.5t37 -15.5t15 -37.5zM550 570q0 -22 -15 -37.5t-37 -15.5t-37.5 15.5t-15.5 37.5t15.5 37.5t37.5 15.5t37 -15.5t15 -37.5z" />
    <glyph glyph-name="uniFED8" unicode="&#x642;" horiz-adv-x="763" arabic-form="medial" 
d="M398 569q0 -22 -15 -37.5t-37 -15.5t-37 15.5t-15 37.5t15 37.5t37 15.5t37 -15.5t15 -37.5zM544 569q0 -22 -15 -37.5t-37 -15.5t-37.5 15.5t-15.5 37.5t15.5 37.5t37.5 15.5t37 -15.5t15 -37.5zM-55 0v102h296q-17 18 -24.5 46t-7.5 56q0 44 16 81.5t43.5 65t65.5 43
t83 15.5t82.5 -15.5t65.5 -42.5t43.5 -64.5t15.5 -82.5q0 -29 -7 -55t-18 -47h224v-102h-878zM417 102q48 2 74.5 27.5t26.5 74.5q0 44 -28.5 73.5t-74.5 29.5q-47 0 -73.5 -29.5t-26.5 -73.5q0 -41 25 -70t77 -32z" />
    <glyph glyph-name="uniFEDA" unicode="&#x643;" horiz-adv-x="1077" arabic-form="final" 
d="M430 292q-14 7 -23.5 20t-9.5 35q1 19 10 30.5t19.5 17.5t20.5 7.5t15 1.5h66q10 0 14 4q2 2 2 4q8 -8 13 -12.5t7 -6.5l3 -3q0 -4 -4.5 -6t-9.5 -3q-6 -1 -13 -1h-75q-26 -2 -33.5 -12.5t-7.5 -23.5t7 -22.5t18.5 -16t25 -10t26.5 -3.5h69v-22h-204v22h64zM180 0
q-81 0 -126.5 36.5t-47.5 115.5q1 19 1.5 36t5.5 37q3 18 13 28.5t30 13.5q5 1 20.5 1.5t52.5 2.5q9 0 11 -3t-0.5 -7.5t-6.5 -11.5q-6 -11 -10.5 -24t-6.5 -26q-2 -11 -2.5 -27t-0.5 -22q0 -29 16 -38.5t46 -9.5h596q32 0 47 10.5t15 48.5v373q0 26 10 39t36 13h59v-456
q2 -18 13.5 -23t34.5 -5h165v-102h-191q-18 0 -32 5t-25 12q-12 7 -21 17q-4 -4 -10.5 -9.5t-17 -11t-26 -9.5t-36.5 -4h-612z" />
    <glyph glyph-name="uniFEDB" unicode="&#x643;" horiz-adv-x="507" arabic-form="initial" 
d="M382 186q25 -22 36.5 -45t11.5 -44q0 -41 -36 -69t-98 -28h-360v102h351q16 1 16 13q0 5 -6 13l-259 239q78 53 144 97q28 19 55.5 37.5t51.5 34t41 27t24 16.5q8 5 16 8.5t16 3.5q9 0 18 -6q11 -11 11 -37v-52q0 -6 -1 -8t-4 -1q-3 3 -6 3q-4 0 -9 -4l-199 -133z" />
    <glyph glyph-name="uniFEDC" unicode="&#x643;" horiz-adv-x="577" arabic-form="medial" 
d="M419 186q34 -31 43 -62l2 -8t4.5 -7t11 -5t21.5 -2h126v-102h-129q-18 0 -36 9.5t-28 20.5q-38 -30 -101 -30h-410v102h401q16 1 16 13q0 5 -6 13l-259 239q78 53 144 97q28 19 55.5 37.5t51.5 34t41 27t24 16.5q8 5 16 8.5t16 3.5q9 0 18 -6q11 -11 11 -37v-52
q0 -6 -1 -8t-4 -1q-3 3 -6 3q-4 0 -9 -4l-199 -133z" />
    <glyph glyph-name="uniFEDE" unicode="&#x644;" horiz-adv-x="895" arabic-form="final" 
d="M958 102v-102h-150q-25 0 -41 4.5t-27 20.5q-10 -57 -36.5 -104t-65.5 -83q-52 -47 -121.5 -71.5t-148.5 -24.5q-75 0 -128.5 13t-91.5 33q-37 19 -63.5 49.5t-43.5 66t-25 73.5t-8 73q0 48 14 85q8 20 17.5 28.5t37.5 11.5l28 2l28 2q5 0 7 -2q1 -1 1 -5
q0 -3 -3.5 -13.5t-7.5 -21.5q-8 -23 -12.5 -44.5t-4.5 -41.5q0 -45 18.5 -83t50.5 -65.5t76.5 -43t95.5 -15.5q137 0 210.5 69t73.5 195v423q0 24 11 39t39 15h58v-465q0 -14 13 -16t31 -2h168z" />
    <glyph glyph-name="uniFEDF" unicode="&#x644;" horiz-adv-x="442" arabic-form="initial" 
d="M-66 102h196q29 0 46 1t26 6.5t12 17.5t3 34v372q0 26 10 39t36 13h60v-451q0 -35 -7.5 -60.5t-24.5 -41.5q-35 -32 -120 -32h-237v102z" />
    <glyph glyph-name="uniFEE0" unicode="&#x644;" horiz-adv-x="487" arabic-form="medial" 
d="M-54 102h223q32 0 40.5 12t8.5 47v372q0 26 10 39t36 13h60v-425q0 -34 9.5 -46t38.5 -12h150v-102h-172q-26 0 -45 9t-36 23q-22 -22 -44 -27t-59 -5h-220v102z" />
    <glyph glyph-name="uniFEE2" unicode="&#x645;" horiz-adv-x="839" arabic-form="final" 
d="M618 315q10 -6 23 -17t25 -27.5t20 -39t8 -49.5q0 -29 -8 -56q2 -14 14 -19t32 -5h168v-102h-153q-21 0 -38.5 5.5t-31.5 13.5t-24 16.5t-16 14.5q-30 -27 -70.5 -39.5t-85.5 -12.5q-51 0 -85 11.5t-63 40.5q-5 -12 -16 -21.5t-24 -16t-26.5 -9.5t-24.5 -3h-72
q-11 0 -15.5 -4.5t-4.5 -20.5v-233h-108v238q0 64 38.5 93t101.5 29h25q29 0 48 9t19 34q0 8 -2 17t-2 20q0 23 8.5 45t21.5 41t29.5 34t31.5 25l37 24l-18 13q-7 5 -7 10q0 6 14 6h104q12 0 20.5 -1.5t15.5 -3.5q2 -1 6 -3.5t14 -9t26.5 -18t44.5 -29.5zM476 100
q22 0 43 3.5t36.5 12t25 21.5t9.5 32q0 36 -33 62q-1 1 -11.5 8t-23.5 16.5l-26 19t-19 14.5q-4 -5 -15 -13.5t-23.5 -17.5t-23 -17t-14.5 -11q-8 -6 -16 -20.5t-10 -37.5q0 -39 26.5 -55.5t74.5 -16.5z" />
    <glyph glyph-name="uniFEE3" unicode="&#x645;" horiz-adv-x="712" arabic-form="initial" 
d="M572 315q10 -6 23 -17t25 -27.5t20 -39t8 -49.5q0 -48 -18 -82.5t-47.5 -57t-68 -33.5t-79.5 -11q-51 0 -85 11.5t-63 40.5q-5 -12 -16 -21.5t-24 -16t-26.5 -9.5t-24.5 -3h-260v102h225q29 0 48 9t19 34q0 8 -2 17t-2 20q0 23 8.5 45t21.5 41t29.5 34t31.5 25l37 24
l-20 15q-5 3 -5 8q1 6 14 6h104q12 0 20.5 -1.5t15.5 -3.5q2 -1 6 -3.5t14 -9t26.5 -18t44.5 -29.5zM430 100q22 0 43 3.5t36.5 12t25 21.5t9.5 32q0 36 -33 62q-1 1 -11.5 8t-23.5 16.5l-26 19t-19 14.5q-4 -5 -15 -13.5t-23.5 -17.5t-23 -17t-14.5 -11q-8 -6 -16 -20.5
t-10 -37.5q0 -39 26.5 -55.5t74.5 -16.5z" />
    <glyph glyph-name="uniFEE4" unicode="&#x645;" horiz-adv-x="753" arabic-form="medial" 
d="M568 315q10 -6 23 -17t25 -27.5t20 -39t8 -49.5q0 -29 -8 -56q2 -14 14 -19t32 -5h168v-102h-153q-21 0 -38.5 5.5t-31.5 13.5t-24 16.5t-16 14.5q-30 -27 -70.5 -39.5t-85.5 -12.5q-51 0 -85 11.5t-63 40.5q-5 -12 -16 -21.5t-24 -16t-26.5 -9.5t-24.5 -3h-253v102h218
q29 0 48 9t19 34q0 8 -2 17t-2 20q0 23 8.5 45t21.5 41t29.5 34t31.5 25l37 24l-18 13q-7 5 -7 10q0 6 14 6h104q12 0 20.5 -1.5t15.5 -3.5q2 -1 6 -3.5t14 -9t26.5 -18t44.5 -29.5zM426 100q22 0 43 3.5t36.5 12t25 21.5t9.5 32q0 36 -33 62q-1 1 -11.5 8t-23.5 16.5
l-26 19t-19 14.5q-4 -5 -15 -13.5t-23.5 -17.5t-23 -17t-14.5 -11q-8 -6 -16 -20.5t-10 -37.5q0 -39 26.5 -55.5t74.5 -16.5z" />
    <glyph glyph-name="uniFEE6" unicode="&#x646;" horiz-adv-x="893" arabic-form="final" 
d="M958 102v-102h-150q-25 0 -41 4.5t-27 20.5q-10 -57 -36.5 -104t-65.5 -83q-52 -47 -121.5 -71.5t-148.5 -24.5q-75 0 -128.5 13t-91.5 33q-37 19 -63.5 49.5t-43.5 66t-25 73.5t-8 73q0 48 14 85q8 20 17.5 28.5t37.5 11.5l28 2l28 2q5 0 7 -2q1 -1 1 -5
q0 -3 -3.5 -13.5t-7.5 -21.5q-8 -23 -12.5 -44.5t-4.5 -41.5q0 -45 18.5 -83t50.5 -65.5t76.5 -43t95.5 -15.5q137 0 210.5 69t73.5 195v218q0 24 11 39t39 15h58v-260q0 -14 13 -16t31 -2h168zM313 134q0 23 15 38t37 15t37.5 -15t15.5 -38q0 -21 -15.5 -36.5t-37.5 -15.5
t-37 15.5t-15 36.5z" />
    <glyph glyph-name="uniFEE7" unicode="&#x646;" horiz-adv-x="421" arabic-form="initial" 
d="M218 568q0 23 15 38t37 15t37.5 -15t15.5 -38q0 -21 -15.5 -36.5t-37.5 -15.5t-37 15.5t-15 36.5zM-79 0v102h234q32 0 47 10.5t15 48.5v167q0 26 10 39t36 13h59v-246q0 -39 -10.5 -65t-30.5 -41t-50 -21.5t-70 -6.5h-240z" />
    <glyph glyph-name="uniFEE8" unicode="&#x646;" horiz-adv-x="470" arabic-form="medial" 
d="M-75 0v102h234q32 0 47 10.5t15 48.5v167q0 26 10 39t36 13h59v-250q2 -18 13.5 -23t34.5 -5h165v-102h-191q-18 0 -32 5t-25 12q-12 7 -21 17q-4 -4 -10.5 -9.5t-17 -11t-26 -9.5t-36.5 -4h-255zM221 568q0 23 15 38t37 15t37.5 -15t15.5 -38q0 -21 -15.5 -36.5
t-37.5 -15.5t-37 15.5t-15 36.5z" />
    <glyph glyph-name="uniFEE9" unicode="&#x647;" horiz-adv-x="891" arabic-form="isolated" 
d="M629 339q40 -3 73 -14.5t55.5 -32.5t35 -53t12.5 -77q-5 -85 -55.5 -126t-143.5 -41q-38 0 -67.5 11.5t-53.5 33.5q-23 -22 -53 -31t-67 -9h-241q-16 -2 -16 -17q0 -6 4 -20.5t5 -17.5h-90q-11 0 -13.5 5.5t-3.5 9.5q-1 5 -3 20t-2 32q0 38 19 64t65 26h97
q-12 17 -16.5 35.5t-4.5 40.5q0 40 13.5 69.5t37.5 49t56 30t70 12.5q37 2 53.5 3.5t26.5 10.5q5 5 6.5 10t1.5 9q0 2 -0.5 3.5t-0.5 2.5v2h112q-1 -1 -1 -2v-6q0 -4 1.5 -9t7.5 -10q10 -9 27.5 -10t52.5 -4zM612 99q48 2 67.5 17.5t19.5 55.5q0 42 -26 54.5t-65 12.5
q-2 0 -18 1t-36.5 4.5t-40 10t-28.5 18.5q-9 -12 -29 -19t-40 -10t-36 -4t-17 -1q-39 0 -65 -14t-26 -53q0 -41 19.5 -57t67.5 -16q35 0 53.5 12t18.5 44q0 6 -0.5 11.5t-1.5 11.5h112q-1 -5 -1 -11v-13q0 -29 17 -42t55 -13z" />
    <glyph glyph-name="uniFEEA" unicode="&#x647;" horiz-adv-x="697" arabic-form="final" 
d="M764 102v-102h-159q-28 0 -48 4.5t-33.5 10.5t-20.5 11.5t-9 7.5q-2 -2 -9.5 -7.5t-22 -11.5t-37.5 -10.5t-54 -4.5h-140q-32 0 -71 6t-73 24.5t-57 53.5t-23 94q0 48 12.5 85.5t42 63.5t78 39.5t119.5 13.5q47 0 86 -10t65 -10q11 0 21 2.5t10 17.5h105v-241
q0 -23 11.5 -29.5t34.5 -7.5h172zM374 102q20 0 33 2.5t20.5 9.5t10 19.5t2.5 32.5v108q-11 -10 -36 -10q-17 0 -38 2.5t-44 6t-47 6t-46 2.5q-35 0 -57.5 -8.5t-35.5 -22.5t-18 -32t-5 -37q0 -42 34.5 -60.5t107.5 -18.5h119z" />
    <glyph glyph-name="uniFEEB" unicode="&#x647;" horiz-adv-x="927" arabic-form="initial" 
d="M646 339q40 -3 73 -14.5t55.5 -32.5t35 -53t12.5 -77q-5 -85 -55.5 -126t-143.5 -41q-38 0 -67.5 11.5t-53.5 33.5q-23 -22 -53 -31t-67 -9h-446v102h267q-12 17 -16.5 35.5t-4.5 40.5q0 40 13.5 69.5t37.5 49t56 30t70 12.5q37 2 53.5 3.5t26.5 10.5q5 5 6.5 10t1.5 9
q0 2 -0.5 3.5t-0.5 2.5v2h112q-1 -1 -1 -2v-6q0 -4 1.5 -9t7.5 -10q10 -9 27.5 -10t52.5 -4zM629 99q48 2 67.5 17.5t19.5 55.5q0 42 -26 54.5t-65 12.5q-2 0 -18 1t-36.5 4.5t-40 10t-28.5 18.5q-9 -12 -29 -19t-40 -10t-36 -4t-17 -1q-39 0 -65 -14t-26 -53
q0 -41 19.5 -57t67.5 -16q35 0 53.5 12t18.5 44q0 6 -0.5 11.5t-1.5 11.5h112q-1 -5 -1 -11v-13q0 -29 17 -42t55 -13z" />
    <glyph glyph-name="uniFEEC" unicode="&#x647;" horiz-adv-x="928" arabic-form="medial" 
d="M647 339q40 -3 73 -14.5t55.5 -32.5t35 -53t12.5 -77q-1 -11 -2.5 -19.5t-1.5 -15.5q0 -17 15 -21t46 -4h113v-102h-97q-42 0 -70.5 7.5t-51.5 34.5q-50 -47 -150 -47q-38 0 -67.5 11.5t-53.5 33.5q-23 -22 -53 -31t-67 -9h-446v102h267q-12 17 -16.5 35.5t-4.5 40.5
q0 40 13.5 69.5t37.5 49t56 30t70 12.5q37 2 53.5 3.5t26.5 10.5q5 5 6.5 10t1.5 9q0 2 -0.5 3.5t-0.5 2.5v2h112q-1 -1 -1 -2v-6q0 -4 1.5 -9t7.5 -10q10 -9 27.5 -10t52.5 -4zM630 99q48 2 67.5 17.5t19.5 55.5q0 42 -26 54.5t-65 12.5q-2 0 -18 1t-36.5 4.5t-40 10
t-28.5 18.5q-9 -12 -29 -19t-40 -10t-36 -4t-17 -1q-39 0 -65 -14t-26 -53q0 -41 19.5 -57t67.5 -16q35 0 53.5 12t18.5 44q0 6 -0.5 11.5t-1.5 11.5h112q-1 -5 -1 -11v-13q0 -29 17 -42t55 -13z" />
    <glyph glyph-name="uniFEEE" unicode="&#x648;" horiz-adv-x="623" arabic-form="final" 
d="M286 0q-63 0 -106 11t-69.5 33.5t-38 57.5t-11.5 84v12q1 49 18 88.5t46.5 66.5t71 41.5t92.5 14.5q45 0 81 -17t61.5 -47.5t39.5 -72t14 -90.5v-80h202v-102h-202q-1 -78 -22 -128t-59.5 -79t-93.5 -40t-124 -11q-16 0 -26.5 1t-16.5 4.5t-8.5 11.5t-2.5 23v9t-0.5 18.5
t-0.5 21v15.5q0 4 3 6h1l2 1q1 0 7 -2q5 -2 14 -3t19.5 -2t20.5 -1.5t17 -0.5q28 0 56 5.5t50.5 22t36.5 47.5t14 81h-86zM372 134q0 16 0.5 32.5t0.5 33.5q0 21 -6 40t-17.5 33.5t-28.5 23.5t-39 9q-58 0 -86 -29t-28 -79q0 -30 4 -49t15.5 -29.5t33 -14t56.5 -3.5h95v32z
" />
    <glyph glyph-name="uniFEF0" unicode="&#x649;" horiz-adv-x="786" arabic-form="final" 
d="M844 0h-148q13 0 19.5 -16.5t6.5 -34.5q0 -28 -10.5 -52.5t-28 -45t-39.5 -37t-45 -27.5q-53 -26 -118 -35.5t-136 -9.5q-35 0 -71.5 4.5t-71.5 16t-66.5 30t-56.5 46.5q-33 37 -49 93t-16 114q0 23 2.5 46t7.5 44q5 19 13 29.5t31 12.5l68 5q6 0 7 -1q2 -2 2 -5
q0 -4 -2.5 -8.5t-3.5 -7.5q-11 -25 -16 -53t-5 -56q0 -38 9.5 -72.5t29.5 -60.5q32 -41 83 -58t108 -17q72 0 120 9t78 23q68 31 68 80q0 14 -7 23t-18.5 13.5t-27 6t-33.5 1.5q-22 0 -42.5 -1.5t-24.5 -6.5q-3 -5 -5 -5q-3 0 -3 2v2v71q0 21 17 30.5t38 9.5h336v-102z" />
    <glyph glyph-name="uniFEF2" unicode="&#x64a;" horiz-adv-x="793" arabic-form="final" 
d="M844 0h-148q13 0 19.5 -16.5t6.5 -34.5q0 -28 -10.5 -52.5t-28 -45t-39.5 -37t-45 -27.5q-53 -26 -118 -35.5t-136 -9.5q-35 0 -71.5 4.5t-71.5 16t-66.5 30t-56.5 46.5q-33 37 -49 93t-16 114q0 23 2.5 46t7.5 44q5 19 13 29.5t31 12.5l68 5q6 0 7 -1q2 -2 2 -5
q0 -4 -2.5 -8.5t-3.5 -7.5q-11 -25 -16 -53t-5 -56q0 -38 9.5 -72.5t29.5 -60.5q32 -41 83 -58t108 -17q72 0 120 9t78 23q68 31 68 80q0 14 -7 23t-18.5 13.5t-27 6t-33.5 1.5q-22 0 -42.5 -1.5t-24.5 -6.5q-3 -5 -5 -5q-3 0 -3 2v2v71q0 21 17 30.5t38 9.5h336v-102z
M340 -372q0 -22 -15 -37.5t-37 -15.5t-37 15.5t-15 37.5t15 37.5t37 15.5t37 -15.5t15 -37.5zM486 -372q0 -22 -15 -37.5t-37 -15.5t-37 15.5t-15 37.5t15 37.5t37 15.5t37 -15.5t15 -37.5z" />
    <glyph glyph-name="uniFEF3" unicode="&#x64a;" horiz-adv-x="488" arabic-form="initial" 
d="M-79 0v102h234q32 0 47 10.5t15 48.5v167q0 26 10 39t36 13h59v-246q0 -39 -10.5 -65t-30.5 -41t-50 -21.5t-70 -6.5h-240zM187 -187q0 -22 -15 -37.5t-37 -15.5t-37 15.5t-15 37.5t15 37.5t37 15.5t37 -15.5t15 -37.5zM333 -187q0 -22 -15 -37.5t-37 -15.5t-37 15.5
t-15 37.5t15 37.5t37 15.5t37 -15.5t15 -37.5z" />
    <glyph glyph-name="uniFEF4" unicode="&#x64a;" horiz-adv-x="470" arabic-form="medial" 
d="M-75 0v102h234q32 0 47 10.5t15 48.5v167q0 26 10 39t36 13h59v-250q2 -18 13.5 -23t34.5 -5h165v-102h-191q-18 0 -32 5t-25 12q-12 7 -21 17q-4 -4 -10.5 -9.5t-17 -11t-26 -9.5t-36.5 -4h-255zM181 -187q0 -22 -15 -37.5t-37 -15.5t-37 15.5t-15 37.5t15 37.5t37 15.5
t37 -15.5t15 -37.5zM327 -187q0 -22 -15 -37.5t-37 -15.5t-37 15.5t-15 37.5t15 37.5t37 15.5t37 -15.5t15 -37.5z" />
    <glyph glyph-name=".notdef" horiz-adv-x="403" 
d="M174 92v52h44v-52h-44zM175 184v14q0 21 2 35.5t7 26.5t14.5 23t23.5 23q25 25 32 39t7 28q0 28 -18 47t-42 19t-41.5 -17t-22.5 -58l-40 7q6 57 35 82.5t71 25.5q44 0 71 -28t27 -75q0 -26 -10 -46t-40 -48q-14 -13 -21.5 -21.5t-11.5 -17t-4.5 -19t-0.5 -26.5v-14h-38z
M364 39v486h-325v-486h325zM403 564v-564h-403v564h403z" />
    <glyph glyph-name="glyph1" horiz-adv-x="415" 
 />
    <glyph glyph-name="glyph1" horiz-adv-x="415" 
 />
    <glyph glyph-name="uni000D" unicode="&#xd;" 
 />
    <glyph glyph-name="space" unicode=" " horiz-adv-x="276" 
 />
    <glyph glyph-name="exclam" unicode="!" horiz-adv-x="261" 
d="M192 0h-122v129h122v-129zM184 193h-107l-7 371h122z" />
    <glyph glyph-name="quotedbl" unicode="&#x22;" horiz-adv-x="359" 
d="M145 373h-81v215h81v-215zM295 373h-82v215h82v-215z" />
    <glyph glyph-name="numbersign" unicode="#" horiz-adv-x="611" 
d="M69 430h112l26 134h87l-27 -134h136l27 134h86l-26 -134h84v-81h-100l-22 -114h100v-81h-115l-30 -154h-87l29 154h-135l-30 -154h-87l30 154h-80v81h96l22 114h-96v81zM230 235h135l23 114h-137z" />
    <glyph glyph-name="dollar" unicode="$" horiz-adv-x="743" 
d="M408 -67h-65v61q-98 1 -155.5 8t-87.5 25t-38.5 50.5t-8.5 85.5v17h122v-13q0 -26 5.5 -42t23.5 -25t51 -12t88 -3v157q-94 1 -149.5 8t-85 25t-38.5 48t-9 77v7q0 48 12 79.5t43.5 50.5t86 26.5t140.5 7.5v51h65v-52q90 -1 144 -9.5t83 -27t38 -50t9 -78.5v-15h-123v9
q0 24 -5 40t-21 25t-46 12.5t-79 4.5v-147q93 0 150.5 -7t89 -25t42 -50t10.5 -83v-6q0 -50 -12.5 -83t-45 -52.5t-89.5 -27t-145 -7.5v-60zM408 85q56 0 90 3t52 11t23.5 22.5t5.5 37.5v6q0 22 -5 36.5t-22 23.5t-51.5 13t-92.5 4v-157zM182 401q0 -19 4 -32t20 -20.5
t48 -11t89 -3.5v147q-53 0 -84.5 -3.5t-48.5 -11.5t-22.5 -22.5t-5.5 -36.5v-6z" />
    <glyph glyph-name="percent" unicode="%" horiz-adv-x="807" 
d="M193 300q-41 0 -67.5 5t-41.5 19t-21 39.5t-6 66.5v7q0 40 6 65.5t21 39t41.5 18.5t67.5 5h17q42 0 69 -5t42 -18.5t21 -39t6 -65.5v-7q0 -41 -6 -66.5t-21 -39.5t-42 -19t-69 -5h-17zM208 354q21 0 33 2.5t19 10.5t9 23t2 40v7q0 24 -2 38.5t-9 22t-19 10t-33 2.5h-11
q-21 0 -33 -2.5t-19 -10t-9 -22t-2 -38.5v-7q0 -25 2 -40t9 -23t19 -10.5t33 -2.5h11zM293 0h-70l285 564h70zM593 -1q-41 0 -67 5t-41 19t-21 39.5t-6 66.5v7q0 41 6 66t21 39t41 19t67 5h18q42 0 69 -5t42 -19t21 -39t6 -66v-7q0 -41 -6 -66.5t-21 -39.5t-42 -19t-69 -5
h-18zM609 54q21 0 33 2.5t19 10t9 22.5t2 40v7q0 25 -2 39.5t-9 22t-19 10t-33 2.5h-11q-21 0 -33 -2.5t-19 -10t-9 -22t-2 -39.5v-7q0 -25 2 -40t9 -22.5t19 -10t33 -2.5h11z" />
    <glyph glyph-name="ampersand" unicode="&#x26;" horiz-adv-x="845" 
d="M827 85l-45 -86l-101 57q-12 -18 -31.5 -30.5t-53.5 -19.5t-84.5 -10t-123.5 -3h-15q-108 0 -171.5 5.5t-96.5 23.5t-42.5 51t-9.5 89v11q0 37 6 63t19.5 44t36.5 27.5t58 13.5q-30 17 -45.5 39.5t-15.5 66.5v11q0 46 11.5 72.5t42 40t83.5 17t135 3.5h15q91 0 143.5 -5
t79 -22t33.5 -50t7 -90v-6h-113v6q0 27 -3.5 42.5t-18.5 24t-45 11t-83 2.5h-15q-50 0 -79.5 -2t-45 -8t-20 -17.5t-4.5 -29.5v-6q0 -23 12 -35.5t44 -28.5l319 -162q2 13 2.5 28t0.5 33v47h99v-27q0 -50 -1.5 -80.5t-4.5 -49.5zM375 83q96 0 144.5 3.5t63.5 20.5l-331 170
q-26 -2 -41.5 -8.5t-23.5 -18t-10.5 -27t-2.5 -36.5v-8q0 -32 5 -51t24.5 -29t57.5 -13t104 -3h10z" />
    <glyph glyph-name="quotesingle" unicode="'" horiz-adv-x="210" 
d="M145 373h-81v215h81v-215z" />
    <glyph glyph-name="parenleft" unicode="(" horiz-adv-x="349" 
d="M281 -7h-18q-63 0 -104.5 7t-66 34.5t-34.5 84t-10 155.5v17q0 99 10 155t34.5 83.5t66 34.5t104.5 7h18v-86h-15q-35 0 -56 -5t-32 -25t-14.5 -59.5t-3.5 -107.5v-11q0 -68 3.5 -107t14.5 -59t32 -25t56 -5h15v-88z" />
    <glyph glyph-name="parenright" unicode=")" horiz-adv-x="349" 
d="M68 -7v88h15q35 0 56 5t32 25t14 59.5t3 107.5v11q0 68 -3 107t-14 59t-32 25t-56 5h-15v86h17q64 0 105.5 -6.5t66 -34.5t34 -84t9.5 -155v-16q0 -99 -9.5 -155.5t-34 -84.5t-66 -35t-105.5 -7h-17z" />
    <glyph glyph-name="asterisk" unicode="*" horiz-adv-x="436" 
d="M260 579l-11 -103h-64l-11 103h86zM386 477l-101 -46l-24 40l91 67zM82 538l91 -67l-24 -40l-101 46zM174 269l11 103h64l11 -103h-86zM352 310l-91 67l24 40l101 -46zM48 371l101 46l24 -40l-91 -67z" />
    <glyph glyph-name="plus" unicode="+" horiz-adv-x="559" 
d="M321 27h-83v180h-181v81h181v175h83v-175h180v-81h-180v-180z" />
    <glyph glyph-name="comma" unicode="," horiz-adv-x="239" 
d="M181 -11q0 -33 -6 -54.5t-22.5 -34t-44.5 -18t-71 -5.5v68q33 0 43.5 9t10.5 30v16h-33v129h123v-140z" />
    <glyph glyph-name="hyphen" unicode="-" horiz-adv-x="403" 
d="M345 161h-287v92h287v-92z" />
    <glyph glyph-name="period" unicode="." horiz-adv-x="239" 
d="M181 0h-123v129h123v-129z" />
    <glyph glyph-name="slash" unicode="/" horiz-adv-x="444" 
d="M133 -7h-89l267 578h89z" />
    <glyph glyph-name="zero" unicode="0" horiz-adv-x="766" 
d="M391 92q71 0 112 5t62 23.5t27 55.5t6 102v10q0 65 -6 102t-27 55t-62 22.5t-112 4.5h-16q-71 0 -112 -4.5t-62 -22.5t-27 -55t-6 -102v-10q0 -65 6 -102t27 -55.5t62 -23.5t112 -5h16zM373 -7q-105 0 -168 9.5t-97.5 39.5t-45.5 85.5t-11 146.5v16q0 91 11 146.5
t45.5 85.5t97.5 39.5t168 9.5h20q105 0 168 -9.5t97.5 -39.5t45.5 -85.5t11 -146.5v-16q0 -91 -11 -146.5t-45.5 -85.5t-97.5 -39.5t-168 -9.5h-20z" />
    <glyph glyph-name="one" unicode="1" horiz-adv-x="498" 
d="M397 0h-118v461h-3l-201 -147l-58 84l230 166h150v-564z" />
    <glyph glyph-name="two" unicode="2" horiz-adv-x="736" 
d="M691 0h-638q0 6 -0.5 18.5t-0.5 26v25.5v18q0 67 9.5 107.5t41 63t91 31t159.5 11.5q71 2 113 6t63.5 13.5t28 26.5t6.5 44v8q0 25 -6.5 40.5t-26 24.5t-56 12.5t-96.5 3.5h-15q-62 0 -98.5 -3.5t-55 -13.5t-24 -28.5t-5.5 -49.5v-12h-115v12q0 61 10 98t40.5 56.5
t87.5 25.5t151 6h15q95 0 156 -6.5t95.5 -24t47.5 -48t13 -79.5v-20q0 -57 -11.5 -91.5t-41 -54t-80 -27t-128.5 -9.5q-89 -3 -139 -7t-74.5 -13.5t-30 -27.5t-5.5 -48v-25h519v-90z" />
    <glyph glyph-name="three" unicode="3" horiz-adv-x="744" 
d="M696 145q0 -47 -12.5 -76.5t-48.5 -46.5t-100.5 -23t-168.5 -6h-24q-93 0 -149.5 6t-87 24.5t-41 52.5t-10.5 91v21h116v-19q0 -30 5.5 -46.5t23.5 -25t53 -10.5t94 -2h17q69 0 110.5 2t64.5 9.5t30.5 23t7.5 42.5v11q0 23 -6 36.5t-20 20.5t-37 9t-56 2h-161v87h161
q30 0 50.5 3t32.5 10.5t17 20.5t5 32v12q0 23 -7 37.5t-28.5 22.5t-60.5 11t-102 3h-13q-57 0 -91.5 -2t-53 -10.5t-24 -25.5t-5.5 -47v-16h-115v19q0 57 10.5 91t41 52t86.5 24t147 6h22q102 0 164 -7t95.5 -23.5t44 -44.5t10.5 -71v-13q0 -32 -4.5 -53.5t-16 -36
t-30.5 -22.5t-48 -13v-1q28 -5 49.5 -11.5t35 -19.5t20.5 -35t7 -56v-19z" />
    <glyph glyph-name="four" unicode="4" horiz-adv-x="751" 
d="M617 0h-118v121h-453v137l421 306h150v-352h90v-91h-90v-121zM499 212v253h-5l-340 -250v-3h345z" />
    <glyph glyph-name="five" unicode="5" horiz-adv-x="741" 
d="M356 -7q-97 0 -156 5.5t-90.5 23t-41.5 49t-10 83.5v14h114v-10q0 -24 6.5 -38t27.5 -22t60.5 -10.5t104.5 -2.5h17q64 0 102 3t58 12.5t26 28t6 50.5v11q0 31 -4.5 49.5t-23.5 28.5t-56.5 13.5t-104.5 3.5h-32q-50 0 -82 -2t-51.5 -7t-29 -13.5t-13.5 -21.5h-111v323
h602v-91h-491v-153h2q9 16 23.5 27t37.5 17t57.5 8.5t84.5 2.5h34q88 0 142 -7t84 -26.5t40 -53.5t10 -88v-23q0 -58 -11.5 -94t-45.5 -56t-97 -27t-165 -7h-23z" />
    <glyph glyph-name="six" unicode="6" horiz-adv-x="745" 
d="M364 -7q-102 0 -162.5 7.5t-93 34t-42.5 78t-10 140.5v33q0 65 5 111.5t18 78.5t36 50.5t59 28.5t87 13t120 3h21q88 0 142.5 -5.5t84.5 -22.5t40.5 -48.5t10.5 -83.5v-13h-114v10q0 23 -5.5 37.5t-23.5 22.5t-51 10.5t-88 2.5h-14q-71 0 -112 -4.5t-62.5 -21t-27.5 -48
t-6 -85.5v-25h2q9 12 23 22t36 16.5t54.5 10t77.5 3.5h16q99 0 160 -5.5t94 -23.5t44 -52t11 -92v-12q0 -54 -11.5 -87.5t-44.5 -52t-93.5 -25t-159.5 -6.5h-21zM381 85q67 0 105.5 3t58.5 12t25.5 26t5.5 45v9q0 28 -5.5 44t-26 24t-59 10.5t-104.5 2.5h-14
q-62 0 -100 -2.5t-59 -10t-28 -21t-7 -35.5v-7q0 -34 5 -53.5t24.5 -30t58.5 -13.5t106 -3h14z" />
    <glyph glyph-name="seven" unicode="7" horiz-adv-x="705" 
d="M279 0h-144l389 461v3h-490v100h633v-95z" />
    <glyph glyph-name="eight" unicode="8" horiz-adv-x="742" 
d="M377 333q66 0 103 2t56 9.5t23.5 22t4.5 38.5v7q0 23 -5 37t-24 21.5t-56.5 10t-101.5 2.5h-13q-65 0 -102 -2.5t-56.5 -10t-24.5 -21.5t-5 -37v-7q0 -24 4.5 -38.5t23.5 -22t56.5 -9.5t103.5 -2h13zM378 83q63 0 101.5 1.5t59 9t27.5 22.5t7 42v12q0 27 -7 42
t-27.5 22.5t-59 9t-101.5 1.5h-14q-63 0 -101.5 -1.5t-59.5 -9t-27.5 -22.5t-6.5 -42v-12q0 -27 6.5 -42t27.5 -22.5t59.5 -9t101.5 -1.5h14zM360 -7q-99 0 -160 5t-94 20.5t-44 44.5t-11 76v8q0 36 6 61t19.5 41t36 24.5t55.5 12.5v2q-32 4 -53 12t-33.5 22.5t-17.5 38.5
t-5 60v8q0 45 9.5 72.5t41 43t91 21t159.5 5.5h20q100 0 159.5 -5.5t91 -21t41 -43t9.5 -72.5v-8q0 -35 -5 -58.5t-17.5 -38.5t-35 -23.5t-58.5 -12.5v-2q36 -4 60 -12t39 -24t21 -41t6 -62v-8q0 -47 -11 -76t-44 -44.5t-94 -20.5t-161 -5h-21z" />
    <glyph glyph-name="nine" unicode="9" horiz-adv-x="746" 
d="M344 -7q-88 0 -143.5 5.5t-86.5 23t-42 49t-11 83.5v13h113v-10q0 -23 6.5 -37.5t25.5 -22t53.5 -10t89.5 -2.5h13q72 0 113.5 4.5t63 20t27.5 47t6 85.5v25h-2q-9 -12 -23 -21.5t-36 -16.5t-54.5 -10.5t-77.5 -3.5h-17q-99 0 -159.5 5.5t-93.5 23.5t-44 52.5t-11 91.5
v12q0 55 11.5 89t44.5 52t93.5 24t159.5 6h20q102 0 162.5 -7t93 -33.5t42.5 -78t10 -141.5v-32q0 -65 -5 -112t-17.5 -78.5t-35.5 -50.5t-59 -29t-87.5 -13t-120.5 -3h-22zM380 303q63 0 101 3t58.5 10.5t27.5 21t7 35.5v7q0 34 -5 54t-24.5 30.5t-58.5 13.5t-106 3h-14
q-66 0 -105 -3t-58.5 -12.5t-25 -26.5t-5.5 -44v-10q0 -28 5.5 -44t25.5 -24.5t58.5 -11t104.5 -2.5h14z" />
    <glyph glyph-name="colon" unicode=":" horiz-adv-x="252" 
d="M188 270h-123v128h123v-128zM188 0h-123v129h123v-129z" />
    <glyph glyph-name="semicolon" unicode=";" horiz-adv-x="252" 
d="M188 270h-123v128h123v-128zM188 -11q0 -33 -6.5 -54.5t-22.5 -34t-44 -18t-71 -5.5v68q33 0 43.5 9t10.5 30v16h-33v129h123v-140z" />
    <glyph glyph-name="less" unicode="&#x3c;" horiz-adv-x="559" 
d="M501 40l-444 176v66l444 176v-85l-323 -124v-2l323 -122v-85z" />
    <glyph glyph-name="equal" unicode="=" horiz-adv-x="559" 
d="M501 284h-444v81h444v-81zM501 115h-444v81h444v-81z" />
    <glyph glyph-name="greater" unicode="&#x3e;" horiz-adv-x="559" 
d="M501 216l-444 -176v85l323 122v2l-323 124v85l444 -176v-66z" />
    <glyph glyph-name="question" unicode="?" horiz-adv-x="645" 
d="M349 184h-109v13q0 31 5 52t19 35t38 22.5t63 13.5q45 6 72 11.5t40.5 14.5t17.5 23t4 37v8q0 21 -5.5 35t-22 22t-47.5 11t-81 3h-15q-55 0 -88 -2.5t-51 -11.5t-24 -26.5t-6 -47.5v-18h-108v18q0 58 13 92.5t45 52.5t85.5 23.5t133.5 5.5h15q79 0 130 -6t80.5 -22.5
t41 -46t11.5 -76.5v-15q0 -43 -6.5 -71t-24.5 -46t-48.5 -27.5t-78.5 -15.5q-33 -5 -52.5 -8.5t-30 -8.5t-13.5 -12.5t-3 -19.5v-12zM357 0h-122v122h122v-122z" />
    <glyph glyph-name="at" unicode="@" horiz-adv-x="862" 
d="M431 130q37 0 59.5 4t34.5 15t16 29.5t4 47.5v6q0 30 -4.5 49t-17 29t-35 13.5t-57.5 3.5h-11q-30 0 -49 -3t-30 -13t-15 -29t-4 -50v-6q0 -31 4 -50t15 -29t30 -13.5t49 -3.5h11zM777 7q0 -30 -14.5 -49t-52 -29.5t-102.5 -14.5t-165 -4h-24q-118 0 -190 8.5
t-111.5 37.5t-53 84.5t-13.5 150.5v50q0 94 13.5 149.5t53.5 85t112 38.5t189 9h23q123 0 195.5 -8t111 -36t50 -82.5t11.5 -147.5v-42q0 -47 -8 -76.5t-24.5 -46t-43.5 -23t-64 -6.5q-52 0 -79 12t-36 50h-3q-8 -19 -18 -31.5t-25 -20t-37 -10.5t-55 -3h-15q-53 0 -86.5 5
t-52.5 22.5t-26 51t-7 90.5v11q0 54 7 87t26 50.5t52.5 23.5t86.5 6h15q31 0 53 -2.5t37 -9t25.5 -19t19.5 -31.5h2v56h82v-209q0 -38 9 -51.5t39 -13.5q17 0 28 3t17 13t8 29.5t2 52.5v29q0 79 -7.5 124.5t-37 68t-89 28t-163.5 5.5h-23q-99 0 -158 -6.5t-89.5 -30.5
t-39.5 -71t-9 -127v-43q0 -78 8.5 -123.5t38.5 -68.5t89 -29t160 -6h23q87 0 138 2t76.5 7t32.5 13.5t7 20.5v5h81v-8z" />
    <glyph glyph-name="A" unicode="A" horiz-adv-x="789" 
d="M786 0h-139l-60 113h-389l-60 -113h-135l316 564h155zM543 201l-145 274h-6l-147 -274h298z" />
    <glyph glyph-name="B" unicode="B" horiz-adv-x="773" 
d="M63 0v564h435q66 0 108 -8t66 -25t32.5 -43.5t8.5 -63.5q0 -62 -23 -91t-63 -38v-1q52 -7 78.5 -39t26.5 -96q0 -45 -10.5 -75.5t-34 -49t-62 -26.5t-95.5 -8h-467zM509 91q33 0 53 4t31 13.5t14.5 24.5t3.5 37t-3.5 37t-13.5 24t-28 13t-46 4h-334v-157h323zM503 332
q52 0 71 16.5t19 54.5q0 41 -18.5 57t-71.5 16h-317v-144h317z" />
    <glyph glyph-name="C" unicode="C" horiz-adv-x="799" 
d="M402 -7q-113 0 -182.5 9.5t-107.5 39.5t-50.5 85t-12.5 147v16q0 61 5 105.5t19 75.5t38.5 50.5t63.5 30.5t95 15t132 4h25q103 0 165.5 -7.5t96.5 -27t45 -54.5t11 -89v-22h-120v11q0 28 -5.5 46.5t-26 28.5t-60.5 14t-110 4h-17q-80 0 -126.5 -5t-70 -24t-30 -56.5
t-6.5 -102.5v-10q0 -65 6.5 -102t30 -55.5t70 -23.5t126.5 -5h17q71 0 112.5 3.5t63 14.5t27.5 30t6 51v9h119v-26q0 -53 -12 -87.5t-47 -55t-98.5 -29t-166.5 -8.5h-25z" />
    <glyph glyph-name="D" unicode="D" horiz-adv-x="836" 
d="M787 274q0 -59 -4.5 -102.5t-17.5 -74t-37 -49.5t-63.5 -29.5t-95.5 -14.5t-134 -4h-372v564h372q116 0 185.5 -9t106.5 -37.5t48.5 -82.5t11.5 -145v-16zM425 98q83 0 130.5 6t71.5 24.5t30 54t6 95.5v10q0 62 -6.5 98t-30.5 54t-71.5 23t-129.5 5h-238v-370h238z" />
    <glyph glyph-name="E" unicode="E" horiz-adv-x="680" 
d="M652 0h-589v564h583v-94h-460v-136h437v-92h-437v-145h466v-97z" />
    <glyph glyph-name="F" unicode="F" horiz-adv-x="646" 
d="M186 0h-123v564h563v-97h-440v-154h421v-92h-421v-221z" />
    <glyph glyph-name="G" unicode="G" horiz-adv-x="800" 
d="M402 -7q-115 0 -184.5 10t-107 40t-49.5 85t-12 146v16q0 91 12.5 146.5t50 85.5t107 39.5t183.5 9.5h25q100 0 162 -7t96.5 -26t47 -53t12.5 -87v-18h-121v7q0 28 -6 45t-27 27t-61 13.5t-108 3.5h-16q-80 0 -126.5 -5t-70 -24t-30 -57t-6.5 -103v-10q0 -64 6.5 -101.5
t30 -56.5t70 -24t126.5 -5h16q72 0 113.5 4.5t62.5 15.5t27 31t6 52v25h-257v86h377v-108q0 -62 -12.5 -101t-48 -62t-99 -31.5t-164.5 -8.5h-25z" />
    <glyph glyph-name="H" unicode="H" horiz-adv-x="812" 
d="M749 0h-124v239h-438v-239h-124v564h124v-222h438v222h124v-564z" />
    <glyph glyph-name="I" unicode="I" horiz-adv-x="250" 
d="M187 0h-124v564h124v-564z" />
    <glyph glyph-name="J" unicode="J" horiz-adv-x="635" 
d="M285 -7q-82 0 -132.5 7t-78.5 27.5t-37.5 56.5t-9.5 94v39h122v-14q0 -37 4.5 -59t18.5 -34t41.5 -15.5t74.5 -3.5h17q49 0 78 3.5t44 16t19.5 37t4.5 65.5v351h123v-358q0 -69 -10 -111t-38.5 -64.5t-80 -30t-135.5 -7.5h-25z" />
    <glyph glyph-name="K" unicode="K" horiz-adv-x="757" 
d="M757 0h-178l-302 237h-90v-237h-124v564h124v-227h96l280 227h164l-350 -274z" />
    <glyph glyph-name="L" unicode="L" horiz-adv-x="605" 
d="M595 0h-532v564h124v-466h408v-98z" />
    <glyph glyph-name="M" unicode="M" horiz-adv-x="1016" 
d="M953 0h-121v457h-3l-271 -457h-98l-273 457h-3v-457h-121v564h188l259 -436h2l256 436h185v-564z" />
    <glyph glyph-name="N" unicode="N" horiz-adv-x="846" 
d="M783 0h-186l-408 459h-4v-459h-122v564h189l405 -459h4v459h122v-564z" />
    <glyph glyph-name="O" unicode="O" horiz-adv-x="838" 
d="M407 -7q-117 0 -187.5 9.5t-108.5 39t-50 85t-12 147.5v16q0 93 12 148.5t50 85t108.5 38.5t187.5 9h25q117 0 187 -9t108 -38.5t50 -85t12 -148.5v-16q0 -93 -12 -148.5t-50 -85t-108 -38.5t-187 -9h-25zM427 90q55 0 94 2t65.5 8.5t42 19t23.5 33.5t10.5 51.5t2.5 73.5
v9q0 65 -6.5 103t-30.5 57t-71.5 24t-129.5 5h-16q-82 0 -129.5 -5t-71.5 -24t-30.5 -57t-6.5 -103v-9q0 -65 6.5 -102t30.5 -56.5t71.5 -24.5t129.5 -5h16z" />
    <glyph glyph-name="P" unicode="P" horiz-adv-x="740" 
d="M419 271q58 0 91 3t50 13t21.5 28.5t4.5 50.5v9q0 32 -4.5 51t-21.5 29t-50 13t-91 3h-233v-200h233zM186 0h-123v564h378q83 0 135 -6.5t81 -26.5t39.5 -56.5t10.5 -96.5v-14q0 -60 -10.5 -96.5t-39.5 -57t-81 -27t-135 -6.5h-255v-177z" />
    <glyph glyph-name="Q" unicode="Q" horiz-adv-x="851" 
d="M407 -7q-117 0 -187.5 9.5t-108.5 39t-50 85t-12 147.5v16q0 93 12 148.5t50 85t108.5 38.5t187.5 9h25q117 0 187 -9t108 -38.5t50 -85t12 -148.5v-16q0 -48 -3 -86t-11 -67l72 -40l-50 -82l-67 46q-38 -32 -109 -42t-189 -10h-25zM427 90q78 0 124 3.5t72 18.5
l-196 115l54 82l183 -119q3 34 3 88v9q0 65 -6.5 103t-30.5 57t-72 24t-131 5h-16q-82 0 -129.5 -5t-71.5 -24t-30.5 -57t-6.5 -103v-9q0 -65 6.5 -102t30.5 -56.5t71.5 -24.5t129.5 -5h16z" />
    <glyph glyph-name="R" unicode="R" horiz-adv-x="770" 
d="M450 276q43 0 70.5 4t42.5 14t20.5 27.5t5.5 43.5v13q0 30 -5 48.5t-20.5 28.5t-44.5 13t-76 3h-257v-195h264zM713 0h-123v54q0 43 -5.5 68.5t-23.5 39.5t-53 18.5t-94 4.5h-228v-185h-123v564h427q67 0 110.5 -7.5t69 -26t35 -51t9.5 -81.5v-21q0 -66 -25 -98t-76 -43
v-4q30 -5 49.5 -12.5t30.5 -23t15.5 -40t4.5 -63.5v-93z" />
    <glyph glyph-name="S" unicode="S" horiz-adv-x="768" 
d="M717 163q0 -52 -11.5 -85t-44.5 -52t-93.5 -26t-159.5 -7h-27q-110 0 -174.5 6t-98 24.5t-43 52t-9.5 87.5v17h122v-13q0 -27 6.5 -43t27 -24.5t59 -11t102.5 -2.5h22q67 0 107 3t61 11.5t27 22.5t6 36v6q0 24 -5.5 38.5t-26.5 23t-62.5 11.5t-113.5 3q-111 0 -175 6.5
t-97 23.5t-42 48t-9 81v7q0 50 11 82t42.5 50t88.5 25t148 7h28q106 0 169 -7.5t96 -26t42.5 -51t9.5 -81.5v-15h-122v9q0 25 -5.5 41t-24 25t-53.5 12t-93 3h-22q-65 0 -103.5 -2.5t-58.5 -10.5t-26 -22.5t-6 -37.5v-6q0 -21 5 -34t26 -20.5t64 -10t120 -2.5
q105 0 167.5 -6t95.5 -23.5t43 -50t10 -85.5v-6z" />
    <glyph glyph-name="T" unicode="T" horiz-adv-x="663" 
d="M393 0h-123v467h-260v97h643v-97h-260v-467z" />
    <glyph glyph-name="U" unicode="U" horiz-adv-x="802" 
d="M392 -7q-105 0 -169.5 9.5t-100.5 33.5t-48.5 65.5t-12.5 105.5v357h123v-330q0 -48 7 -76.5t29 -43t63 -19t108 -4.5h18q67 0 108 4.5t63.5 19.5t30 43t7.5 76v330h123v-357q0 -63 -12.5 -104.5t-48.5 -66t-101 -34t-171 -9.5h-16z" />
    <glyph glyph-name="V" unicode="V" horiz-adv-x="782" 
d="M466 0h-151l-312 564h141l249 -457h3l244 457h139z" />
    <glyph glyph-name="W" unicode="W" horiz-adv-x="1064" 
d="M851 0h-150l-167 425h-2l-168 -425h-152l-205 564h132l159 -454h2l175 454h123l176 -454h2l154 454h127z" />
    <glyph glyph-name="X" unicode="X" horiz-adv-x="788" 
d="M779 0h-160l-225 230l-226 -230h-160l292 287l-268 277h155l207 -215l208 215h154l-268 -277z" />
    <glyph glyph-name="Y" unicode="Y" horiz-adv-x="761" 
d="M442 0h-124v205l-315 359h150l228 -261h3l224 261h150l-316 -359v-205z" />
    <glyph glyph-name="Z" unicode="Z" horiz-adv-x="732" 
d="M694 0h-656v95l485 378v1h-470v90h633v-97l-484 -374v-1h492v-92z" />
    <glyph glyph-name="bracketleft" unicode="[" horiz-adv-x="349" 
d="M278 -7h-220v578h220v-81h-109v-415h109v-82z" />
    <glyph glyph-name="backslash" unicode="\" horiz-adv-x="445" 
d="M400 -7h-89l-267 578h89z" />
    <glyph glyph-name="bracketright" unicode="]" horiz-adv-x="349" 
d="M290 -7h-219v82h108v415h-108v81h219v-578z" />
    <glyph glyph-name="asciicircum" unicode="^" horiz-adv-x="622" 
d="M603 251h-119l-172 223h-2l-173 -223h-117l246 313h88z" />
    <glyph glyph-name="underscore" unicode="_" horiz-adv-x="476" 
d="M476 -126h-476v59h476v-59z" />
    <glyph glyph-name="grave" unicode="`" horiz-adv-x="415" 
d="M250 443l-176 87l45 63l157 -114z" />
    <glyph glyph-name="a" unicode="a" horiz-adv-x="596" 
d="M540 0h-113v46h-2q-11 -14 -23 -23.5t-30 -16.5t-45 -10t-67 -3h-18q-62 0 -101 5.5t-60.5 20t-29 38t-7.5 59.5v14q0 34 9 57t31.5 37t60.5 19.5t96 5.5h18q72 0 109.5 -8t54.5 -30h4v30q0 31 -3.5 49.5t-16.5 28t-38 12.5t-68 3h-16q-38 0 -61.5 -2t-36.5 -7.5
t-17.5 -14.5t-4.5 -24v-7h-109v9q0 35 11.5 57.5t38.5 36t72 18.5t112 5h19q74 0 119.5 -6.5t70 -26.5t33 -58.5t8.5 -101.5v-212zM297 64q42 0 67.5 2.5t40 9t19.5 17.5t5 28v5q0 18 -5 29t-20 17t-41.5 8.5t-68.5 2.5h-11q-41 0 -66 -2.5t-38.5 -8.5t-18 -17t-4.5 -29v-5
q0 -18 4.5 -29t18 -17t39 -8.5t68.5 -2.5h11z" />
    <glyph glyph-name="b" unicode="b" horiz-adv-x="634" 
d="M352 -7q-38 0 -66.5 3t-50 10.5t-36.5 20t-27 31.5h-2v-58h-111v564h114v-223h2q20 36 60.5 50t111.5 14h16q69 0 113 -7t70 -28.5t36 -60.5t10 -103v-11q0 -63 -9.5 -102.5t-35 -61.5t-70 -30t-114.5 -8h-11zM339 78q45 0 72.5 4t42 16.5t19 35.5t4.5 61v11
q0 38 -4.5 61t-19 35t-42 16t-72.5 4h-24q-46 0 -74 -4t-43.5 -16t-20.5 -35t-5 -61v-11q0 -38 5 -60.5t20.5 -35.5t43.5 -17t74 -4h24z" />
    <glyph glyph-name="c" unicode="c" horiz-adv-x="599" 
d="M295 -7q-78 0 -127 8.5t-77 31t-38.5 62t-10.5 100.5v11q0 61 10.5 100t38.5 61t77 30t127 8h31q69 0 113.5 -6.5t70.5 -23t36 -44t10 -69.5v-16h-109v4q0 22 -5.5 36.5t-19.5 22t-38 10.5t-61 3h-24q-47 0 -75 -4t-43 -16t-20 -35t-5 -61v-11q0 -39 5 -62t20.5 -35
t43.5 -16t74 -4h24q41 0 65.5 3.5t37.5 12.5t17 23.5t4 36.5v4h110v-19q0 -41 -10 -69t-36.5 -45t-71 -24.5t-113.5 -7.5h-31z" />
    <glyph glyph-name="d" unicode="d" horiz-adv-x="634" 
d="M575 0h-110v58h-2q-12 -19 -27.5 -31.5t-37 -20t-50 -10.5t-66.5 -3h-11q-70 0 -114.5 8t-70 30t-35 61.5t-9.5 102.5v11q0 64 10 103t36 60.5t70 28.5t113 7h17q70 0 110.5 -14t60.5 -50h2v223h114v-564zM320 78q46 0 74 4t43 16.5t20 35.5t5 61v11q0 38 -5 61t-20 35
t-43 16t-74 4h-24q-45 0 -72.5 -4t-42.5 -16t-19.5 -35t-4.5 -61v-11q0 -38 4.5 -61t19.5 -35.5t42.5 -16.5t72.5 -4h24z" />
    <glyph glyph-name="e" unicode="e" horiz-adv-x="593" 
d="M297 -7q-78 0 -128 8t-78 30t-38.5 61t-10.5 102v10q0 60 11 99t38 61.5t74 31.5t119 9h24q74 0 121 -7.5t73.5 -27t36.5 -53t10 -85.5v-54h-394v-8q0 -32 5 -52t20.5 -30.5t43.5 -14t74 -3.5h16q41 0 66 3t39 9.5t19 18t5 29.5v5h108v-9q0 -38 -12 -63.5t-39 -41
t-70.5 -22t-106.5 -6.5h-26zM440 244v12q0 24 -4.5 39t-19 23.5t-41 11.5t-71.5 3h-9q-45 0 -72.5 -4t-42.5 -14t-20 -27.5t-5 -43.5h285z" />
    <glyph glyph-name="f" unicode="f" horiz-adv-x="331" 
d="M203 0h-113v319h-77v79h77v32q0 79 39 109.5t127 30.5q26 0 48.5 -1t44.5 -3v-76q-16 2 -33 2.5t-31 0.5q-26 0 -42 -3t-25 -11t-12 -21t-3 -34v-26h125v-79h-125v-319z" />
    <glyph glyph-name="g" unicode="g" horiz-adv-x="626" 
d="M286 -148q-66 0 -110.5 5t-71.5 18.5t-38 38t-11 63.5v10h114v-6q0 -11 4 -19.5t17 -14t35.5 -8.5t60.5 -3h24q47 0 75.5 3.5t43.5 14.5t19.5 31.5t4.5 55.5v52h-2q-9 -17 -22.5 -29.5t-33.5 -20.5t-48 -12t-66 -4h-10q-68 0 -112 6.5t-70 26t-36.5 55.5t-10.5 94v10
q0 58 9.5 94.5t35 57t68.5 27.5t111 7h11q71 0 112 -13t65 -52h2v58h111v-342q0 -65 -11.5 -104.5t-40.5 -62t-78.5 -30t-126.5 -7.5h-24zM314 111q44 0 71.5 4t42.5 15.5t20.5 31t5.5 50.5v10q0 31 -5.5 50.5t-20.5 30.5t-42.5 15t-71.5 4h-22q-44 0 -70.5 -3.5t-41.5 -14
t-20 -30.5t-5 -52v-10q0 -32 5 -51.5t20 -30.5t41.5 -15t70.5 -4h22z" />
    <glyph glyph-name="h" unicode="h" horiz-adv-x="632" 
d="M575 0h-114v207q0 34 -4.5 55.5t-18.5 33.5t-40 16.5t-68 4.5h-10q-81 0 -114 -24t-33 -87v-206h-114v564h114v-235h2q11 19 25 33.5t35 24t50 14t69 4.5h10q63 0 104 -8t64.5 -29t33 -57t9.5 -91v-220z" />
    <glyph glyph-name="i" unicode="i" horiz-adv-x="232" 
d="M173 0h-114v398h114v-398zM173 466h-114v98h114v-98z" />
    <glyph glyph-name="j" unicode="j" horiz-adv-x="232" 
d="M173 -17q0 -70 -28 -98.5t-98 -28.5h-26t-25 2v85q8 -1 13.5 -1h9.5q23 0 31.5 10.5t8.5 44.5v401h114v-415zM173 466h-114v98h114v-98z" />
    <glyph glyph-name="k" unicode="k" horiz-adv-x="566" 
d="M564 0h-154l-203 173h-34v-173h-114v564h114v-311h35l176 145h150l-233 -186z" />
    <glyph glyph-name="l" unicode="l" horiz-adv-x="232" 
d="M173 0h-114v564h114v-564z" />
    <glyph glyph-name="m" unicode="m" horiz-adv-x="950" 
d="M896 0h-115v207q0 34 -4.5 55.5t-16.5 33.5t-32.5 16.5t-52.5 4.5h-11q-38 0 -62.5 -5.5t-39.5 -18.5t-21 -34.5t-6 -53.5v-205h-115v207q0 33 -4.5 54.5t-16 34t-32 17t-52.5 4.5h-10q-38 0 -63 -5t-40.5 -18t-22 -34t-6.5 -53v-207h-114v398h114v-69h2q9 16 21.5 29.5
t32 24t45.5 16.5t62 6h11q42 0 71.5 -5t50 -16t33 -28t20.5 -41h1q15 37 55 63.5t118 26.5h11q57 0 93.5 -8t58 -29t29.5 -56.5t8 -90.5v-221z" />
    <glyph glyph-name="n" unicode="n" horiz-adv-x="632" 
d="M575 0h-114v207q0 34 -4.5 55.5t-18.5 33.5t-40 16.5t-68 4.5h-10q-81 0 -114 -24t-33 -87v-206h-114v398h114v-69h2q11 19 25 33.5t35 24t50 14t69 4.5h10q63 0 104 -8t64.5 -29t33 -57t9.5 -91v-220z" />
    <glyph glyph-name="o" unicode="o" horiz-adv-x="618" 
d="M320 77q48 0 76 4t43 16.5t19.5 35.5t4.5 62v11q0 38 -4.5 61t-19.5 35.5t-43 16.5t-76 4h-23q-47 0 -75.5 -4t-43.5 -16.5t-19.5 -35.5t-4.5 -61v-11q0 -38 4.5 -61.5t19.5 -36t43.5 -16.5t75.5 -4h23zM294 -7q-78 0 -127.5 8t-77 30.5t-37.5 61.5t-10 102v11
q0 63 10.5 101.5t38 60.5t76.5 29.5t127 7.5h31q78 0 126.5 -7.5t76 -29.5t37.5 -60.5t10 -101.5v-11q0 -63 -10 -102t-37 -61.5t-76 -30.5t-127 -8h-31z" />
    <glyph glyph-name="p" unicode="p" horiz-adv-x="634" 
d="M173 -141h-114v539h111v-57h2q12 19 27.5 31.5t37 20t49.5 10t66 2.5h11q70 0 114.5 -7.5t70 -29.5t35 -61.5t9.5 -102.5v-11q0 -64 -10 -103t-36 -60.5t-70 -29t-113 -7.5h-16q-71 0 -110.5 14.5t-61.5 50.5h-2v-199zM339 78q45 0 72.5 4t42 16.5t19 35.5t4.5 61v11
q0 38 -4.5 61t-19.5 35t-42 16t-72 4h-24q-46 0 -74 -4t-43.5 -16t-20.5 -35t-5 -61v-11q0 -38 5 -61t20.5 -35.5t43.5 -16.5t74 -4h24z" />
    <glyph glyph-name="q" unicode="q" horiz-adv-x="634" 
d="M575 -141h-114v199h-2q-21 -36 -61 -50.5t-110 -14.5h-17q-69 0 -113 7.5t-70 29t-36 60.5t-10 103v11q0 63 9.5 102.5t35 61.5t70 29.5t114.5 7.5h11q38 0 66.5 -2.5t49.5 -10t37 -20t28 -31.5h2v57h110v-539zM320 78q46 0 74 4t43 16.5t20 35.5t5 61v11q0 38 -5 61
t-20 35t-43 16t-74 4h-24q-45 0 -72.5 -4t-42.5 -16t-19.5 -35t-4.5 -61v-11q0 -38 4.5 -61t19.5 -35.5t42.5 -16.5t72.5 -4h24z" />
    <glyph glyph-name="r" unicode="r" horiz-adv-x="515" 
d="M173 0h-114v398h113v-82h2q16 43 52 66t110 23h8q48 0 77.5 -7t46 -23t22.5 -42t6 -63v-18.5t-1 -19.5h-104v21q0 21 -4 34.5t-14.5 20.5t-30 9.5t-49.5 2.5h-7q-58 0 -85.5 -24t-27.5 -89v-207z" />
    <glyph glyph-name="s" unicode="s" horiz-adv-x="593" 
d="M278 -7q-73 0 -118 6.5t-70.5 20t-34.5 34.5t-9 51v18h113v-3q0 -15 4 -24.5t16.5 -15.5t35 -8t59.5 -2h35q45 0 71.5 2t40 7t17.5 14.5t4 23.5v5q0 14 -4.5 23t-19.5 14t-44.5 7t-80.5 2q-78 0 -125.5 5t-72.5 17.5t-33 34.5t-8 56v9q0 33 9.5 55t34 35.5t66.5 19
t108 5.5h28q73 0 119 -5t71 -18t34 -34.5t9 -55.5v-10h-110v4q0 15 -3.5 24t-15.5 14.5t-35.5 7.5t-62.5 2h-21q-39 0 -63 -1.5t-37 -6.5t-17 -13.5t-4 -21.5v-5q0 -13 4 -20.5t19 -12t43.5 -6t77.5 -1.5q77 0 124.5 -5t74 -18t36 -35.5t9.5 -58.5v-10q0 -37 -10.5 -61
t-37.5 -38.5t-73.5 -20.5t-118.5 -6h-34z" />
    <glyph glyph-name="t" unicode="t" horiz-adv-x="493" 
d="M259 -7q-51 0 -83.5 7t-51.5 25.5t-26.5 50.5t-7.5 82v161h-77v79h77v104h113v-104h258v-79h-258v-143q0 -34 2.5 -53.5t10.5 -29.5t23 -13t41 -3h11q25 0 40.5 3t24 12t11 24t2.5 39v23h99v-41q0 -42 -9.5 -69.5t-31.5 -44t-58.5 -23.5t-90.5 -7h-19z" />
    <glyph glyph-name="u" unicode="u" horiz-adv-x="627" 
d="M568 0h-115v72h-1q-10 -21 -24 -35.5t-35 -24.5t-50.5 -14.5t-69.5 -4.5h-10q-65 0 -106 8t-64.5 28.5t-32 56.5t-8.5 92v220h115v-205q0 -35 4.5 -57t18 -34.5t39 -17t68.5 -4.5h11q40 0 67.5 5.5t45 18t25 34.5t7.5 55v205h115v-398z" />
    <glyph glyph-name="v" unicode="v" horiz-adv-x="565" 
d="M352 0h-141l-208 398h124l155 -310h3l154 310h123z" />
    <glyph glyph-name="w" unicode="w" horiz-adv-x="845" 
d="M676 0h-149l-104 265h-3l-103 -265h-149l-161 398h121l115 -316h4l122 316h107l123 -316h3l115 316h121z" />
    <glyph glyph-name="x" unicode="x" horiz-adv-x="577" 
d="M565 0h-138l-139 153l-138 -153h-138l193 208l-178 190h138l124 -138l123 138h138l-179 -190z" />
    <glyph glyph-name="y" unicode="y" horiz-adv-x="546" 
d="M85 -61q9 -1 18 -1h17q26 0 44 3.5t30.5 11.5t23 22.5t21.5 36.5h-38l-198 386h122l150 -304h5l142 304h121l-175 -350q-31 -62 -54.5 -99.5t-47.5 -58t-53 -27.5t-70 -7h-27.5t-30.5 1v82z" />
    <glyph glyph-name="z" unicode="z" horiz-adv-x="500" 
d="M475 0h-447v76l297 243v1h-284v78h427v-83l-290 -233v-1h297v-81z" />
    <glyph glyph-name="braceleft" unicode="{" horiz-adv-x="349" 
d="M276 -7h-77q-60 0 -89 21t-29 78v98q0 32 -10.5 49.5t-43.5 17.5v55q33 0 43.5 17.5t10.5 49.5v93q0 58 29 78.5t89 20.5h77v-68h-25q-38 0 -50 -11.5t-12 -39.5v-70q0 -22 -1.5 -38.5t-8.5 -28.5t-20.5 -19t-38.5 -10v-2q25 -3 38.5 -10t20.5 -19t8.5 -28.5t1.5 -38.5
v-75q0 -28 12 -40t50 -12h25v-68z" />
    <glyph glyph-name="bar" unicode="|" horiz-adv-x="303" 
d="M193 -58h-83v680h83v-680z" />
    <glyph glyph-name="braceright" unicode="}" horiz-adv-x="349" 
d="M73 -7v68h24q39 0 50.5 12t11.5 40v75q0 22 1.5 38.5t8.5 28.5t21 19t38 10v2q-24 3 -38 10t-21 19t-8.5 28.5t-1.5 38.5v70q0 28 -11.5 39.5t-50.5 11.5h-24v68h76q61 0 90 -20.5t29 -78.5v-93q0 -32 10.5 -49.5t42.5 -17.5v-55q-32 0 -42.5 -17.5t-10.5 -49.5v-98
q0 -57 -29 -78t-90 -21h-76z" />
    <glyph glyph-name="asciitilde" unicode="~" horiz-adv-x="559" 
d="M497 271q-26 -50 -54.5 -74t-72.5 -24q-29 0 -51.5 9t-42.5 21q-21 14 -41.5 24t-43.5 10q-26 0 -41.5 -15t-29.5 -42l-59 38q26 50 54.5 73.5t72.5 23.5q28 0 50.5 -9t43.5 -22q21 -14 42 -23.5t43 -9.5q27 0 42 15.5t29 41.5z" />
    <glyph glyph-name="exclamdown" unicode="&#xa1;" horiz-adv-x="261" 
d="M192 270h-122v128h122v-128zM192 -166h-122l7 371h107z" />
    <glyph glyph-name="cent" unicode="&#xa2;" horiz-adv-x="628" 
d="M348 -29h-64v95q-71 1 -115.5 10.5t-69.5 32t-34 61t-9 98.5v11q0 61 9 99.5t34 60t69.5 30t115.5 9.5v86h64v-86q65 0 108 -7t68.5 -23.5t35.5 -43.5t10 -69v-16h-104v4q0 22 -4.5 35.5t-17.5 21.5t-36 11t-60 3v-242q38 1 61.5 4.5t36 12t16.5 22.5t4 35v5h106v-23
q0 -40 -10 -67t-35.5 -43.5t-68.5 -24t-110 -7.5v-95zM164 268q0 -36 4 -58t16.5 -34.5t36.5 -17.5t63 -6v241q-40 0 -63.5 -4.5t-36 -17t-16.5 -34.5t-4 -58v-11z" />
    <glyph glyph-name="sterling" unicode="&#xa3;" horiz-adv-x="751" 
d="M706 0h-650v90q25 4 40.5 13t25 25.5t13.5 41.5t5 61h-89v80h90q1 85 11.5 136t40 78.5t82.5 36.5t138 9h14q72 0 121 -5t79 -22.5t43 -49.5t13 -86v-11h-117v8q0 24 -5 39t-20 23t-42.5 11t-71.5 3h-14q-53 0 -84 -5t-48 -22t-22.5 -51t-6.5 -92h259v-80h-260
q-2 -33 -6 -55.5t-11.5 -37.5t-19.5 -25t-30 -18v-2h522v-93z" />
    <glyph glyph-name="currency" unicode="&#xa4;" horiz-adv-x="643" 
d="M528 -6l-80 79q-52 -37 -125 -37q-35 0 -66 9.5t-60 29.5l-82 -81l-53 53l80 80q-40 51 -40 129q0 75 37 127l-77 76l53 53l78 -77q27 19 59.5 29.5t70.5 10.5q37 0 69.5 -10t59.5 -28l75 75l54 -53l-75 -75q18 -25 28.5 -57.5t10.5 -70.5q0 -39 -10.5 -72.5t-30.5 -59.5
l77 -77zM323 123q29 0 52.5 10.5t40.5 28.5t26 42.5t9 51.5t-9.5 51t-26 42t-40.5 28.5t-52 10.5q-29 0 -52.5 -10.5t-40 -28.5t-25.5 -42t-9 -51t9 -51.5t25.5 -42.5t40 -28.5t52.5 -10.5z" />
    <glyph glyph-name="yen" unicode="&#xa5;" horiz-adv-x="732" 
d="M427 0h-122v165h-241v52h241v12l-58 67h-183v52h140l-184 216h144l202 -262h2l200 262h144l-185 -216h141v-52h-184l-57 -67v-12h241v-52h-241v-165z" />
    <glyph glyph-name="brokenbar" unicode="&#xa6;" horiz-adv-x="303" 
d="M193 354h-83v268h83v-268zM193 -58h-83v273h83v-273z" />
    <glyph glyph-name="section" unicode="&#xa7;" horiz-adv-x="755" 
d="M691 -36q0 -40 -13 -66.5t-46.5 -42.5t-91.5 -22.5t-147 -6.5h-26q-100 0 -160 6t-92 22.5t-42 45.5t-10 75v19h125v-11q0 -20 5 -33t23.5 -20.5t54.5 -11t99 -3.5h10q64 0 101 3t56.5 10.5t25 20t5.5 32.5v6q0 20 -6 33t-25 20.5t-54.5 10t-93.5 2.5h-35q-85 0 -140 5.5
t-87 20t-44.5 38.5t-12.5 62v13q0 45 22.5 70t81.5 36v1q-32 3 -52 12.5t-31.5 24.5t-16 35t-4.5 46v9q0 43 12 71.5t44 44.5t89.5 22.5t148.5 6.5h28q102 0 161 -7t88.5 -25t37.5 -48.5t8 -78.5v-16h-121v10q0 22 -5.5 37t-23.5 24t-51 12.5t-88 3.5h-22q-62 0 -98.5 -2.5
t-55.5 -10t-25 -20t-6 -31.5v-7q0 -20 5.5 -32.5t23.5 -20t53 -10t94 -2.5h22q92 0 151 -5.5t92.5 -19.5t46 -39t12.5 -64v-10q0 -54 -25.5 -79t-82.5 -31v-1q31 -5 51.5 -13.5t33 -23t18 -36t5.5 -52.5v-9zM383 129q62 0 98.5 3t56 10.5t25 20t5.5 32.5v9q0 20 -5.5 33
t-24.5 20.5t-54.5 10.5t-96.5 3h-11q-62 0 -98.5 -3.5t-55.5 -11t-25 -20t-6 -30.5v-10q0 -19 5.5 -32t23.5 -20.5t52.5 -11t93.5 -3.5h17z" />
    <glyph glyph-name="dieresis" unicode="&#xa8;" horiz-adv-x="415" 
d="M162 466h-98v98h98v-98zM354 466h-98v98h98v-98z" />
    <glyph glyph-name="copyright" unicode="&#xa9;" horiz-adv-x="802" 
d="M402 116q-62 0 -100.5 5.5t-60.5 22.5t-30 50t-8 87v8q0 54 8 86.5t30 49.5t60.5 22t100.5 5h13q53 0 88 -5.5t56 -19t29.5 -36.5t8.5 -57v-13h-89v4q0 18 -4 29t-14.5 17.5t-29 8.5t-48.5 2h-8q-38 0 -60.5 -2.5t-34 -12.5t-15 -28.5t-3.5 -49.5v-8q0 -32 3.5 -50.5
t15 -28.5t34 -12.5t60.5 -2.5h8q30 0 49 3t29.5 9.5t14.5 18t4 29.5v4h89v-20q0 -33 -8 -55t-28.5 -35.5t-56 -19t-90.5 -5.5h-13zM413 32q97 0 153.5 7t86 32t38 74t8.5 132v10q0 84 -8.5 132.5t-38 74t-86 32.5t-153.5 7h-24q-97 0 -154 -7t-86 -32.5t-37.5 -74
t-8.5 -132.5v-10q0 -83 8.5 -132t37.5 -74t86 -32t154 -7h24zM389 -7q-107 0 -172 9t-100 38.5t-46 85t-11 148.5v16q0 93 11 149t46 85t100 38t172 9h24q107 0 171.5 -9t99.5 -38t46.5 -85t11.5 -149v-16q0 -93 -11.5 -148.5t-46.5 -85t-99.5 -38.5t-171.5 -9h-24z" />
    <glyph glyph-name="ordfeminine" unicode="&#xaa;" horiz-adv-x="401" 
d="M200 359q48 0 64.5 6t16.5 23v5q0 19 -18 24.5t-67 5.5h-8q-24 0 -38 -1.5t-21.5 -4.5t-10 -9t-2.5 -15v-5q0 -9 2.5 -14.5t10.5 -8.5t23 -4.5t41 -1.5h7zM352 315h-71v19h-1q-6 -6 -12.5 -10.5t-18 -7t-28.5 -4t-43 -1.5h-10q-36 0 -60 3t-37.5 11.5t-19 22.5t-5.5 36
v13q0 44 27.5 56.5t92.5 12.5h12q25 0 42 -1t28 -3t18 -5.5t13 -9.5h1v15q0 17 -2.5 27.5t-10.5 16.5t-23.5 8t-41.5 2h-11q-38 0 -52 -5.5t-14 -20.5v-5h-70v6q0 23 6.5 37t23.5 22t45 11t72 3h10q44 0 71.5 -3.5t42.5 -15.5t20.5 -35.5t5.5 -63.5v-131z" />
    <glyph glyph-name="guillemotleft" unicode="&#xab;" horiz-adv-x="452" 
d="M221 85l-78 -26l-94 166l94 167l78 -26l-77 -141zM398 85l-78 -26l-94 166l94 167l78 -26l-78 -141z" />
    <glyph glyph-name="logicalnot" unicode="&#xac;" horiz-adv-x="559" 
d="M501 110h-84v163h-360v81h444v-244z" />
    <glyph glyph-name="registered" unicode="&#xae;" horiz-adv-x="564" 
d="M302 394q31 0 40.5 5.5t9.5 22.5v5q0 20 -9 25t-41 5h-80v-63h80zM401 291h-48v22q0 15 -2 23.5t-9 13t-20.5 5.5t-35.5 1h-64v-65h-50v204h148q24 0 40 -2.5t25.5 -9.5t13 -18.5t3.5 -30.5v-7q0 -23 -8.5 -33.5t-22.5 -15.5v-1q17 -5 23.5 -15t6.5 -37v-34zM289 252
q61 0 96.5 4.5t54.5 19t24.5 41.5t5.5 72v9q0 45 -5.5 71.5t-24.5 41t-54.5 19t-96.5 4.5h-13q-61 0 -97 -4.5t-55 -19t-24.5 -41t-5.5 -71.5v-9q0 -45 5.5 -72t24.5 -41.5t55 -19t97 -4.5h13zM276 221q-69 0 -111.5 5.5t-66.5 23.5t-32.5 51t-8.5 88v9q0 55 8.5 88
t32.5 50.5t66.5 23t111.5 5.5h13q68 0 110.5 -5.5t66 -23t32 -50.5t8.5 -88v-9q0 -55 -8.5 -88t-32 -51t-66 -23.5t-110.5 -5.5h-13z" />
    <glyph glyph-name="macron" unicode="&#xaf;" horiz-adv-x="415" 
d="M335 488h-255v60h255v-60z" />
    <glyph glyph-name="degree" unicode="&#xb0;" horiz-adv-x="342" 
d="M171 334q-29 0 -53.5 10t-42.5 28t-28 42t-10 52t10 52.5t28 42t42.5 27.5t53.5 10q28 0 52.5 -10t42.5 -27.5t28.5 -42t10.5 -52.5t-10.5 -52t-28.5 -42t-42.5 -28t-52.5 -10zM171 384q35 0 57.5 23.5t22.5 58.5t-22.5 59t-57.5 24t-58 -24t-23 -59t23 -58.5t58 -23.5z
" />
    <glyph glyph-name="plusminus" unicode="&#xb1;" horiz-adv-x="559" 
d="M501 0h-444v81h444v-81zM501 281h-181v-141h-83v141h-180v81h180v141h83v-141h181v-81z" />
    <glyph glyph-name="uni00B2" unicode="&#xb2;" horiz-adv-x="457" 
d="M427 376h-388v56q0 30 8.5 50.5t29.5 33t56.5 19t88.5 8.5q41 1 65.5 3.5t37 7t16 12.5t3.5 21v6q0 12 -4 20t-16 12t-34.5 5.5t-60.5 1.5h-8q-34 0 -54 -1.5t-30.5 -6.5t-13.5 -14t-3 -24v-8h-75v14q0 30 6 49t24.5 29.5t52.5 14t90 3.5h13q61 0 99 -4.5t58 -15t27 -28
t7 -43.5v-7q0 -28 -7.5 -47t-28 -30.5t-56.5 -17.5t-93 -7q-41 -1 -65 -3.5t-37 -7.5t-17 -14t-4 -24v-7h313v-56z" />
    <glyph glyph-name="uni00B3" unicode="&#xb3;" horiz-adv-x="466" 
d="M220 373q-58 0 -93 3.5t-54 13.5t-25.5 29t-6.5 51v12h75v-11q0 -15 3 -23.5t14 -13t32 -5.5t57 -1h10q42 0 66.5 1.5t36.5 6t15.5 12t3.5 19.5v5q0 21 -12.5 28t-55.5 7h-99v52h99q38 0 48 7t10 26v6q0 10 -3.5 16.5t-15 10.5t-33.5 5.5t-60 1.5h-8q-34 0 -54.5 -1
t-31.5 -5.5t-14.5 -12.5t-3.5 -23v-10h-74v12q0 31 6.5 50t25.5 29t53.5 13.5t90.5 3.5h13q61 0 98 -3.5t57.5 -12.5t27 -24t6.5 -39v-6q0 -33 -10.5 -48t-42.5 -20v-1q32 -5 46.5 -18.5t14.5 -47.5v-11q0 -27 -8 -43.5t-29.5 -25.5t-60 -12t-99.5 -3h-15z" />
    <glyph glyph-name="acute" unicode="&#xb4;" horiz-adv-x="415" 
d="M158 443l-27 36l158 114l45 -63z" />
    <glyph glyph-name="mu" unicode="&#xb5;" horiz-adv-x="637" 
d="M579 0h-115v72h-1q-10 -20 -23.5 -35t-33.5 -25t-47 -14.5t-64 -4.5h-9q-40 0 -69 10t-43 30h-1v-188h-114v553h114v-211q0 -33 7 -53.5t23 -32.5t42 -16.5t65 -4.5h11q40 0 67 5.5t44 18.5t24.5 35t7.5 54v205h115v-398z" />
    <glyph glyph-name="paragraph" unicode="&#xb6;" horiz-adv-x="649" 
d="M585 -136h-81v639h-62v-639h-83v310h-58q-77 0 -124.5 9t-73 31t-34 58.5t-8.5 91.5v14q0 57 9.5 93.5t38.5 57t82 28t139 7.5h255v-700z" />
    <glyph glyph-name="periodcentered" unicode="&#xb7;" horiz-adv-x="239" 
d="M181 156h-123v129h123v-129z" />
    <glyph glyph-name="cedilla" unicode="&#xb8;" horiz-adv-x="373" 
d="M81 -155l-30 34l157 114l52 -61z" />
    <glyph glyph-name="uni00B9" unicode="&#xb9;" horiz-adv-x="306" 
d="M252 376h-81v246h-3l-97 -68l-38 49l118 82h101v-309z" />
    <glyph glyph-name="ordmasculine" unicode="&#xba;" horiz-adv-x="408" 
d="M211 369q27 0 43 2t25 9t11.5 19.5t2.5 33.5v11q0 21 -2.5 34t-11.5 19.5t-25 9t-43 2.5h-14q-27 0 -43.5 -2.5t-25 -9t-11 -19.5t-2.5 -34v-11q0 -21 2.5 -33.5t11 -19.5t25 -9t43.5 -2h14zM194 311q-47 0 -76.5 4.5t-46 17.5t-23 37t-6.5 63v11q0 39 6.5 63t23 36.5
t46 16.5t76.5 4h18q47 0 76.5 -4t46.5 -16.5t23.5 -36.5t6.5 -63v-11q0 -39 -6.5 -63t-23.5 -37t-46.5 -17.5t-76.5 -4.5h-18z" />
    <glyph glyph-name="guillemotright" unicode="&#xbb;" horiz-adv-x="452" 
d="M132 60l-79 25l78 141l-78 141l79 26l94 -167zM309 60l-78 25l78 141l-78 141l78 26l94 -167z" />
    <glyph glyph-name="onequarter" unicode="&#xbc;" horiz-adv-x="923" 
d="M307 0h-70l285 564h70zM271 256h-82v245h-3l-97 -68l-38 50l118 81h102v-308zM820 0h-80v66h-280v85l260 158h100v-189h56v-54h-56v-66zM740 120v134h-2l-213 -132v-2h215z" />
    <glyph glyph-name="onehalf" unicode="&#xbd;" horiz-adv-x="935" 
d="M307 0h-70l285 564h70zM271 256h-82v245h-3l-97 -68l-38 50l118 81h102v-308zM885 0h-389v56q0 30 8.5 50.5t29.5 33t56.5 19t88.5 8.5q41 1 65.5 3.5t37 7t16.5 12.5t4 21v6q0 12 -4 20t-16 12t-35 5.5t-61 1.5h-8q-34 0 -54 -1.5t-30.5 -6.5t-13.5 -14t-3 -24v-8h-75
v14q0 30 6 49t24.5 29.5t53 14t90.5 3.5h12q61 0 99 -4.5t58.5 -15t27.5 -28t7 -43.5v-7q0 -28 -8 -47t-28.5 -30.5t-56.5 -17.5t-93 -7q-40 -1 -64.5 -3.5t-37.5 -7.5t-17 -14t-4 -24v-7h314v-56z" />
    <glyph glyph-name="threequarters" unicode="&#xbe;" horiz-adv-x="1062" 
d="M445 0h-70l285 564h70zM241 252q-58 0 -93 3.5t-54.5 14t-26 29.5t-6.5 50v13h76v-12q0 -15 3 -23t14 -12.5t32 -5.5t57 -1h10q42 0 66 1.5t36.5 6t15.5 12t3 19.5v5q0 20 -12.5 27.5t-55.5 7.5h-99v51h100q38 0 48 7.5t10 25.5v7q0 10 -3.5 16.5t-15 10.5t-33.5 5.5
t-60 1.5h-8q-34 0 -54.5 -1t-31.5 -5.5t-14.5 -12.5t-3.5 -23v-10h-75v11q0 31 6.5 50t25.5 29.5t53.5 14t90.5 3.5h14q61 0 98 -3.5t57 -12.5t27 -24t7 -39v-6q0 -34 -10.5 -48.5t-42.5 -20.5v-1q32 -4 46.5 -17.5t14.5 -47.5v-11q0 -27 -8 -43.5t-29.5 -26t-60 -12.5
t-99.5 -3h-15zM959 0h-81v66h-280v85l261 158h100v-189h55v-54h-55v-66zM878 120v134h-2l-213 -132v-2h215z" />
    <glyph glyph-name="questiondown" unicode="&#xbf;" horiz-adv-x="643" 
d="M410 276h-122v122h122v-122zM302 -173q-79 0 -130 6t-80.5 22.5t-41 46t-11.5 76.5v15q0 43 6.5 71t24.5 46t48.5 28t78.5 16q33 4 52 7.5t29.5 8.5t13.5 13t3 20v11h110v-12q0 -31 -5 -52.5t-19 -35.5t-38 -22.5t-63 -13.5q-45 -6 -72 -11.5t-40.5 -14t-17.5 -22.5
t-4 -37v-9q0 -21 5.5 -35t22 -21.5t47.5 -10.5t81 -3h15q55 0 88 2.5t51 11.5t24 26.5t6 47.5v17h107v-17q0 -59 -13 -93.5t-44.5 -52.5t-85 -23.5t-133.5 -5.5h-15z" />
    <glyph glyph-name="Agrave" unicode="&#xc0;" horiz-adv-x="789" 
d="M399 605l-188 60l38 68l172 -90zM786 0h-139l-60 113h-389l-60 -113h-135l316 564h155zM543 201l-145 274h-6l-147 -274h298z" />
    <glyph glyph-name="Aacute" unicode="&#xc1;" horiz-adv-x="789" 
d="M517 665l-187 -60l-22 38l172 90zM786 0h-139l-60 113h-389l-60 -113h-135l316 564h155zM543 201l-145 274h-6l-147 -274h298z" />
    <glyph glyph-name="Acircumflex" unicode="&#xc2;" horiz-adv-x="789" 
d="M476 611l-108 55l-107 -55l-31 37l138 93l139 -93zM786 0h-139l-60 113h-389l-60 -113h-135l316 564h155zM543 201l-145 274h-6l-147 -274h298z" />
    <glyph glyph-name="Atilde" unicode="&#xc3;" horiz-adv-x="789" 
d="M505 712q-5 -45 -25.5 -69.5t-57.5 -24.5q-14 0 -28.5 5.5t-30.5 15.5q-17 10 -29 14.5t-23 4.5q-13 0 -23.5 -8.5t-16.5 -29.5l-39 12q4 41 25.5 66t55.5 25q25 0 60 -19q35 -22 53 -22q16 0 24.5 12t11.5 30zM786 0h-139l-60 113h-389l-60 -113h-135l316 564h155z
M543 201l-145 274h-6l-147 -274h298z" />
    <glyph glyph-name="Adieresis" unicode="&#xc4;" horiz-adv-x="789" 
d="M323 618h-98v98h98v-98zM515 618h-98v98h98v-98zM786 0h-139l-60 113h-389l-60 -113h-135l316 564h155zM543 201l-145 274h-6l-147 -274h298z" />
    <glyph glyph-name="Aring" unicode="&#xc5;" horiz-adv-x="789" 
d="M366 598q-62 0 -84 15.5t-22 52.5v5q0 37 22 52t84 15h5q62 0 84 -15t22 -52v-5q0 -37 -22 -52.5t-84 -15.5h-5zM371 633q39 0 52 7.5t13 25.5v5q0 19 -13 25t-52 6h-5q-39 0 -52 -6t-13 -25v-5q0 -18 13 -25.5t52 -7.5h5zM786 0h-139l-60 113h-389l-60 -113h-135
l316 564h155zM543 201l-145 274h-6l-147 -274h298z" />
    <glyph glyph-name="AE" unicode="&#xc6;" horiz-adv-x="1186" 
d="M224 113l-83 -113h-139l419 564h731v-94h-461v-136h439v-92h-439v-145h468v-97h-590v113h-345zM289 201h280v267h-83z" />
    <glyph glyph-name="Ccedilla" unicode="&#xc7;" horiz-adv-x="799" 
d="M402 -7q-113 0 -182.5 9.5t-107.5 39.5t-50.5 85t-12.5 147v16q0 61 5 105.5t19 75.5t38.5 50.5t63.5 30.5t95 15t132 4h25q103 0 165.5 -7.5t96.5 -27t45 -54.5t11 -89v-22h-120v11q0 28 -5.5 46.5t-26 28.5t-60.5 14t-110 4h-17q-80 0 -126.5 -5t-70 -24t-30 -56.5
t-6.5 -102.5v-10q0 -65 6.5 -102t30 -55.5t70 -23.5t126.5 -5h17q71 0 112.5 3.5t63 14.5t27.5 30t6 51v9h119v-26q0 -53 -12 -87.5t-47 -55t-98.5 -29t-166.5 -8.5h-25zM304 -155l-30 34l157 114l52 -61z" />
    <glyph glyph-name="Egrave" unicode="&#xc8;" horiz-adv-x="680" 
d="M427 605l-188 60l38 68l172 -90zM652 0h-589v564h583v-94h-460v-136h437v-92h-437v-145h466v-97z" />
    <glyph glyph-name="Eacute" unicode="&#xc9;" horiz-adv-x="680" 
d="M469 665l-187 -60l-22 38l172 90zM652 0h-589v564h583v-94h-460v-136h437v-92h-437v-145h466v-97z" />
    <glyph glyph-name="Ecircumflex" unicode="&#xca;" horiz-adv-x="680" 
d="M465 611l-108 55l-107 -55l-31 37l138 93l139 -93zM652 0h-589v564h583v-94h-460v-136h437v-92h-437v-145h466v-97z" />
    <glyph glyph-name="Edieresis" unicode="&#xcb;" horiz-adv-x="680" 
d="M309 618h-98v98h98v-98zM501 618h-98v98h98v-98zM652 0h-589v564h583v-94h-460v-136h437v-92h-437v-145h466v-97z" />
    <glyph glyph-name="Igrave" unicode="&#xcc;" horiz-adv-x="250" 
d="M156 605l-188 60l38 68l172 -90zM187 0h-124v564h124v-564z" />
    <glyph glyph-name="Iacute" unicode="&#xcd;" horiz-adv-x="250" 
d="M274 665l-187 -60l-22 38l172 90zM187 0h-124v564h124v-564z" />
    <glyph glyph-name="Icircumflex" unicode="&#xce;" horiz-adv-x="250" 
d="M233 611l-108 55l-107 -55l-31 37l138 93l139 -93zM187 0h-124v564h124v-564z" />
    <glyph glyph-name="Idieresis" unicode="&#xcf;" horiz-adv-x="250" 
d="M77 618h-98v98h98v-98zM269 618h-98v98h98v-98zM187 0h-124v564h124v-564z" />
    <glyph glyph-name="Eth" unicode="&#xd0;" horiz-adv-x="836" 
d="M16 321h47v243h372q116 0 185.5 -9t106.5 -37.5t48.5 -82.5t11.5 -145v-16q0 -59 -4.5 -102.5t-17.5 -74t-37 -49.5t-63.5 -29.5t-95.5 -14.5t-134 -4h-372v256h-47v65zM425 98q83 0 130.5 6t71.5 24.5t30 54t6 95.5v10q0 62 -6.5 98t-30.5 54t-71.5 23t-129.5 5h-238
v-147h183v-65h-183v-158h238z" />
    <glyph glyph-name="Ntilde" unicode="&#xd1;" horiz-adv-x="846" 
d="M564 712q-5 -45 -25.5 -69.5t-57.5 -24.5q-14 0 -28.5 5.5t-30.5 15.5q-17 10 -29 14.5t-23 4.5q-13 0 -23.5 -8.5t-16.5 -29.5l-39 12q4 41 25.5 66t55.5 25q25 0 60 -19q35 -22 53 -22q16 0 24.5 12t11.5 30zM783 0h-186l-408 459h-4v-459h-122v564h189l405 -459h4v459
h122v-564z" />
    <glyph glyph-name="Ograve" unicode="&#xd2;" horiz-adv-x="838" 
d="M495 605l-188 60l38 68l172 -90zM407 -7q-117 0 -187.5 9.5t-108.5 39t-50 85t-12 147.5v16q0 93 12 148.5t50 85t108.5 38.5t187.5 9h25q117 0 187 -9t108 -38.5t50 -85t12 -148.5v-16q0 -93 -12 -148.5t-50 -85t-108 -38.5t-187 -9h-25zM427 90q55 0 94 2t65.5 8.5
t42 19t23.5 33.5t10.5 51.5t2.5 73.5v9q0 65 -6.5 103t-30.5 57t-71.5 24t-129.5 5h-16q-82 0 -129.5 -5t-71.5 -24t-30.5 -57t-6.5 -103v-9q0 -65 6.5 -102t30.5 -56.5t71.5 -24.5t129.5 -5h16z" />
    <glyph glyph-name="Oacute" unicode="&#xd3;" horiz-adv-x="838" 
d="M531 665l-187 -60l-22 38l172 90zM407 -7q-117 0 -187.5 9.5t-108.5 39t-50 85t-12 147.5v16q0 93 12 148.5t50 85t108.5 38.5t187.5 9h25q117 0 187 -9t108 -38.5t50 -85t12 -148.5v-16q0 -93 -12 -148.5t-50 -85t-108 -38.5t-187 -9h-25zM427 90q55 0 94 2t65.5 8.5
t42 19t23.5 33.5t10.5 51.5t2.5 73.5v9q0 65 -6.5 103t-30.5 57t-71.5 24t-129.5 5h-16q-82 0 -129.5 -5t-71.5 -24t-30.5 -57t-6.5 -103v-9q0 -65 6.5 -102t30.5 -56.5t71.5 -24.5t129.5 -5h16z" />
    <glyph glyph-name="Ocircumflex" unicode="&#xd4;" horiz-adv-x="838" 
d="M527 611l-108 55l-107 -55l-31 37l138 93l139 -93zM407 -7q-117 0 -187.5 9.5t-108.5 39t-50 85t-12 147.5v16q0 93 12 148.5t50 85t108.5 38.5t187.5 9h25q117 0 187 -9t108 -38.5t50 -85t12 -148.5v-16q0 -93 -12 -148.5t-50 -85t-108 -38.5t-187 -9h-25zM427 90
q55 0 94 2t65.5 8.5t42 19t23.5 33.5t10.5 51.5t2.5 73.5v9q0 65 -6.5 103t-30.5 57t-71.5 24t-129.5 5h-16q-82 0 -129.5 -5t-71.5 -24t-30.5 -57t-6.5 -103v-9q0 -65 6.5 -102t30.5 -56.5t71.5 -24.5t129.5 -5h16z" />
    <glyph glyph-name="Otilde" unicode="&#xd5;" horiz-adv-x="838" 
d="M556 712q-5 -45 -25.5 -69.5t-57.5 -24.5q-14 0 -28.5 5.5t-30.5 15.5q-17 10 -29 14.5t-23 4.5q-13 0 -23.5 -8.5t-16.5 -29.5l-39 12q4 41 25.5 66t55.5 25q25 0 60 -19q35 -22 53 -22q16 0 24.5 12t11.5 30zM407 -7q-117 0 -187.5 9.5t-108.5 39t-50 85t-12 147.5v16
q0 93 12 148.5t50 85t108.5 38.5t187.5 9h25q117 0 187 -9t108 -38.5t50 -85t12 -148.5v-16q0 -93 -12 -148.5t-50 -85t-108 -38.5t-187 -9h-25zM427 90q55 0 94 2t65.5 8.5t42 19t23.5 33.5t10.5 51.5t2.5 73.5v9q0 65 -6.5 103t-30.5 57t-71.5 24t-129.5 5h-16
q-82 0 -129.5 -5t-71.5 -24t-30.5 -57t-6.5 -103v-9q0 -65 6.5 -102t30.5 -56.5t71.5 -24.5t129.5 -5h16z" />
    <glyph glyph-name="Odieresis" unicode="&#xd6;" horiz-adv-x="838" 
d="M374 618h-98v98h98v-98zM566 618h-98v98h98v-98zM407 -7q-117 0 -187.5 9.5t-108.5 39t-50 85t-12 147.5v16q0 93 12 148.5t50 85t108.5 38.5t187.5 9h25q117 0 187 -9t108 -38.5t50 -85t12 -148.5v-16q0 -93 -12 -148.5t-50 -85t-108 -38.5t-187 -9h-25zM427 90
q55 0 94 2t65.5 8.5t42 19t23.5 33.5t10.5 51.5t2.5 73.5v9q0 65 -6.5 103t-30.5 57t-71.5 24t-129.5 5h-16q-82 0 -129.5 -5t-71.5 -24t-30.5 -57t-6.5 -103v-9q0 -65 6.5 -102t30.5 -56.5t71.5 -24.5t129.5 -5h16z" />
    <glyph glyph-name="multiply" unicode="&#xd7;" horiz-adv-x="559" 
d="M485 105l-58 -58l-148 146l-147 -146l-58 56l148 146l-148 146l58 57l148 -146l145 145l57 -54l-146 -146z" />
    <glyph glyph-name="Oslash" unicode="&#xd8;" horiz-adv-x="838" 
d="M45 -7l-33 52l63 41q-16 32 -21 77.5t-5 110.5v16q0 93 12 148.5t50 85t108.5 38.5t187.5 9h25q117 0 188 -9.5t109 -39.5l69 47l34 -51l-67 -45q14 -31 19 -75.5t5 -107.5v-16q0 -93 -12 -148.5t-50 -85t-108 -38.5t-187 -9h-25q-114 0 -184 9t-108 36zM411 477
q-82 0 -129.5 -5t-72 -24.5t-31 -57.5t-6.5 -103v-9q0 -40 1.5 -69t9.5 -50l442 291q-25 17 -71.5 22t-126.5 5h-16zM427 90q82 0 130 5t72 24.5t30.5 56.5t6.5 102v9q0 38 -1.5 65.5t-7.5 48.5l-435 -290q26 -14 71 -17.5t118 -3.5h16z" />
    <glyph glyph-name="Ugrave" unicode="&#xd9;" horiz-adv-x="802" 
d="M472 605l-188 60l38 68l172 -90zM392 -7q-105 0 -169.5 9.5t-100.5 33.5t-48.5 65.5t-12.5 105.5v357h123v-330q0 -48 7 -76.5t29 -43t63 -19t108 -4.5h18q67 0 108 4.5t63.5 19.5t30 43t7.5 76v330h123v-357q0 -63 -12.5 -104.5t-48.5 -66t-101 -34t-171 -9.5h-16z" />
    <glyph glyph-name="Uacute" unicode="&#xda;" horiz-adv-x="802" 
d="M509 665l-187 -60l-22 38l172 90zM392 -7q-105 0 -169.5 9.5t-100.5 33.5t-48.5 65.5t-12.5 105.5v357h123v-330q0 -48 7 -76.5t29 -43t63 -19t108 -4.5h18q67 0 108 4.5t63.5 19.5t30 43t7.5 76v330h123v-357q0 -63 -12.5 -104.5t-48.5 -66t-101 -34t-171 -9.5h-16z" />
    <glyph glyph-name="Ucircumflex" unicode="&#xdb;" horiz-adv-x="802" 
d="M508 611l-108 55l-107 -55l-31 37l138 93l139 -93zM392 -7q-105 0 -169.5 9.5t-100.5 33.5t-48.5 65.5t-12.5 105.5v357h123v-330q0 -48 7 -76.5t29 -43t63 -19t108 -4.5h18q67 0 108 4.5t63.5 19.5t30 43t7.5 76v330h123v-357q0 -63 -12.5 -104.5t-48.5 -66t-101 -34
t-171 -9.5h-16z" />
    <glyph glyph-name="Udieresis" unicode="&#xdc;" horiz-adv-x="802" 
d="M354 618h-98v98h98v-98zM546 618h-98v98h98v-98zM392 -7q-105 0 -169.5 9.5t-100.5 33.5t-48.5 65.5t-12.5 105.5v357h123v-330q0 -48 7 -76.5t29 -43t63 -19t108 -4.5h18q67 0 108 4.5t63.5 19.5t30 43t7.5 76v330h123v-357q0 -63 -12.5 -104.5t-48.5 -66t-101 -34
t-171 -9.5h-16z" />
    <glyph glyph-name="Yacute" unicode="&#xdd;" horiz-adv-x="761" 
d="M517 665l-187 -60l-22 38l172 90zM442 0h-124v205l-315 359h150l228 -261h3l224 261h150l-316 -359v-205z" />
    <glyph glyph-name="Thorn" unicode="&#xde;" horiz-adv-x="740" 
d="M419 191q58 0 91 3t50 13t21.5 29t4.5 50v9q0 32 -4.5 51.5t-21.5 29.5t-50 13t-91 3h-233v-201h233zM186 0h-123v564h123v-79h255q83 0 135 -7t81 -27t39.5 -56.5t10.5 -96.5v-14q0 -60 -10.5 -96.5t-39.5 -57t-81 -27t-135 -6.5h-255v-97z" />
    <glyph glyph-name="germandbls" unicode="&#xdf;" horiz-adv-x="631" 
d="M378 -7q-50 0 -81 6.5t-47.5 22t-22 41t-5.5 62.5v26h85v-12q0 -38 14 -52.5t59 -14.5h14q24 0 40 3.5t25.5 15.5t13 34.5t3.5 60.5v20q0 34 -4.5 54.5t-18.5 32t-39 15t-66 3.5h-52v67h40q29 0 47.5 2.5t29 8.5t14.5 16.5t4 26.5v7q0 16 -4 26.5t-16.5 17t-35.5 9.5
t-60 3h-25q-36 0 -59 -4t-36 -15t-17.5 -29.5t-4.5 -47.5v-399h-114v397q0 50 10.5 83t36 53t68 28.5t106.5 8.5h46q65 0 106 -6.5t64.5 -20.5t32 -35t8.5 -51v-10q0 -45 -20.5 -66t-60.5 -27q36 -3 61 -11.5t40.5 -26.5t23 -48.5t7.5 -77.5v-14q0 -55 -10.5 -90.5t-32 -56
t-55.5 -28.5t-81 -8h-31z" />
    <glyph glyph-name="agrave" unicode="&#xe0;" horiz-adv-x="596" 
d="M540 0h-113v46h-2q-11 -14 -23 -23.5t-30 -16.5t-45 -10t-67 -3h-18q-62 0 -101 5.5t-60.5 20t-29 38t-7.5 59.5v14q0 34 9 57t31.5 37t60.5 19.5t96 5.5h18q72 0 109.5 -8t54.5 -30h4v30q0 31 -3.5 49.5t-16.5 28t-38 12.5t-68 3h-16q-38 0 -61.5 -2t-36.5 -7.5
t-17.5 -14.5t-4.5 -24v-7h-109v9q0 35 11.5 57.5t38.5 36t72 18.5t112 5h19q74 0 119.5 -6.5t70 -26.5t33 -58.5t8.5 -101.5v-212zM297 64q42 0 67.5 2.5t40 9t19.5 17.5t5 28v5q0 18 -5 29t-20 17t-41.5 8.5t-68.5 2.5h-11q-41 0 -66 -2.5t-38.5 -8.5t-18 -17t-4.5 -29v-5
q0 -18 4.5 -29t18 -17t39 -8.5t68.5 -2.5h11zM376 443l-176 87l45 63l157 -114z" />
    <glyph glyph-name="aacute" unicode="&#xe1;" horiz-adv-x="596" 
d="M540 0h-113v46h-2q-11 -14 -23 -23.5t-30 -16.5t-45 -10t-67 -3h-18q-62 0 -101 5.5t-60.5 20t-29 38t-7.5 59.5v14q0 34 9 57t31.5 37t60.5 19.5t96 5.5h18q72 0 109.5 -8t54.5 -30h4v30q0 31 -3.5 49.5t-16.5 28t-38 12.5t-68 3h-16q-38 0 -61.5 -2t-36.5 -7.5
t-17.5 -14.5t-4.5 -24v-7h-109v9q0 35 11.5 57.5t38.5 36t72 18.5t112 5h19q74 0 119.5 -6.5t70 -26.5t33 -58.5t8.5 -101.5v-212zM297 64q42 0 67.5 2.5t40 9t19.5 17.5t5 28v5q0 18 -5 29t-20 17t-41.5 8.5t-68.5 2.5h-11q-41 0 -66 -2.5t-38.5 -8.5t-18 -17t-4.5 -29v-5
q0 -18 4.5 -29t18 -17t39 -8.5t68.5 -2.5h11zM226 443l-27 36l158 114l45 -63z" />
    <glyph glyph-name="acircumflex" unicode="&#xe2;" horiz-adv-x="596" 
d="M540 0h-113v46h-2q-11 -14 -23 -23.5t-30 -16.5t-45 -10t-67 -3h-18q-62 0 -101 5.5t-60.5 20t-29 38t-7.5 59.5v14q0 34 9 57t31.5 37t60.5 19.5t96 5.5h18q72 0 109.5 -8t54.5 -30h4v30q0 31 -3.5 49.5t-16.5 28t-38 12.5t-68 3h-16q-38 0 -61.5 -2t-36.5 -7.5
t-17.5 -14.5t-4.5 -24v-7h-109v9q0 35 11.5 57.5t38.5 36t72 18.5t112 5h19q74 0 119.5 -6.5t70 -26.5t33 -58.5t8.5 -101.5v-212zM297 64q42 0 67.5 2.5t40 9t19.5 17.5t5 28v5q0 18 -5 29t-20 17t-41.5 8.5t-68.5 2.5h-11q-41 0 -66 -2.5t-38.5 -8.5t-18 -17t-4.5 -29v-5
q0 -18 4.5 -29t18 -17t39 -8.5t68.5 -2.5h11zM404 454l-108 61l-107 -61l-31 37l138 97l139 -97z" />
    <glyph glyph-name="atilde" unicode="&#xe3;" horiz-adv-x="596" 
d="M540 0h-113v46h-2q-11 -14 -23 -23.5t-30 -16.5t-45 -10t-67 -3h-18q-62 0 -101 5.5t-60.5 20t-29 38t-7.5 59.5v14q0 34 9 57t31.5 37t60.5 19.5t96 5.5h18q72 0 109.5 -8t54.5 -30h4v30q0 31 -3.5 49.5t-16.5 28t-38 12.5t-68 3h-16q-38 0 -61.5 -2t-36.5 -7.5
t-17.5 -14.5t-4.5 -24v-7h-109v9q0 35 11.5 57.5t38.5 36t72 18.5t112 5h19q74 0 119.5 -6.5t70 -26.5t33 -58.5t8.5 -101.5v-212zM297 64q42 0 67.5 2.5t40 9t19.5 17.5t5 28v5q0 18 -5 29t-20 17t-41.5 8.5t-68.5 2.5h-11q-41 0 -66 -2.5t-38.5 -8.5t-18 -17t-4.5 -29v-5
q0 -18 4.5 -29t18 -17t39 -8.5t68.5 -2.5h11zM429 555q-5 -45 -25.5 -69.5t-57.5 -24.5q-14 0 -28.5 5.5t-30.5 15.5q-17 11 -29 15t-23 4q-13 0 -23.5 -8.5t-16.5 -29.5l-39 12q4 42 25.5 66.5t55.5 24.5q25 0 60 -19q35 -22 53 -22q16 0 24.5 12t11.5 30z" />
    <glyph glyph-name="adieresis" unicode="&#xe4;" horiz-adv-x="596" 
d="M540 0h-113v46h-2q-11 -14 -23 -23.5t-30 -16.5t-45 -10t-67 -3h-18q-62 0 -101 5.5t-60.5 20t-29 38t-7.5 59.5v14q0 34 9 57t31.5 37t60.5 19.5t96 5.5h18q72 0 109.5 -8t54.5 -30h4v30q0 31 -3.5 49.5t-16.5 28t-38 12.5t-68 3h-16q-38 0 -61.5 -2t-36.5 -7.5
t-17.5 -14.5t-4.5 -24v-7h-109v9q0 35 11.5 57.5t38.5 36t72 18.5t112 5h19q74 0 119.5 -6.5t70 -26.5t33 -58.5t8.5 -101.5v-212zM297 64q42 0 67.5 2.5t40 9t19.5 17.5t5 28v5q0 18 -5 29t-20 17t-41.5 8.5t-68.5 2.5h-11q-41 0 -66 -2.5t-38.5 -8.5t-18 -17t-4.5 -29v-5
q0 -18 4.5 -29t18 -17t39 -8.5t68.5 -2.5h11zM252 466h-98v98h98v-98zM444 466h-98v98h98v-98z" />
    <glyph glyph-name="aring" unicode="&#xe5;" horiz-adv-x="596" 
d="M540 0h-113v46h-2q-11 -14 -23 -23.5t-30 -16.5t-45 -10t-67 -3h-18q-62 0 -101 5.5t-60.5 20t-29 38t-7.5 59.5v14q0 34 9 57t31.5 37t60.5 19.5t96 5.5h18q72 0 109.5 -8t54.5 -30h4v30q0 31 -3.5 49.5t-16.5 28t-38 12.5t-68 3h-16q-38 0 -61.5 -2t-36.5 -7.5
t-17.5 -14.5t-4.5 -24v-7h-109v9q0 35 11.5 57.5t38.5 36t72 18.5t112 5h19q74 0 119.5 -6.5t70 -26.5t33 -58.5t8.5 -101.5v-212zM297 64q42 0 67.5 2.5t40 9t19.5 17.5t5 28v5q0 18 -5 29t-20 17t-41.5 8.5t-68.5 2.5h-11q-41 0 -66 -2.5t-38.5 -8.5t-18 -17t-4.5 -29v-5
q0 -18 4.5 -29t18 -17t39 -8.5t68.5 -2.5h11zM297 452q-62 0 -84 15t-22 52v5q0 37 22 51.5t84 14.5h5q62 0 84 -14.5t22 -51.5v-5q0 -37 -22 -52t-84 -15h-5zM302 486q39 0 52 7.5t13 25.5v5q0 19 -13 25t-52 6h-5q-39 0 -52 -6t-13 -25v-5q0 -18 13 -25.5t52 -7.5h5z" />
    <glyph glyph-name="ae" unicode="&#xe6;" horiz-adv-x="971" 
d="M929 126q0 -40 -13 -65.5t-41 -40.5t-70.5 -21t-100.5 -6h-26q-51 0 -88 3t-64 11.5t-44.5 23.5t-28.5 40h-2q-11 -23 -26 -38t-37.5 -24t-53.5 -12.5t-74 -3.5h-18q-63 0 -102 5.5t-60 20t-28.5 38t-7.5 59.5v14q0 34 9 57t31.5 37t60.5 19.5t96 5.5h18q72 0 110 -8
t55 -31h3v31q0 31 -3.5 49.5t-16 28t-36.5 12.5t-65 3h-16q-40 0 -64.5 -2t-38 -7t-18 -14.5t-4.5 -24.5v-7h-109v9q0 35 11.5 58t39.5 36t74 18t114 5h19q44 0 74 -3t49.5 -9.5t30.5 -17t18 -26.5h1q10 16 23.5 27t34 17.5t49.5 9t71 2.5h24q66 0 111.5 -6t73.5 -24t40 -51
t12 -87v-59h-387v-14q0 -30 5 -48.5t20 -28.5t42.5 -13.5t72.5 -3.5h16q40 0 64.5 3t38.5 9.5t19 18t5 29.5v5h107v-9zM297 64q42 0 67.5 2.5t40 9t19.5 17.5t5 28v5q0 18 -5 29t-20 17t-41.5 8.5t-68.5 2.5h-11q-41 0 -66 -2.5t-38.5 -8.5t-18 -17t-4.5 -29v-4
q0 -18 4 -29.5t17.5 -17.5t39 -8.5t69.5 -2.5h11zM818 244v9q0 25 -4.5 40.5t-18.5 24.5t-40.5 12t-69.5 3h-10q-44 0 -70.5 -3.5t-41 -13t-19.5 -27t-5 -45.5h279z" />
    <glyph glyph-name="ccedilla" unicode="&#xe7;" horiz-adv-x="599" 
d="M295 -7q-78 0 -127 8.5t-77 31t-38.5 62t-10.5 100.5v11q0 61 10.5 100t38.5 61t77 30t127 8h31q69 0 113.5 -6.5t70.5 -23t36 -44t10 -69.5v-16h-109v4q0 22 -5.5 36.5t-19.5 22t-38 10.5t-61 3h-24q-47 0 -75 -4t-43 -16t-20 -35t-5 -61v-11q0 -39 5 -62t20.5 -35
t43.5 -16t74 -4h24q41 0 65.5 3.5t37.5 12.5t17 23.5t4 36.5v4h110v-19q0 -41 -10 -69t-36.5 -45t-71 -24.5t-113.5 -7.5h-31zM196 -155l-30 34l157 114l52 -61z" />
    <glyph glyph-name="egrave" unicode="&#xe8;" horiz-adv-x="593" 
d="M297 -7q-78 0 -128 8t-78 30t-38.5 61t-10.5 102v10q0 60 11 99t38 61.5t74 31.5t119 9h24q74 0 121 -7.5t73.5 -27t36.5 -53t10 -85.5v-54h-394v-8q0 -32 5 -52t20.5 -30.5t43.5 -14t74 -3.5h16q41 0 66 3t39 9.5t19 18t5 29.5v5h108v-9q0 -38 -12 -63.5t-39 -41
t-70.5 -22t-106.5 -6.5h-26zM440 244v12q0 24 -4.5 39t-19 23.5t-41 11.5t-71.5 3h-9q-45 0 -72.5 -4t-42.5 -14t-20 -27.5t-5 -43.5h285zM381 443l-176 87l45 63l157 -114z" />
    <glyph glyph-name="eacute" unicode="&#xe9;" horiz-adv-x="593" 
d="M297 -7q-78 0 -128 8t-78 30t-38.5 61t-10.5 102v10q0 60 11 99t38 61.5t74 31.5t119 9h24q74 0 121 -7.5t73.5 -27t36.5 -53t10 -85.5v-54h-394v-8q0 -32 5 -52t20.5 -30.5t43.5 -14t74 -3.5h16q41 0 66 3t39 9.5t19 18t5 29.5v5h108v-9q0 -38 -12 -63.5t-39 -41
t-70.5 -22t-106.5 -6.5h-26zM440 244v12q0 24 -4.5 39t-19 23.5t-41 11.5t-71.5 3h-9q-45 0 -72.5 -4t-42.5 -14t-20 -27.5t-5 -43.5h285zM220 443l-27 36l158 114l45 -63z" />
    <glyph glyph-name="ecircumflex" unicode="&#xea;" horiz-adv-x="593" 
d="M297 -7q-78 0 -128 8t-78 30t-38.5 61t-10.5 102v10q0 60 11 99t38 61.5t74 31.5t119 9h24q74 0 121 -7.5t73.5 -27t36.5 -53t10 -85.5v-54h-394v-8q0 -32 5 -52t20.5 -30.5t43.5 -14t74 -3.5h16q41 0 66 3t39 9.5t19 18t5 29.5v5h108v-9q0 -38 -12 -63.5t-39 -41
t-70.5 -22t-106.5 -6.5h-26zM440 244v12q0 24 -4.5 39t-19 23.5t-41 11.5t-71.5 3h-9q-45 0 -72.5 -4t-42.5 -14t-20 -27.5t-5 -43.5h285zM405 454l-108 61l-107 -61l-31 37l138 97l139 -97z" />
    <glyph glyph-name="edieresis" unicode="&#xeb;" horiz-adv-x="593" 
d="M297 -7q-78 0 -128 8t-78 30t-38.5 61t-10.5 102v10q0 60 11 99t38 61.5t74 31.5t119 9h24q74 0 121 -7.5t73.5 -27t36.5 -53t10 -85.5v-54h-394v-8q0 -32 5 -52t20.5 -30.5t43.5 -14t74 -3.5h16q41 0 66 3t39 9.5t19 18t5 29.5v5h108v-9q0 -38 -12 -63.5t-39 -41
t-70.5 -22t-106.5 -6.5h-26zM440 244v12q0 24 -4.5 39t-19 23.5t-41 11.5t-71.5 3h-9q-45 0 -72.5 -4t-42.5 -14t-20 -27.5t-5 -43.5h285zM252 466h-98v98h98v-98zM444 466h-98v98h98v-98z" />
    <glyph glyph-name="igrave" unicode="&#xec;" horiz-adv-x="232" 
d="M173 0h-114v398h114v-398zM142 443l-176 87l45 63l157 -114z" />
    <glyph glyph-name="iacute" unicode="&#xed;" horiz-adv-x="232" 
d="M173 0h-114v398h114v-398zM90 443l-27 36l158 114l45 -63z" />
    <glyph glyph-name="icircumflex" unicode="&#xee;" horiz-adv-x="232" 
d="M173 0h-114v398h114v-398zM225 454l-108 61l-107 -61l-31 37l138 97l139 -97z" />
    <glyph glyph-name="idieresis" unicode="&#xef;" horiz-adv-x="232" 
d="M173 0h-114v398h114v-398zM74 466h-97v98h97v-98zM256 466h-97v98h97v-98z" />
    <glyph glyph-name="eth" unicode="&#xf0;" horiz-adv-x="613" 
d="M290 -7q-79 0 -127.5 7.5t-75.5 28.5t-36 58.5t-9 98.5v11q0 57 9.5 93.5t32 56.5t58.5 27.5t90 7.5h31q46 0 79.5 -2.5t56 -9.5t37 -18t23.5 -27h2q-7 57 -42.5 92.5t-98.5 53.5l-92 -55l-24 38l49 29q-28 5 -62.5 7.5t-80.5 3.5l21 77q65 -2 116.5 -7t94.5 -16l87 52
l24 -38l-51 -32q49 -19 81.5 -47.5t52 -69t27 -93t7.5 -118.5v-14q0 -58 -10 -96t-38 -60t-76.5 -30.5t-124.5 -8.5h-31zM318 79q47 0 75 4t43 15.5t19.5 32t4.5 53.5v10q0 33 -6.5 53.5t-23.5 32t-45.5 16t-71.5 4.5h-24q-45 0 -72 -4.5t-41.5 -16t-19 -32t-4.5 -52.5v-11
q0 -34 4.5 -54.5t19.5 -32t43 -15t75 -3.5h24z" />
    <glyph glyph-name="ntilde" unicode="&#xf1;" horiz-adv-x="632" 
d="M575 0h-114v207q0 34 -4.5 55.5t-18.5 33.5t-40 16.5t-68 4.5h-10q-81 0 -114 -24t-33 -87v-206h-114v398h114v-69h2q11 19 25 33.5t35 24t50 14t69 4.5h10q63 0 104 -8t64.5 -29t33 -57t9.5 -91v-220zM467 555q-5 -45 -25.5 -69.5t-57.5 -24.5q-14 0 -28.5 5.5
t-30.5 15.5q-17 11 -29 15t-23 4q-13 0 -23.5 -8.5t-16.5 -29.5l-39 12q4 42 25.5 66.5t55.5 24.5q25 0 60 -19q35 -22 53 -22q16 0 24.5 12t11.5 30z" />
    <glyph glyph-name="ograve" unicode="&#xf2;" horiz-adv-x="618" 
d="M320 77q48 0 76 4t43 16.5t19.5 35.5t4.5 62v11q0 38 -4.5 61t-19.5 35.5t-43 16.5t-76 4h-23q-47 0 -75.5 -4t-43.5 -16.5t-19.5 -35.5t-4.5 -61v-11q0 -38 4.5 -61.5t19.5 -36t43.5 -16.5t75.5 -4h23zM294 -7q-78 0 -127.5 8t-77 30.5t-37.5 61.5t-10 102v11
q0 63 10.5 101.5t38 60.5t76.5 29.5t127 7.5h31q78 0 126.5 -7.5t76 -29.5t37.5 -60.5t10 -101.5v-11q0 -63 -10 -102t-37 -61.5t-76 -30.5t-127 -8h-31zM389 443l-176 87l45 63l157 -114z" />
    <glyph glyph-name="oacute" unicode="&#xf3;" horiz-adv-x="618" 
d="M320 77q48 0 76 4t43 16.5t19.5 35.5t4.5 62v11q0 38 -4.5 61t-19.5 35.5t-43 16.5t-76 4h-23q-47 0 -75.5 -4t-43.5 -16.5t-19.5 -35.5t-4.5 -61v-11q0 -38 4.5 -61.5t19.5 -36t43.5 -16.5t75.5 -4h23zM294 -7q-78 0 -127.5 8t-77 30.5t-37.5 61.5t-10 102v11
q0 63 10.5 101.5t38 60.5t76.5 29.5t127 7.5h31q78 0 126.5 -7.5t76 -29.5t37.5 -60.5t10 -101.5v-11q0 -63 -10 -102t-37 -61.5t-76 -30.5t-127 -8h-31zM235 443l-27 36l158 114l45 -63z" />
    <glyph glyph-name="ocircumflex" unicode="&#xf4;" horiz-adv-x="618" 
d="M320 77q48 0 76 4t43 16.5t19.5 35.5t4.5 62v11q0 38 -4.5 61t-19.5 35.5t-43 16.5t-76 4h-23q-47 0 -75.5 -4t-43.5 -16.5t-19.5 -35.5t-4.5 -61v-11q0 -38 4.5 -61.5t19.5 -36t43.5 -16.5t75.5 -4h23zM294 -7q-78 0 -127.5 8t-77 30.5t-37.5 61.5t-10 102v11
q0 63 10.5 101.5t38 60.5t76.5 29.5t127 7.5h31q78 0 126.5 -7.5t76 -29.5t37.5 -60.5t10 -101.5v-11q0 -63 -10 -102t-37 -61.5t-76 -30.5t-127 -8h-31zM416 454l-108 61l-107 -61l-31 37l138 97l139 -97z" />
    <glyph glyph-name="otilde" unicode="&#xf5;" horiz-adv-x="618" 
d="M320 77q48 0 76 4t43 16.5t19.5 35.5t4.5 62v11q0 38 -4.5 61t-19.5 35.5t-43 16.5t-76 4h-23q-47 0 -75.5 -4t-43.5 -16.5t-19.5 -35.5t-4.5 -61v-11q0 -38 4.5 -61.5t19.5 -36t43.5 -16.5t75.5 -4h23zM294 -7q-78 0 -127.5 8t-77 30.5t-37.5 61.5t-10 102v11
q0 63 10.5 101.5t38 60.5t76.5 29.5t127 7.5h31q78 0 126.5 -7.5t76 -29.5t37.5 -60.5t10 -101.5v-11q0 -63 -10 -102t-37 -61.5t-76 -30.5t-127 -8h-31zM445 555q-5 -45 -25.5 -69.5t-57.5 -24.5q-14 0 -28.5 5.5t-30.5 15.5q-17 11 -29 15t-23 4q-13 0 -23.5 -8.5
t-16.5 -29.5l-39 12q4 42 25.5 66.5t55.5 24.5q25 0 60 -19q35 -22 53 -22q16 0 24.5 12t11.5 30z" />
    <glyph glyph-name="odieresis" unicode="&#xf6;" horiz-adv-x="618" 
d="M320 77q48 0 76 4t43 16.5t19.5 35.5t4.5 62v11q0 38 -4.5 61t-19.5 35.5t-43 16.5t-76 4h-23q-47 0 -75.5 -4t-43.5 -16.5t-19.5 -35.5t-4.5 -61v-11q0 -38 4.5 -61.5t19.5 -36t43.5 -16.5t75.5 -4h23zM294 -7q-78 0 -127.5 8t-77 30.5t-37.5 61.5t-10 102v11
q0 63 10.5 101.5t38 60.5t76.5 29.5t127 7.5h31q78 0 126.5 -7.5t76 -29.5t37.5 -60.5t10 -101.5v-11q0 -63 -10 -102t-37 -61.5t-76 -30.5t-127 -8h-31zM262 466h-98v98h98v-98zM454 466h-98v98h98v-98z" />
    <glyph glyph-name="divide" unicode="&#xf7;" horiz-adv-x="559" 
d="M338 408q0 -25 -17.5 -42t-41.5 -17t-42 17t-18 42q0 24 18 41t42 17t41.5 -17t17.5 -41zM338 89q0 -24 -17.5 -41.5t-41.5 -17.5t-42 17.5t-18 41.5t18 41.5t42 17.5t41.5 -17.5t17.5 -41.5zM501 207h-444v81h444v-81z" />
    <glyph glyph-name="oslash" unicode="&#xf8;" horiz-adv-x="618" 
d="M554 335q11 -23 16 -54t5 -75v-11q0 -63 -10 -102t-37 -61.5t-76 -30.5t-127 -8h-31q-72 0 -118.5 7t-75.5 24l-54 -38l-31 44l48 34q-12 23 -16.5 54.5t-4.5 76.5v11q0 63 10.5 101.5t38 60.5t76.5 29.5t127 7.5h31q69 0 115.5 -6t74.5 -23l53 39l35 -44zM151 195
q0 -45 7 -67l268 185q-17 7 -42.5 9.5t-63.5 2.5h-23q-47 0 -76 -4.5t-44.5 -17t-20.5 -36t-5 -61.5v-11zM320 75q48 0 76.5 4.5t44 17t20.5 36t5 62.5v11q0 20 -1 36t-4 29l-268 -185q17 -7 42 -9t62 -2h23z" />
    <glyph glyph-name="ugrave" unicode="&#xf9;" horiz-adv-x="627" 
d="M568 0h-115v72h-1q-10 -21 -24 -35.5t-35 -24.5t-50.5 -14.5t-69.5 -4.5h-10q-65 0 -106 8t-64.5 28.5t-32 56.5t-8.5 92v220h115v-205q0 -35 4.5 -57t18 -34.5t39 -17t68.5 -4.5h11q40 0 67.5 5.5t45 18t25 34.5t7.5 55v205h115v-398zM389 443l-176 87l45 63l157 -114z
" />
    <glyph glyph-name="uacute" unicode="&#xfa;" horiz-adv-x="627" 
d="M568 0h-115v72h-1q-10 -21 -24 -35.5t-35 -24.5t-50.5 -14.5t-69.5 -4.5h-10q-65 0 -106 8t-64.5 28.5t-32 56.5t-8.5 92v220h115v-205q0 -35 4.5 -57t18 -34.5t39 -17t68.5 -4.5h11q40 0 67.5 5.5t45 18t25 34.5t7.5 55v205h115v-398zM248 443l-27 36l158 114l45 -63z
" />
    <glyph glyph-name="ucircumflex" unicode="&#xfb;" horiz-adv-x="627" 
d="M568 0h-115v72h-1q-10 -21 -24 -35.5t-35 -24.5t-50.5 -14.5t-69.5 -4.5h-10q-65 0 -106 8t-64.5 28.5t-32 56.5t-8.5 92v220h115v-205q0 -35 4.5 -57t18 -34.5t39 -17t68.5 -4.5h11q40 0 67.5 5.5t45 18t25 34.5t7.5 55v205h115v-398zM418 454l-108 61l-107 -61l-31 37
l138 97l139 -97z" />
    <glyph glyph-name="udieresis" unicode="&#xfc;" horiz-adv-x="627" 
d="M568 0h-115v72h-1q-10 -21 -24 -35.5t-35 -24.5t-50.5 -14.5t-69.5 -4.5h-10q-65 0 -106 8t-64.5 28.5t-32 56.5t-8.5 92v220h115v-205q0 -35 4.5 -57t18 -34.5t39 -17t68.5 -4.5h11q40 0 67.5 5.5t45 18t25 34.5t7.5 55v205h115v-398zM271 466h-98v98h98v-98zM463 466
h-98v98h98v-98z" />
    <glyph glyph-name="yacute" unicode="&#xfd;" horiz-adv-x="546" 
d="M85 -61q9 -1 18 -1h17q26 0 44 3.5t30.5 11.5t23 22.5t21.5 36.5h-38l-198 386h122l150 -304h5l142 304h121l-175 -350q-31 -62 -54.5 -99.5t-47.5 -58t-53 -27.5t-70 -7h-27.5t-30.5 1v82zM232 443l-27 36l158 114l45 -63z" />
    <glyph glyph-name="thorn" unicode="&#xfe;" horiz-adv-x="634" 
d="M173 -141h-114v705h114v-223h2q12 19 27.5 31.5t36.5 20t49 10t64 2.5h11q70 0 114.5 -7.5t70 -29.5t35 -61t9.5 -103v-11q0 -63 -10 -102.5t-36 -61t-70 -29t-113 -7.5h-16q-72 0 -111.5 15t-60.5 50h-2v-199zM339 78q45 0 72.5 4t42 16.5t19 35.5t4.5 61v11
q0 38 -4.5 61t-19 35t-42 16t-72.5 4h-24q-46 0 -74 -4t-43.5 -16t-20.5 -35t-5 -61v-11q0 -38 5 -60.5t20.5 -35.5t43.5 -17t74 -4h24z" />
    <glyph glyph-name="ydieresis" unicode="&#xff;" horiz-adv-x="546" 
d="M85 -61q9 -1 18 -1h17q26 0 44 3.5t30.5 11.5t23 22.5t21.5 36.5h-38l-198 386h122l150 -304h5l142 304h121l-175 -350q-31 -62 -54.5 -99.5t-47.5 -58t-53 -27.5t-70 -7h-27.5t-30.5 1v82zM232 466h-98v98h98v-98zM424 466h-98v98h98v-98z" />
    <glyph glyph-name="dotlessi" unicode="&#x131;" horiz-adv-x="232" 
d="M173 0h-114v398h114v-398z" />
    <glyph glyph-name="Lslash" unicode="&#x141;" horiz-adv-x="605" 
d="M595 0h-532v229l-56 -20v67l56 21v267h124v-226l184 66v-63l-184 -70v-173h408v-98z" />
    <glyph glyph-name="lslash" unicode="&#x142;" horiz-adv-x="232" 
d="M173 0h-114v217l-47 -30v66l47 31v280h114v-227l46 32v-67l-46 -31v-271z" />
    <glyph glyph-name="OE" unicode="&#x152;" horiz-adv-x="1282" 
d="M1254 0h-585v53h-3q-13 -15 -30 -26.5t-43 -19t-65 -11t-96 -3.5h-25q-117 0 -187.5 9t-108.5 38.5t-50 85t-12 148.5v16q0 93 12 148.5t50 85t108.5 38.5t187.5 9h25q62 0 102.5 -3.5t66 -10.5t40 -18t25.5 -26h3v51h578v-94h-460v-136h438v-92h-438v-145h467v-97z
M427 90q81 0 128.5 5t72 23.5t31 54t6.5 97.5v27q0 62 -7 97.5t-31.5 53.5t-72 23t-127.5 5h-16q-82 0 -129.5 -5t-71.5 -24t-30.5 -57t-6.5 -103v-9q0 -65 6.5 -102.5t30.5 -56.5t71.5 -24t129.5 -5h16z" />
    <glyph glyph-name="oe" unicode="&#x153;" horiz-adv-x="1008" 
d="M966 126q0 -39 -13 -65t-40 -41t-69 -21t-99 -6h-26q-88 0 -135.5 11.5t-60.5 43.5h-1q-14 -33 -62.5 -44t-134.5 -11h-31q-78 0 -127.5 8t-77 30.5t-37.5 61.5t-10 102v11q0 63 10.5 101.5t38 60.5t76.5 29.5t127 7.5h31q90 0 135.5 -11.5t60.5 -44.5h1q13 31 55.5 43.5
t123.5 12.5h24q66 0 112 -6t74 -24t40.5 -51t12.5 -87v-59h-390v-8q0 -32 4.5 -51.5t19.5 -30t44 -14.5t78 -4h15q39 0 63 3t37.5 9.5t18.5 18t5 29.5v5h107v-9zM320 77q48 0 76 4t43 16.5t19.5 36t4.5 61.5v11q0 39 -4.5 62t-19.5 35t-43.5 16t-75.5 4h-23q-47 0 -75.5 -4
t-43.5 -16.5t-19.5 -35.5t-4.5 -61v-11q0 -38 4.5 -61.5t19.5 -36t43.5 -16.5t75.5 -4h23zM855 244v9q0 25 -4.5 40.5t-19 24.5t-41 12t-69.5 3h-9q-45 0 -71.5 -3t-41 -13t-19.5 -27.5t-6 -45.5h281z" />
    <glyph glyph-name="Scaron" unicode="&#x160;" horiz-adv-x="768" 
d="M383 598l-138 93l31 37l107 -56l108 56l31 -37zM717 163q0 -52 -11.5 -85t-44.5 -52t-93.5 -26t-159.5 -7h-27q-110 0 -174.5 6t-98 24.5t-43 52t-9.5 87.5v17h122v-13q0 -27 6.5 -43t27 -24.5t59 -11t102.5 -2.5h22q67 0 107 3t61 11.5t27 22.5t6 36v6q0 24 -5.5 38.5
t-26.5 23t-62.5 11.5t-113.5 3q-111 0 -175 6.5t-97 23.5t-42 48t-9 81v7q0 50 11 82t42.5 50t88.5 25t148 7h28q106 0 169 -7.5t96 -26t42.5 -51t9.5 -81.5v-15h-122v9q0 25 -5.5 41t-24 25t-53.5 12t-93 3h-22q-65 0 -103.5 -2.5t-58.5 -10.5t-26 -22.5t-6 -37.5v-6
q0 -21 5 -34t26 -20.5t64 -10t120 -2.5q105 0 167.5 -6t95.5 -23.5t43 -50t10 -85.5v-6z" />
    <glyph glyph-name="scaron" unicode="&#x161;" horiz-adv-x="593" 
d="M278 -7q-73 0 -118 6.5t-70.5 20t-34.5 34.5t-9 51v18h113v-3q0 -15 4 -24.5t16.5 -15.5t35 -8t59.5 -2h35q45 0 71.5 2t40 7t17.5 14.5t4 23.5v5q0 14 -4.5 23t-19.5 14t-44.5 7t-80.5 2q-78 0 -125.5 5t-72.5 17.5t-33 34.5t-8 56v9q0 33 9.5 55t34 35.5t66.5 19
t108 5.5h28q73 0 119 -5t71 -18t34 -34.5t9 -55.5v-10h-110v4q0 15 -3.5 24t-15.5 14.5t-35.5 7.5t-62.5 2h-21q-39 0 -63 -1.5t-37 -6.5t-17 -13.5t-4 -21.5v-5q0 -13 4 -20.5t19 -12t43.5 -6t77.5 -1.5q77 0 124.5 -5t74 -18t36 -35.5t9.5 -58.5v-10q0 -37 -10.5 -61
t-37.5 -38.5t-73.5 -20.5t-118.5 -6h-34zM292 439l-138 97l31 38l107 -60l108 60l31 -38z" />
    <glyph glyph-name="Ydieresis" unicode="&#x178;" horiz-adv-x="761" 
d="M336 618h-98v98h98v-98zM528 618h-98v98h98v-98zM442 0h-124v205l-315 359h150l228 -261h3l224 261h150l-316 -359v-205z" />
    <glyph glyph-name="Zcaron" unicode="&#x17d;" horiz-adv-x="732" 
d="M365 598l-138 93l31 37l107 -56l108 56l31 -37zM694 0h-656v95l485 378v1h-470v90h633v-97l-484 -374v-1h492v-92z" />
    <glyph glyph-name="zcaron" unicode="&#x17e;" horiz-adv-x="500" 
d="M475 0h-447v76l297 243v1h-284v78h427v-83l-290 -233v-1h297v-81zM251 439l-138 97l31 38l107 -60l108 60l31 -38z" />
    <glyph glyph-name="florin" unicode="&#x192;" horiz-adv-x="707" 
d="M368 43q-9 -40 -24 -70.5t-40.5 -51.5t-64 -31.5t-93.5 -10.5q-28 0 -56 1.5t-48 5.5v91q15 -3 38 -6t44 -3q30 0 52 4t38 15t26 29.5t16 48.5l38 166h-163v91h184l19 86q11 51 30.5 82.5t47 49.5t62.5 24t77 6q32 0 58.5 -2t55.5 -7v-91q-19 4 -46 7.5t-51 3.5
q-28 0 -48.5 -4t-35.5 -14.5t-25 -29.5t-17 -50l-14 -61h192v-91h-212z" />
    <glyph glyph-name="circumflex" unicode="&#x2c6;" horiz-adv-x="415" 
d="M315 454l-108 61l-107 -61l-31 37l138 97l139 -97z" />
    <glyph glyph-name="caron" unicode="&#x2c7;" horiz-adv-x="415" 
d="M207 439l-138 97l31 38l107 -60l108 60l31 -38z" />
    <glyph glyph-name="breve" unicode="&#x2d8;" horiz-adv-x="415" 
d="M353 564q-2 -27 -13.5 -47.5t-31 -34t-45.5 -20.5t-56 -7q-29 0 -55 7t-45.5 20.5t-31.5 34t-13 47.5h58q7 -29 31 -40t56 -11q35 0 58 10t30 41h58z" />
    <glyph glyph-name="dotaccent" unicode="&#x2d9;" horiz-adv-x="415" 
d="M265 466h-115v98h115v-98z" />
    <glyph glyph-name="ring" unicode="&#x2da;" horiz-adv-x="415" 
d="M205 452q-62 0 -84 15t-22 52v5q0 37 22 51.5t84 14.5h5q62 0 84 -14.5t22 -51.5v-5q0 -37 -22 -52t-84 -15h-5zM210 486q39 0 52 7.5t13 25.5v5q0 19 -13 25t-52 6h-5q-39 0 -52 -6t-13 -25v-5q0 -18 13 -25.5t52 -7.5h5z" />
    <glyph glyph-name="ogonek" unicode="&#x2db;" horiz-adv-x="373" 
d="M271 -153q-22 -6 -45.5 -9.5t-47.5 -3.5q-42 0 -64 14t-22 47q0 36 22 58.5t64 46.5h57q-21 -16 -35 -27.5t-21.5 -21.5t-10.5 -18t-3 -17q0 -16 10 -22t33 -6q27 0 63 6v-47z" />
    <glyph glyph-name="tilde" unicode="&#x2dc;" horiz-adv-x="415" 
d="M344 555q-5 -45 -25.5 -69.5t-57.5 -24.5q-14 0 -28.5 5.5t-30.5 15.5q-17 11 -29 15t-23 4q-13 0 -23.5 -8.5t-16.5 -29.5l-39 12q4 42 25.5 66.5t55.5 24.5q25 0 60 -19q35 -22 53 -22q16 0 24.5 12t11.5 30z" />
    <glyph glyph-name="hungarumlaut" unicode="&#x2dd;" horiz-adv-x="415" 
d="M233 538l-149 -94l-30 34l134 108zM399 538l-155 -94l-30 34l140 108z" />
    <glyph glyph-name="pi" unicode="&#x3c0;" horiz-adv-x="658" 
d="M622 9q-17 -8 -35 -11.5t-43 -3.5q-57 0 -79.5 30t-22.5 93v191h-232v-308h-115v308h-58v90h585v-90h-65v-179q0 -30 8 -41t28 -11q9 0 16 1.5t13 3.5v-73z" />
    <glyph glyph-name="uni060C" unicode="&#x60c;" horiz-adv-x="347" 
d="M215 0h-131l85 245h109z" />
    <glyph glyph-name="uni0615" unicode="&#x615;" 
d="M-99 725q0 3 2 1t6 -2h21v101q0 14 12 14h15v-74l52 30q8 5 21 10t27 5q25 0 41 -15t16 -39q0 -27 -16 -42.5t-37 -15.5h-147q-9 0 -11 2.5t-2 8.5v16zM52 724q17 0 25.5 8.5t8.5 22.5q0 11 -9 19.5t-22 8.5q-8 0 -19.5 -5.5t-18.5 -9.5l-74 -44h109z" />
    <glyph glyph-name="uni061B" unicode="&#x61b;" horiz-adv-x="346" 
d="M211 297h-130l85 245h108zM80 71q0 29 20 49.5t49 20.5t49.5 -20.5t20.5 -49.5t-20.5 -49t-49.5 -20t-49 20t-20 49z" />
    <glyph glyph-name="uni061F" unicode="&#x61f;" horiz-adv-x="422" 
d="M318 60q0 -29 -20 -49t-49 -20t-49.5 20t-20.5 49t20.5 49.5t49.5 20.5t49 -20.5t20 -49.5zM381 576q-15 9 -37 19t-68 10q-24 0 -45.5 -4t-38.5 -14.5t-27 -27.5t-10 -43q0 -24 8 -45.5t20.5 -40.5t27 -36t28.5 -33q18 -21 29.5 -37.5t19 -33.5t10.5 -35.5t3 -42.5v-21
h-103v18q0 21 -4.5 38t-16.5 35q-20 30 -44 57t-44.5 54.5t-34.5 59t-14 70.5q0 45 17 79t46.5 57t69 34.5t83.5 11.5q32 0 54 -3.5t36 -8t22 -9.5t13 -8v-100z" />
    <glyph glyph-name="uni0640" unicode="&#x640;" horiz-adv-x="155" 
d="M-47 102h250v-102h-250v102z" />
    <glyph glyph-name="uni0647" unicode="&#x647;" horiz-adv-x="735" 
d="M467 338q41 -6 72.5 -17.5t52.5 -32t32 -51.5t11 -75q0 -86 -53 -124t-146 -38h-221q-92 0 -145.5 38.5t-53.5 123.5q0 45 11 76t32.5 51.5t52.5 31.5t72 17q36 5 53 5.5t27 8.5q5 5 7 10.5t2 10.5q0 2 -0.5 3t-0.5 2v2h107q-1 -1 -1 -2v-6q0 -5 1.5 -10t7.5 -10
q10 -8 27 -8.5t53 -5.5zM442 102q45 0 66 14t21 55q0 20 -7.5 32t-20 19t-29 10t-34.5 6q-2 0 -17.5 1.5t-35 4t-37 7t-23.5 11.5q-5 -7 -22.5 -11.5t-37 -7t-35.5 -4t-17 -1.5q-20 -3 -37 -6.5t-29 -10.5t-18.5 -19t-6.5 -31q0 -17 3.5 -30t13.5 -21q19 -18 70 -18h233z
" />
    <glyph glyph-name="uni064B" unicode="&#x64b;" 
d="M-104 803h210v-28h-210v28zM105 729v-28h-209v28h209z" />
    <glyph glyph-name="uni064C" unicode="&#x64c;" 
d="M-9 701q-17 0 -30.5 8.5t-24.5 19.5q-12 -10 -15 -26l-22 3q-2 0 -6 2q-2 2 -2 6q0 8 5.5 17t13.5 16.5t17.5 12.5t17.5 6l16 -20q8 -11 16.5 -12.5t15.5 -1.5q8 0 14.5 4.5t11.5 9.5q-24 2 -38 17.5t-14 37.5q1 11 6.5 22t14.5 23q11 12 26.5 19.5t32.5 7.5q22 0 38 -13
q24 -20 24 -45q0 -17 -10.5 -33.5t-29.5 -32.5l-43 -36q-18 -12 -35 -12zM47 846q-9 0 -19 -4.5t-18 -13.5q-12 -14 -12 -31q0 -12 8.5 -21.5t28.5 -9.5q10 0 18.5 6t14.5 14t9.5 15.5t3.5 11.5q0 15 -10 23.5t-24 9.5z" />
    <glyph glyph-name="uni064D" unicode="&#x64d;" 
d="M-104 -232h210v-27h-210v27zM-104 -306h209v-27h-209v27z" />
    <glyph glyph-name="uni064E" unicode="&#x64e;" 
d="M-107 726h210v-27h-210v27z" />
    <glyph glyph-name="uni064F" unicode="&#x64f;" 
d="M-43 700q-17 0 -31.5 6t-28.5 15q-5 3 -5 8q0 4 4 8q3 2 6 4.5t5 4.5q3 2 6 3l3 -2q12 -8 21 -13t18 -5q17 0 30 8t19 13q-9 2 -18 6.5t-17 14.5q-13 16 -13 36q0 11 4 22t15 24q11 12 27 19.5t32 7.5q22 0 38 -13q25 -19 25 -45q0 -17 -8.5 -30.5t-26.5 -29.5l-18 -16
q-8 -7 -17.5 -14.5t-17.5 -12.5q-17 -12 -28.5 -15.5t-23.5 -3.5zM34 853q-10 0 -19.5 -4t-17.5 -14q-11 -14 -11 -28q0 -6 1.5 -11t3.5 -7q12 -16 28 -16q8 0 14 3t10 6q14 12 19.5 21.5t5.5 16.5q0 8 -3.5 14t-8.5 11q-8 8 -22 8z" />
    <glyph glyph-name="uni0650" unicode="&#x650;" 
d="M-104 -231h209v-27h-209v27z" />
    <glyph glyph-name="uni0651" unicode="&#x651;" 
d="M-147 818h27q-2 -22 -2.5 -34t-1.5 -18.5t-1 -8.5v-3q0 -25 18 -30t41 -5q25 0 39 7t14 33v59h26v-59q0 -26 14 -33t39 -7q23 0 41 5t18 30v3t-1 8.5t-2 18.5t-2 34h27l6 -67q0 -32 -20 -43t-65 -13q-2 0 -11 0.5t-20.5 2.5t-22 6t-14.5 12q-5 -8 -15 -12t-21.5 -6
t-20.5 -2.5t-11 -0.5q-45 2 -65 13t-20 43z" />
    <glyph glyph-name="uni0652" unicode="&#x652;" 
d="M-76 775q0 30 21.5 51.5t52.5 21.5q30 0 51.5 -21.5t21.5 -51.5q0 -31 -21.5 -52t-51.5 -21q-31 0 -52.5 21t-21.5 52zM-48 775q0 -20 13.5 -33t32.5 -13q18 0 31.5 14t13.5 32t-13.5 31.5t-31.5 13.5q-19 0 -32.5 -12.5t-13.5 -32.5z" />
    <glyph glyph-name="uni0653" unicode="&#x653;" 
d="M-106 641q-10 1 -13 7q-6 10 -6 26q0 13 5 26q10 20 30 25.5t44 5.5h164q4 0 5 1l2 2q2 0 2 -6v-19q0 -2 -2 -5t-12 -3h-165q-13 0 -29 -6t-16 -23q0 -9 3 -14.5t6 -9.5l3 -3t2 -3t-5 -1h-18z" />
    <glyph glyph-name="uni0654" unicode="&#x654;" 
d="M-50 727q-11 8 -17 22.5t-6 27.5q2 38 33 55q11 5 20 6t14 2h67q9 0 13 4q1 1 1 1.5t1 1.5q0 1 1 1l27 -24q-3 -7 -7 -9q-5 -4 -12 -4.5t-13 -0.5h-75q-38 -3 -38 -35q0 -23 14.5 -35.5t37.5 -12.5h94v-27h-209v27h54z" />
    <glyph glyph-name="uni0655" unicode="&#x655;" 
d="M-50 -340q-11 8 -17 22.5t-6 27.5q2 38 33 55q11 5 20 6t14 2h67q9 0 13 4q1 1 1 1.5t1 1.5q0 1 1 1l27 -24q-3 -7 -7 -9q-5 -4 -12 -4.5t-13 -0.5h-75q-38 -3 -38 -35q0 -23 14.5 -35.5t37.5 -12.5h94v-27h-209v27h54z" />
    <glyph glyph-name="uni0656" unicode="&#x656;" 
d="M-14 -367v138h28v-138h-28z" />
    <glyph glyph-name="uni0658" unicode="&#x658;" 
d="M-72 771q0 31 24 54l17 -22q-14 -14 -14 -32q0 -19 13 -32t32 -13t31.5 13t12.5 32q0 17 -15 34l21 18q10 -10 16 -23t6 -29q0 -30 -21 -51.5t-51 -21.5t-51 21.5t-21 51.5z" />
    <glyph glyph-name="uni0660" unicode="&#x660;" horiz-adv-x="580" 
d="M288 296q31 0 58 -11.5t47 -32t31.5 -47.5t11.5 -57q0 -31 -11.5 -58t-31.5 -47t-47 -31.5t-58 -11.5t-58 11.5t-47.5 31.5t-32 47t-11.5 58t12 58t32 47t47.5 31.5t57.5 11.5zM288 101q17 0 29.5 13.5t12.5 33.5t-12.5 33.5t-29.5 13.5q-18 0 -30.5 -13.5t-12.5 -33.5
t12.5 -33.5t30.5 -13.5z" />
    <glyph glyph-name="uni0661" unicode="&#x661;" horiz-adv-x="580" 
d="M236 585h107v-585h-107v585z" />
    <glyph glyph-name="uni0662" unicode="&#x662;" horiz-adv-x="580" 
d="M497 332q-1 -35 -14 -59.5t-34 -40t-48 -22.5t-56 -7h-96q-12 0 -27 5.5t-20 17.5v-226h-107v585h106v-115v-44t0.5 -40t0.5 -30.5v-15.5q0 -13 4 -22t18 -9h112q24 2 38 7t17 28q0 3 -0.5 14.5t-1 29t-1 39t-0.5 43.5q-2 51 -3 115h78q17 0 23 -7.5t6 -21.5z" />
    <glyph glyph-name="uni0663" unicode="&#x663;" horiz-adv-x="580" 
d="M548 555q1 -50 2 -93q0 -18 0.5 -36.5t1 -35t0.5 -29.5v-20q0 -44 -8.5 -71t-27.5 -42t-48 -20t-70 -5q-47 0 -70.5 9.5t-33.5 27.5q-8 -11 -20 -19q-11 -7 -26.5 -12.5t-37.5 -5.5h-9q-11 0 -26.5 6t-21.5 19v-228h-106v585h105v-114v-43.5t0.5 -39t0.5 -30v-15.5
q0 -24 11.5 -31t31.5 -7q23 0 34 5t11 33v126q0 52 1 116h105v-242q0 -27 12 -33t41 -6q26 0 36 6.5t11 32.5q0 3 -0.5 14.5t-1 29.5t-1 39.5t-0.5 43.5q-2 52 -3 115h76q19 0 24.5 -9.5t6.5 -20.5z" />
    <glyph glyph-name="uni0664" unicode="&#x664;" horiz-adv-x="580" 
d="M266 165q18 -18 48 -34.5t60.5 -30.5t56 -24t35.5 -13q9 -3 9 -7t-9 -13q-9 -8 -24 -19l-30 -22q-17 -12 -27 -12q-7 0 -13 2t-13 5q-16 6 -38.5 15t-52.5 26.5t-67 44.5t-82 68q-6 6 -6 14q0 4 5 11q10 13 32.5 34.5t47 44t46 41.5t30.5 25q-12 7 -33.5 20.5t-43.5 27
t-39.5 25.5t-23.5 17q-4 3 -7 7.5t-3 11.5q1 6 11 16q21 21 50.5 43.5t59 42.5t55 35.5t39.5 23.5q2 2 8 6t11 12q2 2 3 2q3 0 5 -2l69 -62q4 -4 4 -8t-5 -8.5t-6 -4.5q-15 -9 -35.5 -21t-41.5 -24.5t-40.5 -24.5t-31.5 -22q2 -1 21.5 -12.5t44 -25.5t47.5 -28t32 -21
q8 -7 12.5 -11t4.5 -9t-10 -15q-5 -4 -27 -22l-49.5 -40.5t-53.5 -45.5t-38 -36z" />
    <glyph glyph-name="uni0665" unicode="&#x665;" horiz-adv-x="580" 
d="M548 203q0 -49 -18 -87.5t-48 -65t-69.5 -40.5t-83.5 -14h-79q-42 0 -81.5 15t-70 42t-49 65t-18.5 85q0 64 35 125q31 45 59 87q24 36 48.5 74t39.5 62q2 3 4.5 9t2.5 12q0 2 -0.5 3.5t-0.5 3.5q-1 2 -1 4q1 2 7 2h101q11 0 19.5 -6t14.5 -16q6 -11 16 -27t22 -34.5
t25 -38.5t26 -39q30 -46 64 -96q35 -61 35 -125zM392 114q51 31 51 84q0 32 -20 74q-1 1 -10 15.5t-22.5 35.5t-29.5 45.5t-30.5 47.5t-26 41t-15.5 25q-4 -7 -15.5 -25t-26 -41t-30.5 -47.5t-29.5 -45.5t-22.5 -35.5t-10 -15.5q-19 -38 -19 -69t14.5 -53t35.5 -36
q15 -11 39.5 -13t45.5 -2h38q21 0 44.5 2.5t38.5 12.5z" />
    <glyph glyph-name="uni0666" unicode="&#x666;" horiz-adv-x="580" 
d="M80 585h58q25 0 36.5 -15.5t11.5 -35.5v-24t0.5 -55t0.5 -61.5v-43.5q0 -28 13.5 -35.5t41.5 -9.5h95q17 0 27 10t10 29v129q0 50 1 112h105v-585h-106v223q-7 -11 -22 -15.5t-28 -4.5h-87q-28 0 -56 8t-50.5 24.5t-36.5 41t-14 57.5v251z" />
    <glyph glyph-name="uni0667" unicode="&#x667;" horiz-adv-x="580" 
d="M16 585h121q0 -1 6 -22t16.5 -54.5t24.5 -76.5t28 -88q33 -105 75 -238l152 479h120q-54 -153 -96 -275q-18 -52 -35.5 -102.5t-32 -90.5t-23.5 -66t-10 -29q-5 -11 -17 -16.5t-26 -5.5h-97q-11 0 -12 4q0 3 2 6q1 1 1 4t-1.5 7t-3.5 9z" />
    </font>
</defs>
</svg>
